<svg width="20" height="20" viewBox="0 0 20 20" fill="none" xmlns="http://www.w3.org/2000/svg">
<path fill-rule="evenodd" clip-rule="evenodd" d="M3.125 3.125C3.125 2.77982 3.40482 2.5 3.75 2.5H16.875C17.2065 2.5 17.5245 2.6317 17.7589 2.86612C17.9933 3.10054 18.125 3.41848 18.125 3.75V5.07812C18.125 5.72045 17.8698 6.33646 17.4156 6.79065C16.9615 7.24484 16.3454 7.5 15.7031 7.5H15V10.625C15 11.1175 14.903 11.6051 14.7145 12.0601C14.5261 12.515 14.2499 12.9284 13.9017 13.2767C13.5534 13.6249 13.14 13.9011 12.6851 14.0895C12.2301 14.278 11.7425 14.375 11.25 14.375H6.875C5.88044 14.375 4.92661 13.9799 4.22335 13.2767C3.52009 12.5734 3.125 11.6196 3.125 10.625V3.125ZM15 6.25H15.7031C16.0139 6.25 16.312 6.12653 16.5318 5.90677C16.7515 5.687 16.875 5.38893 16.875 5.07812V3.75H15V6.25ZM13.75 3.75V10.625C13.75 10.9533 13.6853 11.2784 13.5597 11.5817C13.4341 11.885 13.2499 12.1606 13.0178 12.3928C12.7856 12.6249 12.51 12.8091 12.2067 12.9347C11.9034 13.0603 11.5783 13.125 11.25 13.125H6.875C6.21196 13.125 5.57607 12.8616 5.10723 12.3928C4.63839 11.9239 4.375 11.288 4.375 10.625V3.75H13.75ZM1.875 16.25C1.875 15.9048 2.15482 15.625 2.5 15.625H15.625C15.9702 15.625 16.25 15.9048 16.25 16.25C16.25 16.5952 15.9702 16.875 15.625 16.875H2.5C2.15482 16.875 1.875 16.5952 1.875 16.25Z" fill="#0F0E17"/>
</svg>
