<svg width="32" height="32" viewBox="0 0 32 32" fill="none" xmlns="http://www.w3.org/2000/svg">
<path d="M11.5 16C12.3284 16 13 15.3284 13 14.5C13 13.6716 12.3284 13 11.5 13C10.6716 13 10 13.6716 10 14.5C10 15.3284 10.6716 16 11.5 16Z" fill="#0F0E17"/>
<path d="M16.0031 24C13.1644 24 10.7769 22.1544 10.0212 19.6356C10.0001 19.5607 9.99678 19.4818 10.0115 19.4053C10.0263 19.3289 10.0586 19.2569 10.1061 19.1952C10.1536 19.1334 10.2148 19.0836 10.2849 19.0497C10.3551 19.0159 10.4321 18.9988 10.51 19H21.4906C21.5685 18.9988 21.6456 19.0159 21.7157 19.0497C21.7858 19.0836 21.847 19.1334 21.8945 19.1952C21.942 19.2569 21.9744 19.3289 21.9891 19.4053C22.0038 19.4818 22.0005 19.5607 21.9794 19.6356C21.23 22.1544 18.8419 24 16.0031 24Z" fill="#0F0E17"/>
<path d="M20.5 16C21.3284 16 22 15.3284 22 14.5C22 13.6716 21.3284 13 20.5 13C19.6716 13 19 13.6716 19 14.5C19 15.3284 19.6716 16 20.5 16Z" fill="#0F0E17"/>
<path fill-rule="evenodd" clip-rule="evenodd" d="M16 4C9.37258 4 4 9.37258 4 16C4 22.6274 9.37258 28 16 28C22.6274 28 28 22.6274 28 16C28 9.37258 22.6274 4 16 4ZM2 16C2 8.26801 8.26801 2 16 2C23.732 2 30 8.26801 30 16C30 23.732 23.732 30 16 30C8.26801 30 2 23.732 2 16Z" fill="#0F0E17"/>
</svg>
