<svg width="24" height="24" viewBox="0 0 24 24" fill="none" xmlns="http://www.w3.org/2000/svg">
<rect width="24" height="24" rx="12" fill="#F9F4EF"/>
<path d="M4.279 4.9014L7.90479 11.1475C8.09302 10.1995 8.60389 9.34599 9.35049 8.7322C10.0971 8.11841 11.0333 7.78226 11.9998 7.78093H21.6171C21.2865 7.05448 20.8816 6.36423 20.4087 5.72125L20.4143 5.725C20.8854 6.36681 21.2885 7.05582 21.6171 7.78093H21.6251C21.2966 7.05365 20.8935 6.36245 20.4223 5.71843C20.4165 5.71483 20.411 5.71076 20.4059 5.70625C19.4821 4.4712 18.2974 3.45492 16.9362 2.72968C15.5751 2.00445 14.0708 1.58808 12.5304 1.51021C10.9901 1.43234 9.45148 1.69488 8.0241 2.27914C6.59672 2.86341 5.31564 3.75504 4.27197 4.89062L4.279 4.9014Z" fill="#E2504A"/>
<path d="M11.9999 16.1949C10.4249 16.1949 9.11238 15.3554 8.37691 14.0954L3.56238 5.7676L3.55581 5.75635C2.51693 7.16286 1.84575 8.80656 1.60321 10.5382C1.36067 12.2699 1.55444 14.0348 2.16693 15.6726C2.77942 17.3104 3.79124 18.7693 5.11055 19.9169C6.42986 21.0645 8.01488 21.8645 9.72175 22.2442V22.2418L13.3635 15.9324C12.928 16.0999 12.4664 16.1888 11.9999 16.1949Z" fill="#00A161"/>
<path d="M8.8501 11.9965C8.84991 12.6195 9.0345 13.2286 9.38051 13.7468C9.72653 14.2649 10.2184 14.6688 10.794 14.9074C11.3696 15.1459 12.003 15.2084 12.6141 15.087C13.2252 14.9656 13.7865 14.6656 14.2272 14.2251C14.6678 13.7846 14.9679 13.2234 15.0895 12.6123C15.2111 12.0012 15.1488 11.3678 14.9104 10.7922C14.672 10.2165 14.2683 9.72452 13.7502 9.37835C13.2322 9.03218 12.6231 8.84741 12.0001 8.84741C11.1655 8.84964 10.3657 9.1821 9.7755 9.77215C9.18527 10.3622 8.85257 11.1619 8.8501 11.9965Z" fill="#4689F1"/>
<path d="M22.3477 10.2087V10.211C22.2708 9.7531 22.1612 9.30131 22.0195 8.85913H22.0144H14.73C15.623 9.65601 16.2 10.7421 16.2 12.0021C16.202 12.7405 16.0025 13.4654 15.623 14.0988L10.8281 22.4271C10.8284 22.4313 10.8284 22.4355 10.8281 22.4398C11.2173 22.4813 11.6086 22.5019 12 22.4998C12.3206 22.4998 12.638 22.4815 12.9516 22.4529C13.4214 22.4104 13.8877 22.3362 14.3475 22.2307C19.0163 21.1648 22.5 16.9873 22.5 11.9969C22.5001 11.3976 22.4491 10.7994 22.3477 10.2087Z" fill="#FFCF55"/>
</svg>
