<svg width="32" height="32" viewBox="0 0 32 32" fill="none" xmlns="http://www.w3.org/2000/svg">
<path fill-rule="evenodd" clip-rule="evenodd" d="M4 10C4 9.44772 4.44772 9 5 9H27C27.5523 9 28 9.44772 28 10C28 10.5523 27.5523 11 27 11H5C4.44772 11 4 10.5523 4 10Z" fill="#0F0E17"/>
<path fill-rule="evenodd" clip-rule="evenodd" d="M4 16C4 15.4477 4.44772 15 5 15H27C27.5523 15 28 15.4477 28 16C28 16.5523 27.5523 17 27 17H5C4.44772 17 4 16.5523 4 16Z" fill="#0F0E17"/>
<path fill-rule="evenodd" clip-rule="evenodd" d="M4 22C4 21.4477 4.44772 21 5 21H27C27.5523 21 28 21.4477 28 22C28 22.5523 27.5523 23 27 23H5C4.44772 23 4 22.5523 4 22Z" fill="#0F0E17"/>
</svg>
