<svg width="24" height="24" viewBox="0 0 24 24" fill="none" xmlns="http://www.w3.org/2000/svg">
<g clip-path="url(#clip0_730_3087)">
<path d="M9.75016 24.0007C9.51313 24.0019 9.28139 23.9308 9.08589 23.7967C8.89039 23.6627 8.74044 23.4722 8.65609 23.2507L6.78859 18.3945C6.75077 18.2966 6.69291 18.2077 6.61873 18.1336C6.54454 18.0594 6.45567 18.0015 6.35781 17.9637L1.50016 16.0948C1.27888 16.0099 1.08856 15.8598 0.954304 15.6645C0.820052 15.4692 0.748183 15.2377 0.748183 15.0007C0.748183 14.7637 0.820052 14.5323 0.954304 14.3369C1.08856 14.1416 1.27888 13.9916 1.50016 13.9067L6.35641 12.0392C6.45426 12.0013 6.54313 11.9435 6.61732 11.8693C6.6915 11.7951 6.74936 11.7062 6.78719 11.6084L8.65609 6.75073C8.74102 6.52945 8.89105 6.33912 9.08637 6.20487C9.2817 6.07062 9.51314 5.99875 9.75016 5.99875C9.98717 5.99875 10.2186 6.07062 10.4139 6.20487C10.6093 6.33912 10.7593 6.52945 10.8442 6.75073L12.7117 11.607C12.7495 11.7048 12.8074 11.7937 12.8816 11.8679C12.9558 11.9421 13.0446 11.9999 13.1425 12.0378L17.9706 13.8954C18.2009 13.9808 18.3993 14.135 18.5388 14.3372C18.6783 14.5393 18.7521 14.7795 18.7502 15.0251C18.7466 15.258 18.6732 15.4844 18.5395 15.6752C18.4058 15.8659 18.2179 16.012 18.0002 16.0948L13.1439 17.9623C13.046 18.0001 12.9572 18.058 12.883 18.1322C12.8088 18.2063 12.7509 18.2952 12.7131 18.3931L10.8442 23.2507C10.7599 23.4722 10.6099 23.6627 10.4144 23.7967C10.2189 23.9308 9.98718 24.0019 9.75016 24.0007Z" fill="#0F0E17"/>
<path d="M4.12516 8.25073C3.9862 8.25072 3.8505 8.20861 3.73595 8.12996C3.62139 8.0513 3.53336 7.93978 3.48344 7.8101L2.69312 5.7551C2.676 5.71016 2.64956 5.66934 2.61555 5.63533C2.58154 5.60132 2.54072 5.57489 2.49578 5.55776L0.440781 4.76744C0.311115 4.71751 0.199617 4.62947 0.120977 4.51491C0.0423369 4.40036 0.000244141 4.26467 0.000244141 4.12572C0.000244141 3.98678 0.0423369 3.85109 0.120977 3.73653C0.199617 3.62198 0.311115 3.53394 0.440781 3.48401L2.49578 2.69369C2.54068 2.67649 2.58145 2.65002 2.61545 2.61602C2.64945 2.58202 2.67592 2.54125 2.69312 2.49635L3.47641 0.459631C3.52058 0.339726 3.59659 0.234125 3.69628 0.154179C3.79596 0.0742328 3.91555 0.0229634 4.04219 0.0058811C4.19423 -0.0126016 4.34808 0.0202009 4.47936 0.099087C4.61064 0.177973 4.71183 0.298428 4.76687 0.44135L5.55719 2.49635C5.57439 2.54125 5.60086 2.58202 5.63486 2.61602C5.66886 2.65002 5.70963 2.67649 5.75453 2.69369L7.80953 3.48401C7.9392 3.53394 8.05069 3.62198 8.12933 3.73653C8.20797 3.85109 8.25007 3.98678 8.25007 4.12572C8.25007 4.26467 8.20797 4.40036 8.12933 4.51491C8.05069 4.62947 7.9392 4.71751 7.80953 4.76744L5.75453 5.55776C5.70959 5.57489 5.66877 5.60132 5.63476 5.63533C5.60075 5.66934 5.57432 5.71016 5.55719 5.7551L4.76687 7.8101C4.71696 7.93978 4.62892 8.0513 4.51436 8.12996C4.39981 8.20861 4.26411 8.25072 4.12516 8.25073Z" fill="#0F0E17"/>
<path d="M18.7502 12.0007C18.5986 12.0007 18.4505 11.9547 18.3256 11.8688C18.2007 11.783 18.1047 11.6613 18.0503 11.5198L16.9797 8.73682C16.9609 8.68778 16.9319 8.64324 16.8948 8.6061C16.8576 8.56895 16.8131 8.54003 16.7641 8.52119L13.9811 7.45057C13.8397 7.39609 13.7181 7.30006 13.6324 7.17514C13.5467 7.05021 13.5008 6.90224 13.5008 6.75073C13.5008 6.59921 13.5467 6.45124 13.6324 6.32631C13.7181 6.20139 13.8397 6.10536 13.9811 6.05088L16.7641 4.98026C16.8131 4.96142 16.8576 4.9325 16.8948 4.89535C16.9319 4.85821 16.9609 4.81367 16.9797 4.76463L18.0423 2.00135C18.0909 1.87068 18.1739 1.7556 18.2826 1.66835C18.3913 1.58111 18.5216 1.52496 18.6597 1.50588C18.8256 1.4858 18.9935 1.5217 19.1366 1.6079C19.2798 1.69409 19.3901 1.82564 19.45 1.98166L20.5206 4.76463C20.5395 4.81367 20.5684 4.85821 20.6055 4.89535C20.6427 4.9325 20.6872 4.96142 20.7362 4.98026L23.5192 6.05088C23.6606 6.10536 23.7822 6.20139 23.8679 6.32631C23.9537 6.45124 23.9996 6.59921 23.9996 6.75073C23.9996 6.90224 23.9537 7.05021 23.8679 7.17514C23.7822 7.30006 23.6606 7.39609 23.5192 7.45057L20.7362 8.52119C20.6872 8.54003 20.6427 8.56895 20.6055 8.6061C20.5684 8.64324 20.5395 8.68778 20.5206 8.73682L19.45 11.5198C19.3956 11.6613 19.2996 11.783 19.1747 11.8688C19.0498 11.9547 18.9017 12.0007 18.7502 12.0007Z" fill="#0F0E17"/>
</g>
<defs>
<clipPath id="clip0_730_3087">
<rect width="24" height="24" fill="white"/>
</clipPath>
</defs>
</svg>
