<svg width="32" height="32" viewBox="0 0 32 32" fill="none" xmlns="http://www.w3.org/2000/svg">
<path fill-rule="evenodd" clip-rule="evenodd" d="M16 3.5C16.5523 3.5 17 3.94772 17 4.5V5.04171C19.8164 5.27712 22.4718 6.50119 24.4853 8.51472C26.7357 10.7652 28 13.8174 28 17C28 19.3734 27.2962 21.6935 25.9776 23.6668C24.6591 25.6402 22.7849 27.1783 20.5922 28.0866C18.3995 28.9948 15.9867 29.2324 13.6589 28.7694C11.3311 28.3064 9.19296 27.1635 7.51472 25.4853C5.83649 23.8071 4.6936 21.6689 4.23058 19.3411C3.76756 17.0133 4.0052 14.6005 4.91345 12.4078C5.48169 11.0359 6.29647 9.78878 7.31014 8.72435L6.7929 8.20711C6.40237 7.81658 6.40237 7.18342 6.7929 6.79289C7.18342 6.40237 7.81659 6.40237 8.20711 6.79289L8.80813 7.39391C8.97948 7.26563 9.15454 7.14172 9.33316 7.02237C11.0283 5.88972 12.9792 5.21071 15 5.04173V4.5C15 3.94772 15.4477 3.5 16 3.5ZM16 7C14.0222 7 12.0888 7.58649 10.4443 8.6853C8.79981 9.78412 7.51809 11.3459 6.76121 13.1732C6.00433 15.0004 5.8063 17.0111 6.19215 18.9509C6.578 20.8907 7.53041 22.6725 8.92894 24.0711C10.3275 25.4696 12.1093 26.422 14.0491 26.8079C15.9889 27.1937 17.9996 26.9957 19.8268 26.2388C21.6541 25.4819 23.2159 24.2002 24.3147 22.5557C25.4135 20.9112 26 18.9778 26 17C26 14.3478 24.9464 11.8043 23.0711 9.92893C21.1957 8.05357 18.6522 7 16 7ZM16 8.5C16.5523 8.5 17 8.94772 17 9.5V14.1707C18.1652 14.5825 19 15.6938 19 17C19 18.6569 17.6569 20 16 20C14.3432 20 13 18.6569 13 17C13 15.6938 13.8348 14.5825 15 14.1707V9.5C15 8.94772 15.4477 8.5 16 8.5ZM16 16C15.4477 16 15 16.4477 15 17C15 17.5523 15.4477 18 16 18C16.5523 18 17 17.5523 17 17C17 16.4477 16.5523 16 16 16Z" fill="#0F0E17"/>
</svg>
