<svg width="362" height="80" viewBox="0 0 362 80" fill="none" xmlns="http://www.w3.org/2000/svg">
<g clip-path="url(#clip0_726_930)">
<path d="M358.422 86.4208C349.628 62.1711 334.724 37.7636 310.438 25.9215C293.874 17.8448 276.632 8.14185 257.563 10.383C244.625 11.9037 231.835 13.8407 219.353 17.2981C201.089 22.3567 183.939 25.2839 164.971 26.9462C134.537 29.6134 103.043 18.6884 72.9043 24.9651C55.0501 28.6835 38.6676 35.1083 24.7841 46.9108C12.4404 57.4045 6.72705 71.0323 3.6398 86.5697C2.0747 94.4466 -1.60136 106.139 0.0469082 114.05" stroke="#222028" stroke-width="8" stroke-linecap="round"/>
<path d="M321.311 84.7908C316.214 73.5524 312.966 65.1184 302.759 58.0056C295.207 52.7434 287.81 49.1888 279.095 46.4669C266.52 42.5397 251.916 44.5818 240.196 49.2362C226.334 54.7417 211.571 59.5485 196.39 60.4811C179.056 61.5461 162.24 60.1738 144.988 57.4034C123.33 53.9255 100.161 47.5823 78.4791 54.0803C67.63 57.3318 52.9727 65.3505 48.1102 75.8746C38.1925 97.3397 48.9072 124.818 61.5251 143.628" stroke="#222028" stroke-width="8" stroke-linecap="round"/>
<path d="M287.566 91.2215C274.067 84.6393 260.858 88.8721 248.686 95.9364C227.72 108.104 202.823 110.696 178.426 106.525C163.03 103.892 147.663 102.449 132.101 101.238C122.753 100.51 116.993 101.508 109.305 107.237C100.777 113.591 97.3158 125.367 100.263 135.308C103.94 147.712 109.866 159.656 115.625 171.281C118.934 177.959 121.911 183.943 127.022 189.455" stroke="#222028" stroke-width="8" stroke-linecap="round"/>
</g>
<defs>
<clipPath id="clip0_726_930">
<rect width="362" height="80" fill="white"/>
</clipPath>
</defs>
</svg>
