<svg width="325" height="104" viewBox="0 0 325 104" fill="none" xmlns="http://www.w3.org/2000/svg">
<g clip-path="url(#clip0_726_929)">
<path d="M367.893 -30.4327C346.94 -25.092 334.78 -14.7583 323.53 -4.84828C316.604 1.25285 301.826 20.6104 295.883 28.3776C287.323 39.5663 273.432 58.3271 262.508 65.8741C240.804 80.8672 223.366 88.9571 196.985 94.9125C170.091 100.984 141.104 96.191 114.242 90.3086C91.5509 85.3393 65.1492 78.704 47.2844 62.983C24.0114 42.5028 7.41587 12.216 -0.781124 -16.7148C-7.39565 -40.0604 -13.8458 -69.6185 -5.79258 -92.9844C3.99539 -121.384 25.1719 -148.117 52.9143 -161.699C89.115 -179.423 140.184 -179.089 177.691 -162.021C189.918 -156.456 201.379 -147.528 211.527 -138.949C228.435 -124.653 246.956 -110.704 261.464 -93.9935C276.942 -76.1656 283.563 -52.3618 279.593 -29.8555C275.916 -9.01118 269.275 9.9345 253.906 24.8254C240.676 37.6435 221.543 46.7521 203.887 52.5407C193.381 55.985 182.165 57.9757 171.071 58.9495C162.271 59.7221 154.363 62.3605 145.306 61.4823C138.265 60.7996 131.119 59.8222 124.329 57.7579C115.339 55.025 102.071 46.5745 96.0402 41.401C71.4138 20.2767 62.0728 -12.3046 84.7918 -38.1917C112.017 -69.2133 154.028 -73.0866 192.86 -61.2607C204.02 -57.8618 231.027 -50.9715 232.147 -35.9108C233.012 -24.2691 228.969 -9.42123 221.786 -0.124221C217.133 5.89964 208.389 12.1018 200.819 14.3318C196.028 15.743 189.487 17.8858 184.428 18.147C179.921 18.3797 161.278 17.3209 152.23 14.1947C136.984 8.92648 134.26 3.6004 125.346 -8.47384C120.94 -14.4404 116.978 -20.2135 120.234 -27.3061C122.835 -32.9691 130.67 -36.6725 135.74 -39.953C150.513 -49.5111 166.699 -48.0608 183.856 -44.8781C189.529 -43.8256 197.708 -41.597 202.042 -37.5919C208.172 -31.9273 201.777 -23.1262 196.453 -20.21C185.277 -14.0886 173.613 -13.0651 161.094 -18.4503C157.162 -20.1415 139.685 -22.9928 139.326 -27.8132" stroke="#222028" stroke-width="8" stroke-linecap="round"/>
</g>
<defs>
<clipPath id="clip0_726_929">
<rect width="325" height="104" fill="white"/>
</clipPath>
</defs>
</svg>
