<svg width="140" height="360" viewBox="0 0 140 360" fill="none" xmlns="http://www.w3.org/2000/svg">
<path opacity="0.08" d="M68.5 4C66.1969 25.5 71.6404 40.5 77.0041 54.5C80.3062 63.1191 93.2934 83.7212 98.5 92C106 103.926 118.737 123.488 122 136.359C128.482 161.928 129.981 181.093 126.361 207.894C122.67 235.218 108.067 260.713 93.185 283.835C80.6131 303.368 65.1856 325.797 44.2206 337.057C16.909 351.724 -17.2643 356.714 -47.2372 354.305C-71.4237 352.361 -101.375 348.096 -120.465 332.399C-143.666 313.32 -161.335 284.149 -164.387 253.411C-168.371 213.302 -150.245 165.556 -121.166 136.359C-111.686 126.84 -99.3215 119.213 -87.7414 112.695C-68.4457 101.836 -48.9132 89.3429 -28.1913 81.5744C-6.08425 73.2867 18.5341 75.3843 38.242 86.9554C56.4946 97.6722 71.934 110.505 80.529 130.102C87.9276 146.972 89.7904 168.081 89.0571 186.647C88.6208 197.694 86.5741 208.9 83.6174 219.637C81.2717 228.154 80.9863 236.486 77.0041 244.668C73.9085 251.028 70.5 257.384 66.1969 263.028C60.5 270.5 47.9524 279.987 41 283.835C12.6128 299.547 -21.1805 296.937 -37.5174 266.615C-57.0946 230.279 -46.0713 189.556 -21.4435 157.288C-14.3653 148.013 1.51244 125.106 16.0176 129.31C27.23 132.56 39.7351 141.528 45.9431 151.502C49.9655 157.964 52.7284 168.322 52.1776 176.195C51.8291 181.178 51.5561 188.054 50.0362 192.887C48.6823 197.192 41.1872 214.295 35.1016 221.684C24.8463 234.135 18.9046 234.83 4.47926 238.974C-2.64909 241.021 -9.44184 242.721 -14.9531 237.195C-19.3535 232.783 -20.0912 224.148 -21.3972 218.252C-25.2023 201.073 -18.1974 186.409 -9.2304 171.441C-6.26509 166.491 -1.3236 159.602 3.94167 156.938C11.3885 153.169 17.4064 162.232 18.2824 168.239C20.1214 180.847 17.0121 192.136 7.59828 201.991C4.64183 205.086 -4.12638 220.471 -8.76899 219.125" stroke="#0F0E17" stroke-width="8" stroke-linecap="round"/>
</svg>
