<svg width="32" height="32" viewBox="0 0 32 32" fill="none" xmlns="http://www.w3.org/2000/svg">
<path fill-rule="evenodd" clip-rule="evenodd" d="M2.99976 4.99986C7.05243 5.0184 9.87731 5.52789 11.7773 6.43567C13.577 7.29553 14.5604 8.51552 14.9998 10.1289V25.6498C12.7258 23.9706 9.23093 23.0018 3.01847 22.9999C3.00995 22.9778 2.99976 22.9389 2.99976 22.8792V4.99986ZM16.9998 25.6484C19.278 23.9632 22.7714 22.9999 28.9998 22.9999V4.99985C24.9471 5.01839 22.1222 5.52789 20.2222 6.43567C18.4225 7.29553 17.4391 8.51552 16.9998 10.1289V25.6484ZM15.9998 7.4816C15.2407 6.29799 14.1313 5.34378 12.6395 4.63107C10.346 3.53528 7.1723 3.01856 3.00425 2.99986L3.00353 2.99986C2.74012 2.99887 2.47911 3.05002 2.23555 3.15037C1.992 3.25071 1.77071 3.39827 1.58444 3.58454C1.39818 3.7708 1.25062 3.99209 1.15027 4.23564C1.05021 4.47852 0.999062 4.73875 0.999763 5.00142V22.8792C0.999763 23.3884 1.15749 23.9091 1.5068 24.3194C1.86872 24.7445 2.39657 24.9999 2.99976 24.9999C10.8808 24.9999 13.6016 26.6009 15.2186 28.6242C15.4083 28.8616 15.6957 28.9998 15.9995 28.9999C16.3034 28.9999 16.5908 28.8618 16.7807 28.6245C18.4087 26.5893 21.1182 24.9999 28.9998 24.9999C29.5302 24.9999 30.0389 24.7891 30.414 24.4141C30.7891 24.039 30.9998 23.5303 30.9998 22.9999V5.00122C31.0004 4.73862 30.9493 4.47846 30.8493 4.23564C30.7489 3.99209 30.6013 3.7708 30.4151 3.58454C30.2288 3.39827 30.0075 3.25071 29.764 3.15037C29.5204 3.05002 29.2594 2.99887 28.996 2.99986L28.9953 2.99986C24.8272 3.01856 21.6535 3.53528 19.36 4.63107C17.8683 5.34378 16.7588 6.29799 15.9998 7.4816Z" fill="#0F0E17"/>
</svg>
