<svg width="22" height="22" viewBox="0 0 22 22" fill="none" xmlns="http://www.w3.org/2000/svg">
<g clip-path="url(#clip0_592_942)">
<path d="M7.54233 13.7592H5.5V11.9167H7.57258C9.29408 11.9167 9.40867 13.7592 7.54233 13.7592ZM13.7372 11.3053H16.5037C16.3964 9.73317 14.0012 9.493 13.7372 11.3053ZM7.50017 8.25H5.5V10.0833H7.68992C9.2235 10.0833 9.4655 8.25 7.50017 8.25ZM22 4.58333V17.4167C22 19.9476 19.9485 22 17.4167 22H4.58333C2.0515 22 0 19.9476 0 17.4167V4.58333C0 2.05242 2.0515 0 4.58333 0H17.4167C19.9485 0 22 2.05242 22 4.58333ZM12.8333 7.33333H17.4167V6.41667H12.8333V7.33333ZM9.57733 10.6498C11.3254 9.757 11.2613 6.479 7.91542 6.4295H3.66667V15.576H7.61842C11.7636 15.576 11.693 11.4198 9.57733 10.6498ZM18.2738 11.2017C18.0226 9.58558 16.8731 8.4975 14.9893 8.4975C13.0698 8.4975 11.9167 9.72583 11.9167 12.1156C11.9167 14.5273 13.1698 15.5833 15.048 15.5833C16.9263 15.5833 17.8952 14.5429 18.1647 13.75H16.2296C15.5549 14.5338 13.5777 14.2276 13.6932 12.5098H18.3315C18.3407 11.9286 18.3205 11.5115 18.2738 11.2017Z" fill="#0F0E17"/>
</g>
<defs>
<clipPath id="clip0_592_942">
<rect width="22" height="22" fill="white"/>
</clipPath>
</defs>
</svg>
