<svg width="32" height="32" viewBox="0 0 32 32" fill="none" xmlns="http://www.w3.org/2000/svg">
<path fill-rule="evenodd" clip-rule="evenodd" d="M6.49716 3L6.5 3H25.5V4L25.5028 3C26.6945 3.00339 27.8364 3.47829 28.6791 4.32093C29.5217 5.16358 29.9966 6.30548 30 7.49716L30 7.5V19.5L30 19.5028C29.9966 20.6945 29.5217 21.8364 28.6791 22.6791C27.8364 23.5217 26.6945 23.9966 25.5028 24L25.5 24H15.3591L9.64038 28.7681C9.34232 29.0166 8.92741 29.0702 8.57596 28.9056C8.22451 28.7411 8 28.3881 8 28V24H6.5L6.49716 24C5.30548 23.9966 4.16358 23.5217 3.32093 22.6791C2.47829 21.8364 2.00339 20.6945 2 19.5028L2 19.5V7.5L2 7.49716C2.00339 6.30548 2.47829 5.16358 3.32093 4.32093C4.16358 3.47829 5.30548 3.00339 6.49716 3ZM15.4985 23.8837C15.4983 23.8839 15.4981 23.8841 15.4979 23.8843L15.4985 23.8837ZM25.4985 5H6.50154C5.83879 5.00223 5.20381 5.26649 4.73515 5.73515C4.26649 6.20381 4.00223 6.83879 4 7.50154V19.4985C4.00223 20.1612 4.26649 20.7962 4.73515 21.2649C5.20382 21.7335 5.83884 21.9978 6.50161 22H9C9.55228 22 10 22.4477 10 23V25.8643L14.2165 22.3487C14.2167 22.3486 14.2169 22.3484 14.2171 22.3482C14.4868 22.1232 14.8269 22 15.1781 22H25.4984C26.1612 21.9978 26.7962 21.7335 27.2649 21.2649C27.7335 20.7962 27.9978 20.1612 28 19.4984V7.50161C27.9978 6.83884 27.7335 6.20382 27.2649 5.73515C26.7962 5.26649 26.1612 5.00223 25.4985 5Z" fill="#0F0E17"/>
<path d="M10 15.5C11.1046 15.5 12 14.6046 12 13.5C12 12.3954 11.1046 11.5 10 11.5C8.89543 11.5 8 12.3954 8 13.5C8 14.6046 8.89543 15.5 10 15.5Z" fill="#0F0E17"/>
<path d="M16 15.5C17.1046 15.5 18 14.6046 18 13.5C18 12.3954 17.1046 11.5 16 11.5C14.8954 11.5 14 12.3954 14 13.5C14 14.6046 14.8954 15.5 16 15.5Z" fill="#0F0E17"/>
<path d="M22 15.5C23.1046 15.5 24 14.6046 24 13.5C24 12.3954 23.1046 11.5 22 11.5C20.8954 11.5 20 12.3954 20 13.5C20 14.6046 20.8954 15.5 22 15.5Z" fill="#0F0E17"/>
</svg>
