<svg width="24" height="24" viewBox="0 0 24 24" fill="none" xmlns="http://www.w3.org/2000/svg">
<path d="M16.1781 22.4997H11.9997V20.3571C12.0003 20.1589 11.9608 19.9627 11.8835 19.7802C11.8063 19.5977 11.6929 19.4328 11.5501 19.2954C11.1906 18.941 10.6675 18.7418 10.1172 18.7497C9.62762 18.7544 9.15539 18.9315 8.78356 19.2499C8.53981 19.4655 8.24965 19.8386 8.24965 20.3946V22.4997H4.10684C3.4156 22.499 2.75288 22.2241 2.2641 21.7353C1.77532 21.2465 1.5004 20.5838 1.49965 19.8926V15.7497H3.64231C4.07168 15.7497 4.48934 15.566 4.8184 15.2341C5.00147 15.0496 5.14625 14.8307 5.24439 14.59C5.34254 14.3493 5.39212 14.0915 5.39028 13.8316C5.37622 12.8383 4.55872 11.9997 3.60481 11.9997H1.49965V7.81193C1.4983 7.47062 1.56628 7.1326 1.69947 6.81835C1.83267 6.5041 2.02829 6.22018 2.2745 5.9838C2.76619 5.50954 3.42371 5.24612 4.10684 5.24974H7.07122V4.57099C7.07121 4.16307 7.15246 3.75923 7.31022 3.38305C7.46798 3.00687 7.69908 2.66588 7.99004 2.37998C8.28101 2.09408 8.626 1.86899 9.00489 1.71786C9.38378 1.56673 9.78898 1.49258 10.1968 1.49974C11.8604 1.5288 13.2137 2.9238 13.2137 4.60896V5.24974H16.1781C16.5168 5.2461 16.8528 5.31013 17.1665 5.43808C17.4801 5.56602 17.765 5.7553 18.0046 5.99482C18.2441 6.23434 18.4334 6.51928 18.5613 6.83292C18.6893 7.14656 18.7533 7.48259 18.7497 7.8213V10.7857H19.39C21.1047 10.7857 22.4997 12.1451 22.4997 13.8157C22.4997 15.5318 21.122 16.9282 19.4284 16.9282H18.7497V19.8926C18.7497 21.3302 17.5961 22.4997 16.1781 22.4997Z" fill="#0F0E17"/>
</svg>
