<svg width="24" height="24" viewBox="0 0 24 24" fill="none" xmlns="http://www.w3.org/2000/svg">
<g clip-path="url(#clip0_507_957)">
<path d="M9.75003 24C9.58597 24 9.42659 23.9672 9.27659 23.8969C8.99065 23.7703 8.77034 23.5407 8.65784 23.2453L6.67034 18.0797L1.50003 16.0922C1.19065 15.975 0.946904 15.7266 0.825029 15.4172C0.595342 14.8125 0.895342 14.1328 1.50003 13.9032L6.66565 11.9157L8.65784 6.75004C8.77503 6.44066 9.02347 6.19691 9.33284 6.07504C9.62347 5.96254 9.94222 5.97191 10.2282 6.09847C10.5141 6.22504 10.7344 6.45472 10.8469 6.75004L12.8344 11.9157L18 13.9079C18.3094 14.025 18.5532 14.2735 18.675 14.5828C18.9094 15.1875 18.6047 15.8672 18 16.0969L12.8344 18.0844L10.8422 23.25C10.725 23.5594 10.4766 23.8032 10.1672 23.925C10.036 23.9766 9.89065 24 9.75003 24ZM2.83597 15L7.34534 16.7344C7.65472 16.8516 7.89847 17.1 8.02034 17.4094L9.75472 21.9188L11.4891 17.4094C11.6063 17.1 11.8547 16.8563 12.1641 16.7344L16.6735 15L12.1641 13.2657C11.8547 13.1485 11.611 12.9 11.4891 12.5907L9.75472 8.08129L8.02034 12.5907C7.90315 12.9 7.65472 13.1438 7.34534 13.2657L2.83597 15Z" fill="#0F0E17"/>
<path d="M4.125 8.25C3.81563 8.25 3.53437 8.05781 3.42656 7.76719L2.61094 5.63906L0.482813 4.82344C0.192188 4.71563 0 4.43437 0 4.125C0 3.81563 0.192188 3.53437 0.482813 3.42656L2.61094 2.61094L3.42656 0.482813C3.53437 0.192188 3.81563 0 4.125 0C4.43437 0 4.71563 0.192188 4.82344 0.482813L5.63906 2.61094L7.76719 3.42656C8.05781 3.53906 8.25 3.81563 8.25 4.125C8.25 4.43437 8.05781 4.71563 7.76719 4.82344L5.63906 5.63906L4.82344 7.76719C4.71563 8.05781 4.43437 8.25 4.125 8.25ZM2.84062 4.125L3.45938 4.36406C3.65625 4.43906 3.81562 4.59844 3.89062 4.79531L4.12969 5.41406L4.36875 4.79531C4.44375 4.59844 4.60313 4.43906 4.8 4.36406L5.41875 4.125L4.8 3.88594C4.60313 3.81094 4.44375 3.65156 4.36875 3.45469L4.125 2.84062L3.88594 3.45938C3.81094 3.65625 3.65156 3.81562 3.45469 3.89062L2.84062 4.125Z" fill="#0F0E17"/>
<path d="M18.75 12C18.4406 12 18.1594 11.8078 18.0516 11.5172L16.9219 8.57812L13.9828 7.44844C13.6922 7.33594 13.5 7.05937 13.5 6.75C13.5 6.44063 13.6922 6.15938 13.9828 6.05156L16.9219 4.92188L18.0516 1.98281C18.1641 1.69219 18.4406 1.5 18.75 1.5C19.0594 1.5 19.3406 1.69219 19.4484 1.98281L20.5781 4.92188L23.5172 6.05156C23.8078 6.16406 24 6.44063 24 6.75C24 7.05937 23.8078 7.34062 23.5172 7.44844L20.5781 8.57812L19.4484 11.5172C19.3406 11.8078 19.0594 12 18.75 12ZM16.3406 6.75L17.7703 7.29844C17.9672 7.37344 18.1266 7.53281 18.2016 7.72969L18.75 9.15937L19.2984 7.72969C19.3734 7.53281 19.5328 7.37344 19.7297 7.29844L21.1594 6.75L19.7297 6.20156C19.5328 6.12656 19.3734 5.96719 19.2984 5.77031L18.75 4.34062L18.2016 5.77031C18.1266 5.96719 17.9672 6.12656 17.7703 6.20156L16.3406 6.75Z" fill="#0F0E17"/>
</g>
<defs>
<clipPath id="clip0_507_957">
<rect width="24" height="24" fill="white"/>
</clipPath>
</defs>
</svg>
