<svg width="108" height="101" viewBox="0 0 108 101" fill="none" xmlns="http://www.w3.org/2000/svg">
<g opacity="0.08" filter="url(#filter0_f_765_1445)">
<path d="M14.0935 -35.4974C8.22727 -24.9462 4.18101 -12.1882 7.4539 0.0263259C9.6861 8.35704 11.5521 17.4266 18.198 23.4745C22.7072 27.5779 27.3181 31.5012 32.3715 34.8492C39.7656 39.7477 46.0647 44.9071 52.4753 51.0972C62.7608 61.029 68.5704 75.5079 80.0404 84.2273C86.8352 89.3926 94.1343 93.2072 102.566 94.488C110.062 95.6267 116.63 93.4611 123.066 89.7815C126.329 87.9162 131.588 85.625 133.877 82.6142" stroke="#0F0E17" stroke-width="4" stroke-linecap="round"/>
<path d="M24.8943 -26.2541C22.4892 -21.0035 20.5071 -17.2668 21.1283 -11.4774C21.5879 -7.19426 22.6031 -3.49013 24.3174 0.424232C26.7907 6.07201 31.9956 10.6038 37.2377 13.3148C43.4384 16.5214 49.6685 20.2604 54.6585 25.3366C60.3566 31.133 65.0342 37.4942 69.3522 44.4391C74.7727 53.1573 79.6452 63.2891 88.597 68.9531C93.0763 71.7873 100.409 74.5031 105.619 72.9898C116.246 69.9032 122.663 57.6824 125.434 47.4504" stroke="#0F0E17" stroke-width="4" stroke-linecap="round"/>
<path d="M37.5426 -11.9416C39.3618 -5.15232 44.912 -1.78613 51.1444 0.344887C61.8793 4.01539 70.4382 12.0144 76.4548 21.913C80.2516 28.1597 84.4598 34.0312 88.8095 39.9003C91.4222 43.4257 93.5431 45.1541 97.9271 46.1111C102.79 47.1726 108.012 44.7802 110.619 40.6874C113.872 35.5804 116.272 29.8199 118.61 24.2167C119.953 20.9977 121.153 18.1089 121.531 14.6114" stroke="#0F0E17" stroke-width="4" stroke-linecap="round"/>
<path d="M59.2895 -20.5715C60.3173 -16.7358 63.6264 -14.232 66.7701 -12.3486C72.3911 -8.98087 79.7479 -4.3906 83.3833 1.12593C88.3281 8.62968 91.6925 17.6962 99.4166 22.7916C103.9 25.7491 106.05 25.0403 109.725 21.2656C111.934 18.9971 112.844 15.968 114.371 13.2215" stroke="#0F0E17" stroke-width="4" stroke-linecap="round"/>
</g>
<defs>
<filter id="filter0_f_765_1445" x="0.284668" y="-41.4978" width="139.592" height="142.29" filterUnits="userSpaceOnUse" color-interpolation-filters="sRGB">
<feFlood flood-opacity="0" result="BackgroundImageFix"/>
<feBlend mode="normal" in="SourceGraphic" in2="BackgroundImageFix" result="shape"/>
<feGaussianBlur stdDeviation="2" result="effect1_foregroundBlur_765_1445"/>
</filter>
</defs>
</svg>
