<svg width="109" height="98" viewBox="0 0 109 98" fill="none" xmlns="http://www.w3.org/2000/svg">
<g opacity="0.08" filter="url(#filter0_f_765_1444)">
<path d="M14.306 139.404C8.34346 128.68 4.23074 115.712 7.55738 103.297C9.82625 94.8296 11.7229 85.6111 18.4779 79.4639C23.0612 75.293 27.7478 71.3053 32.8843 67.9023C40.3998 62.9233 46.8024 57.6792 53.3183 51.3874C63.7728 41.2925 69.6777 26.5757 81.3361 17.7132C88.2426 12.463 95.6615 8.58578 104.231 7.28395C111.851 6.1265 118.527 8.32769 125.069 12.0677C128.385 13.9637 133.731 16.2925 136.057 19.3528" stroke="#0F0E17" stroke-width="4" stroke-linecap="round"/>
<path d="M25.2844 130.01C22.8397 124.673 20.8251 120.875 21.4565 114.99C21.9237 110.637 22.9555 106.872 24.6979 102.893C27.2119 97.1524 32.5023 92.5462 37.8305 89.7907C44.133 86.5314 50.4655 82.731 55.5375 77.5714C61.3291 71.6798 66.0836 65.2141 70.4725 58.1551C75.9821 49.2938 80.9345 38.9955 90.0334 33.2385C94.5863 30.3578 102.039 27.5973 107.335 29.1355C118.137 32.2728 124.659 44.6943 127.476 55.0944" stroke="#0F0E17" stroke-width="4" stroke-linecap="round"/>
<path d="M38.1404 115.462C39.9895 108.561 45.6308 105.139 51.9657 102.973C62.8768 99.2426 71.5763 91.1122 77.6918 81.051C81.551 74.7018 85.8282 68.7338 90.2494 62.7683C92.9051 59.185 95.0608 57.4282 99.5167 56.4555C104.459 55.3765 109.767 57.8082 112.417 61.9683C115.723 67.1592 118.163 73.0143 120.539 78.7096C121.905 81.9813 123.124 84.9176 123.508 88.4726" stroke="#0F0E17" stroke-width="4" stroke-linecap="round"/>
<path d="M60.2444 124.233C61.2891 120.335 64.6526 117.79 67.8479 115.875C73.5612 112.452 81.0389 107.787 84.7339 102.18C89.76 94.5526 93.1797 85.3372 101.031 80.1581C105.588 77.152 107.773 77.8724 111.509 81.7091C113.754 84.0149 114.678 87.0938 116.23 89.8854" stroke="#0F0E17" stroke-width="4" stroke-linecap="round"/>
</g>
<defs>
<filter id="filter0_f_765_1444" x="0.368896" y="0.974503" width="141.688" height="144.43" filterUnits="userSpaceOnUse" color-interpolation-filters="sRGB">
<feFlood flood-opacity="0" result="BackgroundImageFix"/>
<feBlend mode="normal" in="SourceGraphic" in2="BackgroundImageFix" result="shape"/>
<feGaussianBlur stdDeviation="2" result="effect1_foregroundBlur_765_1444"/>
</filter>
</defs>
</svg>
