<svg width="716" height="1297" viewBox="0 0 716 1297" fill="none" xmlns="http://www.w3.org/2000/svg">
<path d="M342.098 6.02408C351.178 -2.00803 364.822 -2.00802 373.902 6.02409L453.902 74.0241C464.699 83.5758 464.699 100.424 453.902 109.976L373.902 177.976C364.822 186.008 351.178 186.008 342.098 177.976L262.098 109.976C251.301 100.424 251.301 83.5758 262.098 74.0241L342.098 6.02408Z" fill="#0F0E17"/>
<path d="M327.446 78.665L325.899 72.936H323.859C323.332 74.84 322.822 76.812 322.295 78.665L320.017 71.287H317.331L321.275 83H323.247L324.862 76.846L326.511 83H328.466L332.444 71.287H329.741L327.446 78.665ZM335.67 78.801C335.67 77.594 336.503 77.186 337.251 77.186C337.982 77.186 338.713 77.73 338.713 78.767V83H341.076V78.682C341.076 76.285 340.005 74.891 337.897 74.891C337.149 74.891 335.976 75.316 335.67 76.302V70.743H333.307V83H335.67V78.801ZM348.846 83H351.192V75.061H348.846V75.945C348.2 75.078 347.061 74.891 346.534 74.891C344.511 74.891 342.488 76.489 342.488 79.022C342.488 81.555 344.511 83.153 346.534 83.153C347.129 83.153 348.353 82.847 348.846 82.099V83ZM344.936 79.022C344.936 77.883 345.922 77.135 346.925 77.135C347.894 77.135 348.846 77.849 348.846 79.022C348.846 80.212 347.894 80.909 346.925 80.909C345.922 80.909 344.936 80.161 344.936 79.022ZM356.281 75.061V72.018H353.935V75.061H352.49V76.931H353.935V83H356.281V76.931H357.947V75.061H356.281ZM359.617 76.098C360.399 75.452 362.235 73.327 362.235 71.151H360.297C360.297 73.446 359.413 74.585 358.699 75.571L359.617 76.098ZM366.283 80.008C366.878 80.161 367.065 80.348 367.065 80.688C367.065 81.096 366.623 81.334 366.096 81.351C365.433 81.351 364.94 80.892 364.923 80.433H362.713C362.713 82.201 364.43 83.17 366.028 83.17C367.694 83.17 369.462 82.371 369.462 80.688C369.462 80.161 369.224 78.92 367.303 78.376L365.96 78.019C365.484 77.9 365.28 77.679 365.263 77.424C365.246 77.067 365.569 76.829 366.096 76.829C366.487 76.829 366.98 76.931 366.997 77.526H369.224C369.224 75.571 367.524 74.891 365.96 74.891C364.294 74.891 362.866 75.979 362.866 77.152C362.866 77.883 362.849 79.107 365.246 79.736L366.283 80.008ZM377.995 75.061V72.018H375.649V75.061H374.204V76.931H375.649V83H377.995V76.931H379.661V75.061H377.995ZM383.286 78.801C383.286 77.594 384.119 77.186 384.867 77.186C385.598 77.186 386.329 77.73 386.329 78.767V83H388.692V78.682C388.692 76.285 387.621 74.891 385.513 74.891C384.765 74.891 383.592 75.316 383.286 76.302V70.743H380.923V83H383.286V78.801ZM396.156 80.382C395.765 80.909 395.085 81.13 394.422 81.13C393.572 81.13 392.603 80.722 392.467 79.804H398.281C398.298 79.6 398.315 79.277 398.315 79.073C398.315 76.574 396.513 74.891 394.252 74.891C391.991 74.891 390.104 76.489 390.104 79.005C390.104 81.504 391.991 83.17 394.252 83.17C395.612 83.17 397.057 82.745 397.873 81.555L396.156 80.382ZM392.501 78.325C392.688 77.305 393.623 76.965 394.269 76.965C394.949 76.965 395.799 77.356 395.935 78.325H392.501ZM337.698 105.056C337.698 103.9 338.531 103.135 339.534 103.135C340.537 103.135 341.37 103.883 341.37 105.056C341.37 106.212 340.554 106.943 339.534 106.943C338.582 106.943 337.698 106.246 337.698 105.056ZM335.301 101.061V112.893H337.647V108.031C338.038 108.762 338.973 109.17 339.976 109.17C342.016 109.17 343.818 107.555 343.818 105.005C343.818 102.489 342.016 100.891 339.976 100.891C338.973 100.891 338.038 101.316 337.647 102.047V101.061H335.301ZM348.978 106.824C348.009 106.824 347.193 106.11 347.193 105.005C347.193 103.917 348.009 103.203 348.978 103.203C349.981 103.203 350.78 103.917 350.78 105.005C350.78 106.11 349.981 106.824 348.978 106.824ZM348.978 109.136C351.222 109.136 353.109 107.504 353.109 105.005C353.109 102.489 351.222 100.891 348.978 100.891C346.717 100.891 344.864 102.489 344.864 105.005C344.864 107.504 346.717 109.136 348.978 109.136ZM356.962 101.061H354.616V109H356.962V101.061ZM354.31 98.12C354.31 98.885 354.99 99.514 355.789 99.514C356.605 99.514 357.234 98.885 357.234 98.12C357.234 97.321 356.588 96.743 355.789 96.743C354.99 96.743 354.31 97.338 354.31 98.12ZM361.308 104.801C361.308 103.594 361.937 103.186 362.77 103.186C363.569 103.186 364.147 103.696 364.147 104.767V109H366.51V104.257C366.51 101.996 365.388 100.891 363.603 100.891C362.651 100.891 361.733 101.418 361.308 102.217V101.061H358.945V109H361.308V104.801ZM371.514 101.061V98.018H369.168V101.061H367.723V102.931H369.168V109H371.514V102.931H373.18V101.061H371.514ZM378.012 105.09C378.012 104.291 378.199 103.883 378.896 103.679C380.239 103.271 381.174 102.115 381.174 100.466C381.174 98.426 379.712 97.151 377.587 97.151C375.462 97.151 374 98.528 374 100.704H376.38C376.38 99.973 376.856 99.531 377.587 99.531C378.318 99.531 378.794 99.922 378.794 100.449C378.794 100.84 378.76 101.061 378.165 101.384L377.485 101.673C375.666 102.438 375.632 103.271 375.632 105.09L375.666 105.464H377.978L378.012 105.09ZM375.394 107.742C375.394 108.575 376.057 109.17 376.856 109.17C377.655 109.17 378.335 108.575 378.335 107.742C378.335 106.926 377.655 106.331 376.856 106.331C376.057 106.331 375.394 106.926 375.394 107.742Z" fill="#F9F4EF"/>
<rect x="2" y="263" width="240" height="80" rx="16" fill="#DAD3C2" stroke="#B4AD9F" stroke-width="3" stroke-miterlimit="0"/>
<path d="M59.8356 307H66.3296V305.351H61.6376V295.287H59.8356V307ZM75.2412 303.005C75.2412 300.489 73.5072 298.891 71.2632 298.891C69.0192 298.891 67.1832 300.489 67.1832 303.005C67.1832 305.521 69.0192 307.17 71.2632 307.17C72.7422 307.17 74.2552 306.541 74.9352 305.13L73.5072 304.501C73.0992 305.232 72.2322 305.64 71.3482 305.64C70.0562 305.64 69.1042 304.875 68.9172 303.651H75.2242C75.2412 303.464 75.2412 303.192 75.2412 303.005ZM68.9172 302.376C69.1042 301.152 70.0392 300.421 71.2632 300.421C72.4702 300.421 73.3372 301.135 73.5242 302.376H68.9172ZM83.0907 307H84.8247V299.061H83.0907V300.183C82.5467 299.282 81.3737 298.891 80.4217 298.891C78.2967 298.891 76.3927 300.489 76.3927 303.022C76.3927 305.555 78.2967 307.17 80.4217 307.17C81.4417 307.17 82.5467 306.728 83.0907 305.861V307ZM78.1947 303.005C78.1947 301.543 79.3167 300.591 80.6257 300.591C81.8157 300.591 83.0737 301.458 83.0737 303.005C83.0737 304.569 81.9177 305.47 80.6257 305.47C79.3167 305.47 78.1947 304.467 78.1947 303.005ZM88.8426 304.144C88.8426 302.036 89.4716 300.54 90.9676 300.54C91.3076 300.54 91.6816 300.591 92.1406 300.812L92.4296 299.197C92.1746 299.01 91.5796 298.891 91.0186 298.891C90.0156 298.891 89.2506 299.452 88.8426 300.88V299.061H87.0916V307H88.8426V304.144ZM95.4457 302.733C95.4457 301.169 96.4487 300.608 97.4857 300.608C98.5057 300.608 99.1517 301.305 99.1517 302.58V307H100.903V302.376C100.903 300.115 99.7977 298.891 97.8767 298.891C97.0097 298.891 95.9047 299.35 95.4457 300.251V299.061H93.6947V307H95.4457V302.733ZM110.14 303.821C110.735 303.957 111.245 304.229 111.245 304.756C111.245 305.351 110.633 305.708 109.834 305.708C108.899 305.708 108.355 305.249 108.27 304.569H106.655C106.706 306.252 108.202 307.17 109.698 307.17C111.517 307.17 112.86 306.303 112.86 304.773C112.86 303.991 112.486 302.869 110.786 302.461L109.562 302.155C109.137 302.036 108.712 301.866 108.593 301.543C108.508 301.288 108.525 301.05 108.661 300.829C108.848 300.557 109.324 300.387 109.783 300.387C110.327 300.387 110.871 300.642 110.939 301.237H112.605C112.52 299.537 111.109 298.891 109.715 298.891C108.27 298.891 106.961 299.809 106.876 300.982C106.757 302.274 107.369 303.107 109.069 303.566L110.14 303.821ZM118.204 305.47C116.895 305.47 115.807 304.501 115.807 303.005C115.807 301.56 116.895 300.608 118.204 300.608C119.53 300.608 120.618 301.56 120.618 303.005C120.618 304.501 119.53 305.47 118.204 305.47ZM118.204 307.17C120.465 307.17 122.369 305.521 122.369 303.005C122.369 300.489 120.465 298.891 118.204 298.891C115.96 298.891 114.073 300.489 114.073 303.005C114.073 305.521 115.96 307.17 118.204 307.17ZM133.168 300.608C134.188 300.608 134.851 301.339 134.851 302.58V307H136.602V302.427C136.602 300.166 135.514 298.891 133.542 298.891C132.828 298.891 131.604 299.095 130.873 300.472C130.414 299.452 129.649 298.891 128.374 298.891C127.728 298.891 126.419 299.163 125.875 300.251V299.061H124.124V307H125.875V302.733C125.875 301.169 126.861 300.608 127.881 300.608C128.833 300.608 129.479 301.322 129.496 302.546V307H131.247V302.733C131.247 301.441 132.012 300.608 133.168 300.608ZM146.327 303.005C146.327 300.489 144.593 298.891 142.349 298.891C140.105 298.891 138.269 300.489 138.269 303.005C138.269 305.521 140.105 307.17 142.349 307.17C143.828 307.17 145.341 306.541 146.021 305.13L144.593 304.501C144.185 305.232 143.318 305.64 142.434 305.64C141.142 305.64 140.19 304.875 140.003 303.651H146.31C146.327 303.464 146.327 303.192 146.327 303.005ZM140.003 302.376C140.19 301.152 141.125 300.421 142.349 300.421C143.556 300.421 144.423 301.135 144.61 302.376H140.003ZM150.369 296.052H148.618V299.061H147.19V300.506H148.618V307H150.369V300.506H152.052V299.061H150.369V296.052ZM155.264 302.733C155.264 301.169 156.471 300.608 157.474 300.608C158.477 300.608 159.242 301.339 159.242 302.58V307H160.993V302.478C160.993 300.217 159.82 298.891 157.78 298.891C156.947 298.891 155.723 299.299 155.264 300.268V294.743H153.513V307H155.264V302.733ZM164.888 299.061H163.154V307H164.888V299.061ZM162.848 295.848C162.848 296.477 163.392 296.953 164.021 296.953C164.684 296.953 165.177 296.477 165.177 295.848C165.177 295.219 164.684 294.743 164.021 294.743C163.392 294.743 162.848 295.219 162.848 295.848ZM168.901 302.733C168.901 301.169 169.904 300.608 170.941 300.608C171.961 300.608 172.607 301.305 172.607 302.58V307H174.358V302.376C174.358 300.115 173.253 298.891 171.332 298.891C170.465 298.891 169.36 299.35 168.901 300.251V299.061H167.15V307H168.901V302.733ZM182.713 303.039C182.713 304.603 181.455 305.487 180.265 305.487C178.939 305.487 177.851 304.535 177.851 303.039C177.851 301.594 178.939 300.591 180.265 300.591C181.574 300.591 182.713 301.458 182.713 303.039ZM177.868 308.003C177.545 308.139 176.746 308.598 176.423 308.734C177.171 310.162 178.548 310.961 180.095 310.961C182.764 310.961 184.464 309.482 184.464 305.827V299.061H182.747V300.234C182.254 299.367 181.149 298.891 180.061 298.891C177.919 298.891 176.049 300.54 176.049 303.056C176.049 305.572 177.919 307.17 180.061 307.17C181.132 307.17 182.305 306.694 182.747 305.793V306.201C182.747 308.428 181.71 309.329 180.095 309.329C179.228 309.329 178.293 308.836 177.868 308.003Z" fill="#0F0E17"/>
<rect x="474" y="263" width="240" height="80" rx="16" fill="#DAD3C2" stroke="#B4AD9F" stroke-width="3" stroke-miterlimit="0"/>
<path d="M547.164 298.381C547.164 296.46 545.906 295.287 543.917 295.287H539.429V307H544.274C546.501 307 547.793 305.419 547.793 303.566C547.793 302.444 547.011 301.084 545.651 300.761C546.79 300.302 547.164 299.299 547.164 298.381ZM541.248 300.098V296.936H543.73C544.699 296.936 545.294 297.497 545.294 298.449C545.294 299.333 544.801 300.098 543.849 300.098H541.248ZM544.138 301.645C545.26 301.645 545.906 302.682 545.906 303.549C545.906 304.45 545.277 305.351 544.189 305.351H541.248V301.645H544.138ZM557.175 303.005C557.175 300.489 555.441 298.891 553.197 298.891C550.953 298.891 549.117 300.489 549.117 303.005C549.117 305.521 550.953 307.17 553.197 307.17C554.676 307.17 556.189 306.541 556.869 305.13L555.441 304.501C555.033 305.232 554.166 305.64 553.282 305.64C551.99 305.64 551.038 304.875 550.851 303.651H557.158C557.175 303.464 557.175 303.192 557.175 303.005ZM550.851 302.376C551.038 301.152 551.973 300.421 553.197 300.421C554.404 300.421 555.271 301.135 555.458 302.376H550.851ZM570.514 303.005C570.514 300.489 568.78 298.891 566.536 298.891C564.292 298.891 562.456 300.489 562.456 303.005C562.456 305.521 564.292 307.17 566.536 307.17C568.015 307.17 569.528 306.541 570.208 305.13L568.78 304.501C568.372 305.232 567.505 305.64 566.621 305.64C565.329 305.64 564.377 304.875 564.19 303.651H570.497C570.514 303.464 570.514 303.192 570.514 303.005ZM564.19 302.376C564.377 301.152 565.312 300.421 566.536 300.421C567.743 300.421 568.61 301.135 568.797 302.376H564.19ZM573.926 302.733C573.926 301.169 574.929 300.608 575.966 300.608C576.986 300.608 577.632 301.305 577.632 302.58V307H579.383V302.376C579.383 300.115 578.278 298.891 576.357 298.891C575.49 298.891 574.385 299.35 573.926 300.251V299.061H572.175V307H573.926V302.733ZM583.947 296.052H582.196V299.061H580.768V300.506H582.196V307H583.947V300.506H585.63V299.061H583.947V296.052ZM594.523 303.005C594.523 300.489 592.789 298.891 590.545 298.891C588.301 298.891 586.465 300.489 586.465 303.005C586.465 305.521 588.301 307.17 590.545 307.17C592.024 307.17 593.537 306.541 594.217 305.13L592.789 304.501C592.381 305.232 591.514 305.64 590.63 305.64C589.338 305.64 588.386 304.875 588.199 303.651H594.506C594.523 303.464 594.523 303.192 594.523 303.005ZM588.199 302.376C588.386 301.152 589.321 300.421 590.545 300.421C591.752 300.421 592.619 301.135 592.806 302.376H588.199ZM597.936 304.144C597.936 302.036 598.565 300.54 600.061 300.54C600.401 300.54 600.775 300.591 601.234 300.812L601.523 299.197C601.268 299.01 600.673 298.891 600.112 298.891C599.109 298.891 598.344 299.452 597.936 300.88V299.061H596.185V307H597.936V304.144ZM605.168 296.052H603.417V299.061H601.989V300.506H603.417V307H605.168V300.506H606.851V299.061H605.168V296.052ZM614.383 307H616.117V299.061H614.383V300.183C613.839 299.282 612.666 298.891 611.714 298.891C609.589 298.891 607.685 300.489 607.685 303.022C607.685 305.555 609.589 307.17 611.714 307.17C612.734 307.17 613.839 306.728 614.383 305.861V307ZM609.487 303.005C609.487 301.543 610.609 300.591 611.918 300.591C613.108 300.591 614.366 301.458 614.366 303.005C614.366 304.569 613.21 305.47 611.918 305.47C610.609 305.47 609.487 304.467 609.487 303.005ZM620.118 299.061H618.384V307H620.118V299.061ZM618.078 295.848C618.078 296.477 618.622 296.953 619.251 296.953C619.914 296.953 620.407 296.477 620.407 295.848C620.407 295.219 619.914 294.743 619.251 294.743C618.622 294.743 618.078 295.219 618.078 295.848ZM624.132 302.733C624.132 301.169 625.135 300.608 626.172 300.608C627.192 300.608 627.838 301.305 627.838 302.58V307H629.589V302.376C629.589 300.115 628.484 298.891 626.563 298.891C625.696 298.891 624.591 299.35 624.132 300.251V299.061H622.381V307H624.132V302.733ZM639.321 303.005C639.321 300.489 637.587 298.891 635.343 298.891C633.099 298.891 631.263 300.489 631.263 303.005C631.263 305.521 633.099 307.17 635.343 307.17C636.822 307.17 638.335 306.541 639.015 305.13L637.587 304.501C637.179 305.232 636.312 305.64 635.428 305.64C634.136 305.64 633.184 304.875 632.997 303.651H639.304C639.321 303.464 639.321 303.192 639.321 303.005ZM632.997 302.376C633.184 301.152 634.119 300.421 635.343 300.421C636.55 300.421 637.417 301.135 637.604 302.376H632.997ZM647.137 307H648.871V294.743H647.137V300.2C646.644 299.333 645.59 298.891 644.451 298.891C642.309 298.891 640.49 300.489 640.49 303.039C640.49 305.538 642.309 307.17 644.451 307.17C645.539 307.17 646.644 306.711 647.137 305.844V307ZM647.103 303.005C647.103 304.552 645.964 305.47 644.672 305.47C643.363 305.47 642.292 304.467 642.292 303.005C642.292 301.543 643.363 300.591 644.672 300.591C645.845 300.591 647.103 301.458 647.103 303.005Z" fill="#0F0E17"/>
<rect x="2" y="385" width="240" height="88" rx="16" fill="#DAD3C2" stroke="#B4AD9F" stroke-width="3" stroke-miterlimit="0"/>
<path d="M54.1655 417.008L52.1595 409.885H50.7485L48.7425 417.008L45.9545 408.287H44.0165L47.9775 420H49.4905L51.4455 412.979L53.4175 420H54.9305L58.8915 408.287H56.9535L54.1655 417.008ZM61.8743 415.733C61.8743 414.169 63.0813 413.608 64.0843 413.608C65.0873 413.608 65.8523 414.339 65.8523 415.58V420H67.6033V415.478C67.6033 413.217 66.4303 411.891 64.3903 411.891C63.5573 411.891 62.3333 412.299 61.8743 413.268V407.743H60.1233V420H61.8743V415.733ZM75.9524 420H77.6864V412.061H75.9524V413.183C75.4084 412.282 74.2354 411.891 73.2834 411.891C71.1584 411.891 69.2544 413.489 69.2544 416.022C69.2544 418.555 71.1584 420.17 73.2834 420.17C74.3034 420.17 75.4084 419.728 75.9524 418.861V420ZM71.0564 416.005C71.0564 414.543 72.1784 413.591 73.4874 413.591C74.6774 413.591 75.9354 414.458 75.9354 416.005C75.9354 417.569 74.7794 418.47 73.4874 418.47C72.1784 418.47 71.0564 417.467 71.0564 416.005ZM82.3334 409.052H80.5824V412.061H79.1544V413.506H80.5824V420H82.3334V413.506H84.0164V412.061H82.3334V409.052ZM95.4287 420H97.1627V407.743H95.4287V413.2C94.9357 412.333 93.8817 411.891 92.7427 411.891C90.6007 411.891 88.7817 413.489 88.7817 416.039C88.7817 418.538 90.6007 420.17 92.7427 420.17C93.8307 420.17 94.9357 419.711 95.4287 418.844V420ZM95.3947 416.005C95.3947 417.552 94.2557 418.47 92.9637 418.47C91.6547 418.47 90.5837 417.467 90.5837 416.005C90.5837 414.543 91.6547 413.591 92.9637 413.591C94.1367 413.591 95.3947 414.458 95.3947 416.005ZM103.052 418.47C101.743 418.47 100.655 417.501 100.655 416.005C100.655 414.56 101.743 413.608 103.052 413.608C104.378 413.608 105.466 414.56 105.466 416.005C105.466 417.501 104.378 418.47 103.052 418.47ZM103.052 420.17C105.313 420.17 107.217 418.521 107.217 416.005C107.217 413.489 105.313 411.891 103.052 411.891C100.808 411.891 98.9205 413.489 98.9205 416.005C98.9205 418.521 100.808 420.17 103.052 420.17ZM120.275 412.061H118.405L116.178 417.501L113.968 412.061H112.098L115.243 419.626L113.526 423.876H115.362L120.275 412.061ZM124.986 418.47C123.677 418.47 122.589 417.501 122.589 416.005C122.589 414.56 123.677 413.608 124.986 413.608C126.312 413.608 127.4 414.56 127.4 416.005C127.4 417.501 126.312 418.47 124.986 418.47ZM124.986 420.17C127.247 420.17 129.151 418.521 129.151 416.005C129.151 413.489 127.247 411.891 124.986 411.891C122.742 411.891 120.855 413.489 120.855 416.005C120.855 418.521 122.742 420.17 124.986 420.17ZM136.261 416.328C136.261 417.909 135.241 418.47 134.221 418.47C133.269 418.47 132.572 417.79 132.572 416.481V412.061H130.821V416.685C130.804 418.946 131.943 420.17 133.898 420.17C134.731 420.17 135.802 419.745 136.261 418.844V420H138.012V412.061H136.261V416.328ZM156.158 412.061H154.288L152.435 417.416L150.599 412.061H148.967L147.131 417.416L145.295 412.061H143.425L146.417 420H147.845L149.783 414.373L151.806 420H153.251L156.158 412.061ZM163.544 420H165.278V412.061H163.544V413.183C163 412.282 161.827 411.891 160.875 411.891C158.75 411.891 156.846 413.489 156.846 416.022C156.846 418.555 158.75 420.17 160.875 420.17C161.895 420.17 163 419.728 163.544 418.861V420ZM158.648 416.005C158.648 414.543 159.77 413.591 161.079 413.591C162.269 413.591 163.527 414.458 163.527 416.005C163.527 417.569 162.371 418.47 161.079 418.47C159.77 418.47 158.648 417.467 158.648 416.005ZM169.296 415.733C169.296 414.169 170.299 413.608 171.336 413.608C172.356 413.608 173.002 414.305 173.002 415.58V420H174.753V415.376C174.753 413.115 173.648 411.891 171.727 411.891C170.86 411.891 169.755 412.35 169.296 413.251V412.061H167.545V420H169.296V415.733ZM179.317 409.052H177.566V412.061H176.138V413.506H177.566V420H179.317V413.506H181V412.061H179.317V409.052ZM188.638 409.052H186.887V412.061H185.459V413.506H186.887V420H188.638V413.506H190.321V412.061H188.638V409.052ZM195.287 418.47C193.978 418.47 192.89 417.501 192.89 416.005C192.89 414.56 193.978 413.608 195.287 413.608C196.613 413.608 197.701 414.56 197.701 416.005C197.701 417.501 196.613 418.47 195.287 418.47ZM195.287 420.17C197.548 420.17 199.452 418.521 199.452 416.005C199.452 413.489 197.548 411.891 195.287 411.891C193.043 411.891 191.156 413.489 191.156 416.005C191.156 418.521 193.043 420.17 195.287 420.17ZM74.9293 446H76.6803V433.743H74.9293V446ZM86.4905 442.005C86.4905 439.489 84.7565 437.891 82.5125 437.891C80.2685 437.891 78.4325 439.489 78.4325 442.005C78.4325 444.521 80.2685 446.17 82.5125 446.17C83.9915 446.17 85.5045 445.541 86.1845 444.13L84.7565 443.501C84.3485 444.232 83.4815 444.64 82.5975 444.64C81.3055 444.64 80.3535 443.875 80.1665 442.651H86.4735C86.4905 442.464 86.4905 442.192 86.4905 442.005ZM80.1665 441.376C80.3535 440.152 81.2885 439.421 82.5125 439.421C83.7195 439.421 84.5865 440.135 84.7735 441.376H80.1665ZM94.3399 446H96.0739V438.061H94.3399V439.183C93.7959 438.282 92.6229 437.891 91.6709 437.891C89.5459 437.891 87.6419 439.489 87.6419 442.022C87.6419 444.555 89.5459 446.17 91.6709 446.17C92.6909 446.17 93.7959 445.728 94.3399 444.861V446ZM89.4439 442.005C89.4439 440.543 90.5659 439.591 91.8749 439.591C93.0649 439.591 94.3229 440.458 94.3229 442.005C94.3229 443.569 93.1669 444.47 91.8749 444.47C90.5659 444.47 89.4439 443.467 89.4439 442.005ZM100.092 443.144C100.092 441.036 100.721 439.54 102.217 439.54C102.557 439.54 102.931 439.591 103.39 439.812L103.679 438.197C103.424 438.01 102.829 437.891 102.268 437.891C101.265 437.891 100.5 438.452 100.092 439.88V438.061H98.3409V446H100.092V443.144ZM106.695 441.733C106.695 440.169 107.698 439.608 108.735 439.608C109.755 439.608 110.401 440.305 110.401 441.58V446H112.152V441.376C112.152 439.115 111.047 437.891 109.126 437.891C108.259 437.891 107.154 438.35 106.695 439.251V438.061H104.944V446H106.695V441.733ZM124.653 446H126.387V438.061H124.653V439.183C124.109 438.282 122.936 437.891 121.984 437.891C119.859 437.891 117.955 439.489 117.955 442.022C117.955 444.555 119.859 446.17 121.984 446.17C123.004 446.17 124.109 445.728 124.653 444.861V446ZM119.757 442.005C119.757 440.543 120.879 439.591 122.188 439.591C123.378 439.591 124.636 440.458 124.636 442.005C124.636 443.569 123.48 444.47 122.188 444.47C120.879 444.47 119.757 443.467 119.757 442.005ZM130.422 442.005C130.422 440.458 131.663 439.591 132.853 439.591C134.179 439.591 135.25 440.543 135.25 442.005C135.25 443.467 134.179 444.47 132.853 444.47C131.561 444.47 130.422 443.552 130.422 442.005ZM130.405 446V444.844C130.898 445.711 131.969 446.17 133.057 446.17C135.182 446.17 137.035 444.538 137.035 442.039C137.035 439.489 135.233 437.891 133.074 437.891C131.935 437.891 130.898 438.333 130.405 439.2V433.743H128.654V446H130.405ZM142.431 444.47C141.122 444.47 140.034 443.501 140.034 442.005C140.034 440.56 141.122 439.608 142.431 439.608C143.757 439.608 144.845 440.56 144.845 442.005C144.845 443.501 143.757 444.47 142.431 444.47ZM142.431 446.17C144.692 446.17 146.596 444.521 146.596 442.005C146.596 439.489 144.692 437.891 142.431 437.891C140.187 437.891 138.3 439.489 138.3 442.005C138.3 444.521 140.187 446.17 142.431 446.17ZM153.707 442.328C153.707 443.909 152.687 444.47 151.667 444.47C150.715 444.47 150.018 443.79 150.018 442.481V438.061H148.267V442.685C148.25 444.946 149.389 446.17 151.344 446.17C152.177 446.17 153.248 445.745 153.707 444.844V446H155.458V438.061H153.707V442.328ZM160.091 435.052H158.34V438.061H156.912V439.506H158.34V446H160.091V439.506H161.774V438.061H160.091V435.052ZM166.108 441.971C166.108 441.172 166.533 440.883 167.23 440.679C168.556 440.271 169.644 439.115 169.644 437.466C169.644 435.426 168.046 434.151 166.125 434.151C164.221 434.151 162.725 435.528 162.725 437.704H164.408C164.408 436.565 165.19 435.885 166.125 435.885C167.077 435.885 167.91 436.514 167.91 437.466C167.91 437.925 167.689 438.418 167.23 438.741C165.615 439.812 164.374 439.659 164.374 441.971V442.838H166.074L166.108 441.971ZM164.034 445.014C164.034 445.677 164.578 446.153 165.241 446.153C165.904 446.153 166.448 445.677 166.448 445.014C166.448 444.351 165.904 443.858 165.241 443.858C164.578 443.858 164.034 444.351 164.034 445.014Z" fill="#0F0E17"/>
<path d="M122 347V381" stroke="#B4AD9F" stroke-width="3" stroke-miterlimit="0" stroke-linecap="round" stroke-linejoin="bevel"/>
<rect x="2" y="515" width="240" height="80" rx="16" fill="#DAD3C2" stroke="#B4AD9F" stroke-width="3" stroke-miterlimit="0"/>
<path d="M48.4148 547.287V552.353H43.1278V547.287H41.3258V559H43.1278V554.002H48.4148V559H50.2508V547.287H48.4148ZM56.2575 557.47C54.9485 557.47 53.8605 556.501 53.8605 555.005C53.8605 553.56 54.9485 552.608 56.2575 552.608C57.5835 552.608 58.6715 553.56 58.6715 555.005C58.6715 556.501 57.5835 557.47 56.2575 557.47ZM56.2575 559.17C58.5185 559.17 60.4225 557.521 60.4225 555.005C60.4225 552.489 58.5185 550.891 56.2575 550.891C54.0135 550.891 52.1265 552.489 52.1265 555.005C52.1265 557.521 54.0135 559.17 56.2575 559.17ZM73.942 551.061H72.072L70.219 556.416L68.383 551.061H66.751L64.915 556.416L63.079 551.061H61.209L64.201 559H65.629L67.567 553.373L69.59 559H71.035L73.942 551.061ZM90.7672 551.061H88.8972L87.0442 556.416L85.2082 551.061H83.5762L81.7402 556.416L79.9042 551.061H78.0342L81.0262 559H82.4542L84.3922 553.373L86.4152 559H87.8602L90.7672 551.061ZM93.8481 551.061H92.1141V559H93.8481V551.061ZM91.8081 547.848C91.8081 548.477 92.3521 548.953 92.9811 548.953C93.6441 548.953 94.1371 548.477 94.1371 547.848C94.1371 547.219 93.6441 546.743 92.9811 546.743C92.3521 546.743 91.8081 547.219 91.8081 547.848ZM96.1107 559H97.8617V546.743H96.1107V559ZM100.124 559H101.875V546.743H100.124V559ZM110 551.061H108.266V559H110V551.061ZM107.96 547.848C107.96 548.477 108.504 548.953 109.133 548.953C109.796 548.953 110.289 548.477 110.289 547.848C110.289 547.219 109.796 546.743 109.133 546.743C108.504 546.743 107.96 547.219 107.96 547.848ZM114.643 548.052H112.892V551.061H111.464V552.506H112.892V559H114.643V552.506H116.326V551.061H114.643V548.052ZM123.352 555.005C123.352 553.458 124.593 552.591 125.783 552.591C127.109 552.591 128.18 553.543 128.18 555.005C128.18 556.467 127.109 557.47 125.783 557.47C124.491 557.47 123.352 556.552 123.352 555.005ZM123.335 559V557.844C123.828 558.711 124.899 559.17 125.987 559.17C128.112 559.17 129.965 557.538 129.965 555.039C129.965 552.489 128.163 550.891 126.004 550.891C124.865 550.891 123.828 551.333 123.335 552.2V546.743H121.584V559H123.335ZM139.288 555.005C139.288 552.489 137.554 550.891 135.31 550.891C133.066 550.891 131.23 552.489 131.23 555.005C131.23 557.521 133.066 559.17 135.31 559.17C136.789 559.17 138.302 558.541 138.982 557.13L137.554 556.501C137.146 557.232 136.279 557.64 135.395 557.64C134.103 557.64 133.151 556.875 132.964 555.651H139.271C139.288 555.464 139.288 555.192 139.288 555.005ZM132.964 554.376C133.151 553.152 134.086 552.421 135.31 552.421C136.517 552.421 137.384 553.135 137.571 554.376H132.964ZM146.83 554.733C146.83 553.169 148.037 552.608 149.04 552.608C150.043 552.608 150.808 553.339 150.808 554.58V559H152.559V554.478C152.559 552.217 151.386 550.891 149.346 550.891C148.513 550.891 147.289 551.299 146.83 552.268V546.743H145.079V559H146.83V554.733ZM162.268 555.005C162.268 552.489 160.534 550.891 158.29 550.891C156.046 550.891 154.21 552.489 154.21 555.005C154.21 557.521 156.046 559.17 158.29 559.17C159.769 559.17 161.282 558.541 161.962 557.13L160.534 556.501C160.126 557.232 159.259 557.64 158.375 557.64C157.083 557.64 156.131 556.875 155.944 555.651H162.251C162.268 555.464 162.268 555.192 162.268 555.005ZM155.944 554.376C156.131 553.152 157.066 552.421 158.29 552.421C159.497 552.421 160.364 553.135 160.551 554.376H155.944ZM163.93 559H165.681V546.743H163.93V559ZM169.694 551.061H167.943V562.859H169.694V557.861C170.187 558.745 171.258 559.17 172.346 559.17C174.488 559.17 176.29 557.572 176.29 555.039C176.29 552.54 174.488 550.891 172.346 550.891C171.258 550.891 170.187 551.367 169.694 552.234V551.061ZM169.711 555.073C169.711 553.526 170.833 552.591 172.125 552.591C173.434 552.591 174.505 553.594 174.505 555.073C174.505 556.535 173.434 557.487 172.125 557.487C170.901 557.487 169.711 556.654 169.711 555.073ZM182.825 546.743H181.958C179.782 546.743 178.779 548.154 178.779 550.33V551.061H177.266V552.506H178.779V559H180.547V552.506H182.332V551.061H180.547V550.33C180.547 549.31 180.802 548.426 181.958 548.426H182.825V546.743ZM189.127 555.328C189.127 556.909 188.107 557.47 187.087 557.47C186.135 557.47 185.438 556.79 185.438 555.481V551.061H183.687V555.685C183.67 557.946 184.809 559.17 186.764 559.17C187.597 559.17 188.668 558.745 189.127 557.844V559H190.878V551.061H189.127V555.328ZM193.131 559H194.882V546.743H193.131V559ZM200.017 554.971C200.017 554.172 200.442 553.883 201.139 553.679C202.465 553.271 203.553 552.115 203.553 550.466C203.553 548.426 201.955 547.151 200.034 547.151C198.13 547.151 196.634 548.528 196.634 550.704H198.317C198.317 549.565 199.099 548.885 200.034 548.885C200.986 548.885 201.819 549.514 201.819 550.466C201.819 550.925 201.598 551.418 201.139 551.741C199.524 552.812 198.283 552.659 198.283 554.971V555.838H199.983L200.017 554.971ZM197.943 558.014C197.943 558.677 198.487 559.153 199.15 559.153C199.813 559.153 200.357 558.677 200.357 558.014C200.357 557.351 199.813 556.858 199.15 556.858C198.487 556.858 197.943 557.351 197.943 558.014Z" fill="#0F0E17"/>
<path d="M122 477V511" stroke="#B4AD9F" stroke-width="3" stroke-miterlimit="0" stroke-linecap="round" stroke-linejoin="bevel"/>
<rect x="474" y="385" width="240" height="88" rx="16" fill="#DAD3C2" stroke="#B4AD9F" stroke-width="3" stroke-miterlimit="0"/>
<path d="M511.432 417.008L509.426 409.885H508.015L506.009 417.008L503.221 408.287H501.283L505.244 420H506.757L508.712 412.979L510.684 420H512.197L516.158 408.287H514.22L511.432 417.008ZM519.141 415.733C519.141 414.169 520.348 413.608 521.351 413.608C522.354 413.608 523.119 414.339 523.119 415.58V420H524.87V415.478C524.87 413.217 523.697 411.891 521.657 411.891C520.824 411.891 519.6 412.299 519.141 413.268V407.743H517.39V420H519.141V415.733ZM533.219 420H534.953V412.061H533.219V413.183C532.675 412.282 531.502 411.891 530.55 411.891C528.425 411.891 526.521 413.489 526.521 416.022C526.521 418.555 528.425 420.17 530.55 420.17C531.57 420.17 532.675 419.728 533.219 418.861V420ZM528.323 416.005C528.323 414.543 529.445 413.591 530.754 413.591C531.944 413.591 533.202 414.458 533.202 416.005C533.202 417.569 532.046 418.47 530.754 418.47C529.445 418.47 528.323 417.467 528.323 416.005ZM539.6 409.052H537.849V412.061H536.421V413.506H537.849V420H539.6V413.506H541.283V412.061H539.6V409.052ZM555.585 413.608C556.605 413.608 557.268 414.339 557.268 415.58V420H559.019V415.427C559.019 413.166 557.931 411.891 555.959 411.891C555.245 411.891 554.021 412.095 553.29 413.472C552.831 412.452 552.066 411.891 550.791 411.891C550.145 411.891 548.836 412.163 548.292 413.251V412.061H546.541V420H548.292V415.733C548.292 414.169 549.278 413.608 550.298 413.608C551.25 413.608 551.896 414.322 551.913 415.546V420H553.664V415.733C553.664 414.441 554.429 413.608 555.585 413.608ZM567.384 420H569.118V412.061H567.384V413.183C566.84 412.282 565.667 411.891 564.715 411.891C562.59 411.891 560.686 413.489 560.686 416.022C560.686 418.555 562.59 420.17 564.715 420.17C565.735 420.17 566.84 419.728 567.384 418.861V420ZM562.488 416.005C562.488 414.543 563.61 413.591 564.919 413.591C566.109 413.591 567.367 414.458 567.367 416.005C567.367 417.569 566.211 418.47 564.919 418.47C563.61 418.47 562.488 417.467 562.488 416.005ZM576.502 420H578.746L574.598 415.512L577.981 412.061H575.635L573.119 414.679V407.743H571.385V420H573.119V416.311L576.502 420ZM586.864 416.005C586.864 413.489 585.13 411.891 582.886 411.891C580.642 411.891 578.806 413.489 578.806 416.005C578.806 418.521 580.642 420.17 582.886 420.17C584.365 420.17 585.878 419.541 586.558 418.13L585.13 417.501C584.722 418.232 583.855 418.64 582.971 418.64C581.679 418.64 580.727 417.875 580.54 416.651H586.847C586.864 416.464 586.864 416.192 586.864 416.005ZM580.54 415.376C580.727 414.152 581.662 413.421 582.886 413.421C584.093 413.421 584.96 414.135 585.147 415.376H580.54ZM591.45 416.821C592.045 416.957 592.555 417.229 592.555 417.756C592.555 418.351 591.943 418.708 591.144 418.708C590.209 418.708 589.665 418.249 589.58 417.569H587.965C588.016 419.252 589.512 420.17 591.008 420.17C592.827 420.17 594.17 419.303 594.17 417.773C594.17 416.991 593.796 415.869 592.096 415.461L590.872 415.155C590.447 415.036 590.022 414.866 589.903 414.543C589.818 414.288 589.835 414.05 589.971 413.829C590.158 413.557 590.634 413.387 591.093 413.387C591.637 413.387 592.181 413.642 592.249 414.237H593.915C593.83 412.537 592.419 411.891 591.025 411.891C589.58 411.891 588.271 412.809 588.186 413.982C588.067 415.274 588.679 416.107 590.379 416.566L591.45 416.821ZM607.196 412.061H605.326L603.099 417.501L600.889 412.061H599.019L602.164 419.626L600.447 423.876H602.283L607.196 412.061ZM611.906 418.47C610.597 418.47 609.509 417.501 609.509 416.005C609.509 414.56 610.597 413.608 611.906 413.608C613.232 413.608 614.32 414.56 614.32 416.005C614.32 417.501 613.232 418.47 611.906 418.47ZM611.906 420.17C614.167 420.17 616.071 418.521 616.071 416.005C616.071 413.489 614.167 411.891 611.906 411.891C609.662 411.891 607.775 413.489 607.775 416.005C607.775 418.521 609.662 420.17 611.906 420.17ZM623.182 416.328C623.182 417.909 622.162 418.47 621.142 418.47C620.19 418.47 619.493 417.79 619.493 416.481V412.061H617.742V416.685C617.725 418.946 618.864 420.17 620.819 420.17C621.652 420.17 622.723 419.745 623.182 418.844V420H624.933V412.061H623.182V416.328ZM643.079 412.061H641.209L639.356 417.416L637.52 412.061H635.888L634.052 417.416L632.216 412.061H630.346L633.338 420H634.766L636.704 414.373L638.727 420H640.172L643.079 412.061ZM650.464 420H652.198V412.061H650.464V413.183C649.92 412.282 648.747 411.891 647.795 411.891C645.67 411.891 643.766 413.489 643.766 416.022C643.766 418.555 645.67 420.17 647.795 420.17C648.815 420.17 649.92 419.728 650.464 418.861V420ZM645.568 416.005C645.568 414.543 646.69 413.591 647.999 413.591C649.189 413.591 650.447 414.458 650.447 416.005C650.447 417.569 649.291 418.47 647.999 418.47C646.69 418.47 645.568 417.467 645.568 416.005ZM656.216 415.733C656.216 414.169 657.219 413.608 658.256 413.608C659.276 413.608 659.922 414.305 659.922 415.58V420H661.673V415.376C661.673 413.115 660.568 411.891 658.647 411.891C657.78 411.891 656.675 412.35 656.216 413.251V412.061H654.465V420H656.216V415.733ZM666.237 409.052H664.486V412.061H663.058V413.506H664.486V420H666.237V413.506H667.92V412.061H666.237V409.052ZM675.559 409.052H673.808V412.061H672.38V413.506H673.808V420H675.559V413.506H677.242V412.061H675.559V409.052ZM682.207 418.47C680.898 418.47 679.81 417.501 679.81 416.005C679.81 414.56 680.898 413.608 682.207 413.608C683.533 413.608 684.621 414.56 684.621 416.005C684.621 417.501 683.533 418.47 682.207 418.47ZM682.207 420.17C684.468 420.17 686.372 418.521 686.372 416.005C686.372 413.489 684.468 411.891 682.207 411.891C679.963 411.891 678.076 413.489 678.076 416.005C678.076 418.521 679.963 420.17 682.207 420.17ZM518.929 442.005C518.929 440.458 520.17 439.591 521.36 439.591C522.686 439.591 523.757 440.543 523.757 442.005C523.757 443.467 522.686 444.47 521.36 444.47C520.068 444.47 518.929 443.552 518.929 442.005ZM518.912 446V444.844C519.405 445.711 520.476 446.17 521.564 446.17C523.689 446.17 525.542 444.538 525.542 442.039C525.542 439.489 523.74 437.891 521.581 437.891C520.442 437.891 519.405 438.333 518.912 439.2V433.743H517.161V446H518.912ZM534.865 442.005C534.865 439.489 533.131 437.891 530.887 437.891C528.643 437.891 526.807 439.489 526.807 442.005C526.807 444.521 528.643 446.17 530.887 446.17C532.366 446.17 533.879 445.541 534.559 444.13L533.131 443.501C532.723 444.232 531.856 444.64 530.972 444.64C529.68 444.64 528.728 443.875 528.541 442.651H534.848C534.865 442.464 534.865 442.192 534.865 442.005ZM528.541 441.376C528.728 440.152 529.663 439.421 530.887 439.421C532.094 439.421 532.961 440.135 533.148 441.376H528.541ZM548.204 442.005C548.204 439.489 546.47 437.891 544.226 437.891C541.982 437.891 540.146 439.489 540.146 442.005C540.146 444.521 541.982 446.17 544.226 446.17C545.705 446.17 547.218 445.541 547.898 444.13L546.47 443.501C546.062 444.232 545.195 444.64 544.311 444.64C543.019 444.64 542.067 443.875 541.88 442.651H548.187C548.204 442.464 548.204 442.192 548.204 442.005ZM541.88 441.376C542.067 440.152 543.002 439.421 544.226 439.421C545.433 439.421 546.3 440.135 546.487 441.376H541.88ZM551.617 441.733C551.617 440.169 552.62 439.608 553.657 439.608C554.677 439.608 555.323 440.305 555.323 441.58V446H557.074V441.376C557.074 439.115 555.969 437.891 554.048 437.891C553.181 437.891 552.076 438.35 551.617 439.251V438.061H549.866V446H551.617V441.733ZM561.638 435.052H559.887V438.061H558.459V439.506H559.887V446H561.638V439.506H563.321V438.061H561.638V435.052ZM572.213 442.005C572.213 439.489 570.479 437.891 568.235 437.891C565.991 437.891 564.155 439.489 564.155 442.005C564.155 444.521 565.991 446.17 568.235 446.17C569.714 446.17 571.227 445.541 571.907 444.13L570.479 443.501C570.071 444.232 569.204 444.64 568.32 444.64C567.028 444.64 566.076 443.875 565.889 442.651H572.196C572.213 442.464 572.213 442.192 572.213 442.005ZM565.889 441.376C566.076 440.152 567.011 439.421 568.235 439.421C569.442 439.421 570.309 440.135 570.496 441.376H565.889ZM575.626 443.144C575.626 441.036 576.255 439.54 577.751 439.54C578.091 439.54 578.465 439.591 578.924 439.812L579.213 438.197C578.958 438.01 578.363 437.891 577.802 437.891C576.799 437.891 576.034 438.452 575.626 439.88V438.061H573.875V446H575.626V443.144ZM582.858 435.052H581.107V438.061H579.679V439.506H581.107V446H582.858V439.506H584.541V438.061H582.858V435.052ZM592.074 446H593.808V438.061H592.074V439.183C591.53 438.282 590.357 437.891 589.405 437.891C587.28 437.891 585.376 439.489 585.376 442.022C585.376 444.555 587.28 446.17 589.405 446.17C590.425 446.17 591.53 445.728 592.074 444.861V446ZM587.178 442.005C587.178 440.543 588.3 439.591 589.609 439.591C590.799 439.591 592.057 440.458 592.057 442.005C592.057 443.569 590.901 444.47 589.609 444.47C588.3 444.47 587.178 443.467 587.178 442.005ZM597.809 438.061H596.075V446H597.809V438.061ZM595.769 434.848C595.769 435.477 596.313 435.953 596.942 435.953C597.605 435.953 598.098 435.477 598.098 434.848C598.098 434.219 597.605 433.743 596.942 433.743C596.313 433.743 595.769 434.219 595.769 434.848ZM601.822 441.733C601.822 440.169 602.825 439.608 603.862 439.608C604.882 439.608 605.528 440.305 605.528 441.58V446H607.279V441.376C607.279 439.115 606.174 437.891 604.253 437.891C603.386 437.891 602.281 438.35 601.822 439.251V438.061H600.071V446H601.822V441.733ZM617.011 442.005C617.011 439.489 615.277 437.891 613.033 437.891C610.789 437.891 608.953 439.489 608.953 442.005C608.953 444.521 610.789 446.17 613.033 446.17C614.512 446.17 616.025 445.541 616.705 444.13L615.277 443.501C614.869 444.232 614.002 444.64 613.118 444.64C611.826 444.64 610.874 443.875 610.687 442.651H616.994C617.011 442.464 617.011 442.192 617.011 442.005ZM610.687 441.376C610.874 440.152 611.809 439.421 613.033 439.421C614.24 439.421 615.107 440.135 615.294 441.376H610.687ZM624.827 446H626.561V433.743H624.827V439.2C624.334 438.333 623.28 437.891 622.141 437.891C619.999 437.891 618.18 439.489 618.18 442.039C618.18 444.538 619.999 446.17 622.141 446.17C623.229 446.17 624.334 445.711 624.827 444.844V446ZM624.793 442.005C624.793 443.552 623.654 444.47 622.362 444.47C621.053 444.47 619.982 443.467 619.982 442.005C619.982 440.543 621.053 439.591 622.362 439.591C623.535 439.591 624.793 440.458 624.793 442.005ZM634.709 441.733C634.709 440.169 635.712 439.608 636.749 439.608C637.769 439.608 638.415 440.305 638.415 441.58V446H640.166V441.376C640.166 439.115 639.061 437.891 637.14 437.891C636.273 437.891 635.168 438.35 634.709 439.251V438.061H632.958V446H634.709V441.733ZM645.971 444.47C644.662 444.47 643.574 443.501 643.574 442.005C643.574 440.56 644.662 439.608 645.971 439.608C647.297 439.608 648.385 440.56 648.385 442.005C648.385 443.501 647.297 444.47 645.971 444.47ZM645.971 446.17C648.232 446.17 650.136 444.521 650.136 442.005C650.136 439.489 648.232 437.891 645.971 437.891C643.727 437.891 641.84 439.489 641.84 442.005C641.84 444.521 643.727 446.17 645.971 446.17ZM663.656 438.061H661.786L659.933 443.416L658.097 438.061H656.465L654.629 443.416L652.793 438.061H650.923L653.915 446H655.343L657.281 440.373L659.304 446H660.749L663.656 438.061ZM667.875 441.971C667.875 441.172 668.3 440.883 668.997 440.679C670.323 440.271 671.411 439.115 671.411 437.466C671.411 435.426 669.813 434.151 667.892 434.151C665.988 434.151 664.492 435.528 664.492 437.704H666.175C666.175 436.565 666.957 435.885 667.892 435.885C668.844 435.885 669.677 436.514 669.677 437.466C669.677 437.925 669.456 438.418 668.997 438.741C667.382 439.812 666.141 439.659 666.141 441.971V442.838H667.841L667.875 441.971ZM665.801 445.014C665.801 445.677 666.345 446.153 667.008 446.153C667.671 446.153 668.215 445.677 668.215 445.014C668.215 444.351 667.671 443.858 667.008 443.858C666.345 443.858 665.801 444.351 665.801 445.014Z" fill="#0F0E17"/>
<path d="M594 347V381" stroke="#B4AD9F" stroke-width="3" stroke-miterlimit="0" stroke-linecap="round" stroke-linejoin="bevel"/>
<rect x="474" y="515" width="240" height="112" rx="16" fill="#DAD3C2" stroke="#B4AD9F" stroke-width="3" stroke-miterlimit="0"/>
<path d="M510.022 549H511.824V537.287H510.022V549ZM517.201 545.821C517.796 545.957 518.306 546.229 518.306 546.756C518.306 547.351 517.694 547.708 516.895 547.708C515.96 547.708 515.416 547.249 515.331 546.569H513.716C513.767 548.252 515.263 549.17 516.759 549.17C518.578 549.17 519.921 548.303 519.921 546.773C519.921 545.991 519.547 544.869 517.847 544.461L516.623 544.155C516.198 544.036 515.773 543.866 515.654 543.543C515.569 543.288 515.586 543.05 515.722 542.829C515.909 542.557 516.385 542.387 516.844 542.387C517.388 542.387 517.932 542.642 518 543.237H519.666C519.581 541.537 518.17 540.891 516.776 540.891C515.331 540.891 514.022 541.809 513.937 542.982C513.818 544.274 514.43 545.107 516.13 545.566L517.201 545.821ZM528.153 538.052H526.402V541.061H524.974V542.506H526.402V549H528.153V542.506H529.836V541.061H528.153V538.052ZM533.048 544.733C533.048 543.169 534.255 542.608 535.258 542.608C536.261 542.608 537.026 543.339 537.026 544.58V549H538.777V544.478C538.777 542.217 537.604 540.891 535.564 540.891C534.731 540.891 533.507 541.299 533.048 542.268V536.743H531.297V549H533.048V544.733ZM548.486 545.005C548.486 542.489 546.752 540.891 544.508 540.891C542.264 540.891 540.428 542.489 540.428 545.005C540.428 547.521 542.264 549.17 544.508 549.17C545.987 549.17 547.5 548.541 548.18 547.13L546.752 546.501C546.344 547.232 545.477 547.64 544.593 547.64C543.301 547.64 542.349 546.875 542.162 545.651H548.469C548.486 545.464 548.486 545.192 548.486 545.005ZM542.162 544.376C542.349 543.152 543.284 542.421 544.508 542.421C545.715 542.421 546.582 543.135 546.769 544.376H542.162ZM551.899 546.144C551.899 544.036 552.528 542.54 554.024 542.54C554.364 542.54 554.738 542.591 555.197 542.812L555.486 541.197C555.231 541.01 554.636 540.891 554.075 540.891C553.072 540.891 552.307 541.452 551.899 542.88V541.061H550.148V549H551.899V546.144ZM564.133 545.005C564.133 542.489 562.399 540.891 560.155 540.891C557.911 540.891 556.075 542.489 556.075 545.005C556.075 547.521 557.911 549.17 560.155 549.17C561.634 549.17 563.147 548.541 563.827 547.13L562.399 546.501C561.991 547.232 561.124 547.64 560.24 547.64C558.948 547.64 557.996 546.875 557.809 545.651H564.116C564.133 545.464 564.133 545.192 564.133 545.005ZM557.809 544.376C557.996 543.152 558.931 542.421 560.155 542.421C561.362 542.421 562.229 543.135 562.416 544.376H557.809ZM572.848 545.821C573.443 545.957 573.953 546.229 573.953 546.756C573.953 547.351 573.341 547.708 572.542 547.708C571.607 547.708 571.063 547.249 570.978 546.569H569.363C569.414 548.252 570.91 549.17 572.406 549.17C574.225 549.17 575.568 548.303 575.568 546.773C575.568 545.991 575.194 544.869 573.494 544.461L572.27 544.155C571.845 544.036 571.42 543.866 571.301 543.543C571.216 543.288 571.233 543.05 571.369 542.829C571.556 542.557 572.032 542.387 572.491 542.387C573.035 542.387 573.579 542.642 573.647 543.237H575.313C575.228 541.537 573.817 540.891 572.423 540.891C570.978 540.891 569.669 541.809 569.584 542.982C569.465 544.274 570.077 545.107 571.777 545.566L572.848 545.821ZM580.911 547.47C579.602 547.47 578.514 546.501 578.514 545.005C578.514 543.56 579.602 542.608 580.911 542.608C582.237 542.608 583.325 543.56 583.325 545.005C583.325 546.501 582.237 547.47 580.911 547.47ZM580.911 549.17C583.172 549.17 585.076 547.521 585.076 545.005C585.076 542.489 583.172 540.891 580.911 540.891C578.667 540.891 576.78 542.489 576.78 545.005C576.78 547.521 578.667 549.17 580.911 549.17ZM595.876 542.608C596.896 542.608 597.559 543.339 597.559 544.58V549H599.31V544.427C599.31 542.166 598.222 540.891 596.25 540.891C595.536 540.891 594.312 541.095 593.581 542.472C593.122 541.452 592.357 540.891 591.082 540.891C590.436 540.891 589.127 541.163 588.583 542.251V541.061H586.832V549H588.583V544.733C588.583 543.169 589.569 542.608 590.589 542.608C591.541 542.608 592.187 543.322 592.204 544.546V549H593.955V544.733C593.955 543.441 594.72 542.608 595.876 542.608ZM609.035 545.005C609.035 542.489 607.301 540.891 605.057 540.891C602.813 540.891 600.977 542.489 600.977 545.005C600.977 547.521 602.813 549.17 605.057 549.17C606.536 549.17 608.049 548.541 608.729 547.13L607.301 546.501C606.893 547.232 606.026 547.64 605.142 547.64C603.85 547.64 602.898 546.875 602.711 545.651H609.018C609.035 545.464 609.035 545.192 609.035 545.005ZM602.711 544.376C602.898 543.152 603.833 542.421 605.057 542.421C606.264 542.421 607.131 543.135 607.318 544.376H602.711ZM613.076 538.052H611.325V541.061H609.897V542.506H611.325V549H613.076V542.506H614.759V541.061H613.076V538.052ZM617.971 544.733C617.971 543.169 619.178 542.608 620.181 542.608C621.184 542.608 621.949 543.339 621.949 544.58V549H623.7V544.478C623.7 542.217 622.527 540.891 620.487 540.891C619.654 540.891 618.43 541.299 617.971 542.268V536.743H616.22V549H617.971V544.733ZM627.595 541.061H625.861V549H627.595V541.061ZM625.555 537.848C625.555 538.477 626.099 538.953 626.728 538.953C627.391 538.953 627.884 538.477 627.884 537.848C627.884 537.219 627.391 536.743 626.728 536.743C626.099 536.743 625.555 537.219 625.555 537.848ZM631.609 544.733C631.609 543.169 632.612 542.608 633.649 542.608C634.669 542.608 635.315 543.305 635.315 544.58V549H637.066V544.376C637.066 542.115 635.961 540.891 634.04 540.891C633.173 540.891 632.068 541.35 631.609 542.251V541.061H629.858V549H631.609V544.733ZM645.421 545.039C645.421 546.603 644.163 547.487 642.973 547.487C641.647 547.487 640.559 546.535 640.559 545.039C640.559 543.594 641.647 542.591 642.973 542.591C644.282 542.591 645.421 543.458 645.421 545.039ZM640.576 550.003C640.253 550.139 639.454 550.598 639.131 550.734C639.879 552.162 641.256 552.961 642.803 552.961C645.472 552.961 647.172 551.482 647.172 547.827V541.061H645.455V542.234C644.962 541.367 643.857 540.891 642.769 540.891C640.627 540.891 638.757 542.54 638.757 545.056C638.757 547.572 640.627 549.17 642.769 549.17C643.84 549.17 645.013 548.694 645.455 547.793V548.201C645.455 550.428 644.418 551.329 642.803 551.329C641.936 551.329 641.001 550.836 640.576 550.003ZM660.742 541.061H658.872L656.645 546.501L654.435 541.061H652.565L655.71 548.626L653.993 552.876H655.829L660.742 541.061ZM665.453 547.47C664.144 547.47 663.056 546.501 663.056 545.005C663.056 543.56 664.144 542.608 665.453 542.608C666.779 542.608 667.867 543.56 667.867 545.005C667.867 546.501 666.779 547.47 665.453 547.47ZM665.453 549.17C667.714 549.17 669.618 547.521 669.618 545.005C669.618 542.489 667.714 540.891 665.453 540.891C663.209 540.891 661.322 542.489 661.322 545.005C661.322 547.521 663.209 549.17 665.453 549.17ZM676.728 545.328C676.728 546.909 675.708 547.47 674.688 547.47C673.736 547.47 673.039 546.79 673.039 545.481V541.061H671.288V545.685C671.271 547.946 672.41 549.17 674.365 549.17C675.198 549.17 676.269 548.745 676.728 547.844V549H678.479V541.061H676.728V545.328ZM502.121 575H504.365L500.217 570.512L503.6 567.061H501.254L498.738 569.679V562.743H497.004V575H498.738V571.311L502.121 575ZM507.167 570.733C507.167 569.169 508.17 568.608 509.207 568.608C510.227 568.608 510.873 569.305 510.873 570.58V575H512.624V570.376C512.624 568.115 511.519 566.891 509.598 566.891C508.731 566.891 507.626 567.35 507.167 568.251V567.061H505.416V575H507.167V570.733ZM518.429 573.47C517.12 573.47 516.032 572.501 516.032 571.005C516.032 569.56 517.12 568.608 518.429 568.608C519.755 568.608 520.843 569.56 520.843 571.005C520.843 572.501 519.755 573.47 518.429 573.47ZM518.429 575.17C520.69 575.17 522.594 573.521 522.594 571.005C522.594 568.489 520.69 566.891 518.429 566.891C516.185 566.891 514.298 568.489 514.298 571.005C514.298 573.521 516.185 575.17 518.429 575.17ZM536.114 567.061H534.244L532.391 572.416L530.555 567.061H528.923L527.087 572.416L525.251 567.061H523.381L526.373 575H527.801L529.739 569.373L531.762 575H533.207L536.114 567.061ZM548.349 567.061H546.479L544.252 572.501L542.042 567.061H540.172L543.317 574.626L541.6 578.876H543.436L548.349 567.061ZM553.059 573.47C551.75 573.47 550.662 572.501 550.662 571.005C550.662 569.56 551.75 568.608 553.059 568.608C554.385 568.608 555.473 569.56 555.473 571.005C555.473 572.501 554.385 573.47 553.059 573.47ZM553.059 575.17C555.32 575.17 557.224 573.521 557.224 571.005C557.224 568.489 555.32 566.891 553.059 566.891C550.815 566.891 548.928 568.489 548.928 571.005C548.928 573.521 550.815 575.17 553.059 575.17ZM564.335 571.328C564.335 572.909 563.315 573.47 562.295 573.47C561.343 573.47 560.646 572.79 560.646 571.481V567.061H558.895V571.685C558.878 573.946 560.017 575.17 561.972 575.17C562.805 575.17 563.876 574.745 564.335 573.844V575H566.086V567.061H564.335V571.328ZM575.392 571.821C575.987 571.957 576.497 572.229 576.497 572.756C576.497 573.351 575.885 573.708 575.086 573.708C574.151 573.708 573.607 573.249 573.522 572.569H571.907C571.958 574.252 573.454 575.17 574.95 575.17C576.769 575.17 578.112 574.303 578.112 572.773C578.112 571.991 577.738 570.869 576.038 570.461L574.814 570.155C574.389 570.036 573.964 569.866 573.845 569.543C573.76 569.288 573.777 569.05 573.913 568.829C574.1 568.557 574.576 568.387 575.035 568.387C575.579 568.387 576.123 568.642 576.191 569.237H577.857C577.772 567.537 576.361 566.891 574.967 566.891C573.522 566.891 572.213 567.809 572.128 568.982C572.009 570.274 572.621 571.107 574.321 571.566L575.392 571.821ZM581.586 570.733C581.586 569.169 582.793 568.608 583.796 568.608C584.799 568.608 585.564 569.339 585.564 570.58V575H587.315V570.478C587.315 568.217 586.142 566.891 584.102 566.891C583.269 566.891 582.045 567.299 581.586 568.268V562.743H579.835V575H581.586V570.733ZM593.097 573.47C591.788 573.47 590.7 572.501 590.7 571.005C590.7 569.56 591.788 568.608 593.097 568.608C594.423 568.608 595.511 569.56 595.511 571.005C595.511 572.501 594.423 573.47 593.097 573.47ZM593.097 575.17C595.358 575.17 597.262 573.521 597.262 571.005C597.262 568.489 595.358 566.891 593.097 566.891C590.853 566.891 588.966 568.489 588.966 571.005C588.966 573.521 590.853 575.17 593.097 575.17ZM604.372 571.328C604.372 572.909 603.352 573.47 602.332 573.47C601.38 573.47 600.683 572.79 600.683 571.481V567.061H598.932V571.685C598.915 573.946 600.054 575.17 602.009 575.17C602.842 575.17 603.913 574.745 604.372 573.844V575H606.123V567.061H604.372V571.328ZM608.376 575H610.127V562.743H608.376V575ZM618.544 575H620.278V562.743H618.544V568.2C618.051 567.333 616.997 566.891 615.858 566.891C613.716 566.891 611.897 568.489 611.897 571.039C611.897 573.538 613.716 575.17 615.858 575.17C616.946 575.17 618.051 574.711 618.544 573.844V575ZM618.51 571.005C618.51 572.552 617.371 573.47 616.079 573.47C614.77 573.47 613.699 572.467 613.699 571.005C613.699 569.543 614.77 568.591 616.079 568.591C617.252 568.591 618.51 569.458 618.51 571.005ZM628.443 571.005C628.443 569.458 629.684 568.591 630.874 568.591C632.2 568.591 633.271 569.543 633.271 571.005C633.271 572.467 632.2 573.47 630.874 573.47C629.582 573.47 628.443 572.552 628.443 571.005ZM628.426 575V573.844C628.919 574.711 629.99 575.17 631.078 575.17C633.203 575.17 635.056 573.538 635.056 571.039C635.056 568.489 633.254 566.891 631.095 566.891C629.956 566.891 628.919 567.333 628.426 568.2V562.743H626.675V575H628.426ZM644.379 571.005C644.379 568.489 642.645 566.891 640.401 566.891C638.157 566.891 636.321 568.489 636.321 571.005C636.321 573.521 638.157 575.17 640.401 575.17C641.88 575.17 643.393 574.541 644.073 573.13L642.645 572.501C642.237 573.232 641.37 573.64 640.486 573.64C639.194 573.64 638.242 572.875 638.055 571.651H644.362C644.379 571.464 644.379 571.192 644.379 571.005ZM638.055 570.376C638.242 569.152 639.177 568.421 640.401 568.421C641.608 568.421 642.475 569.135 642.662 570.376H638.055ZM656.323 575H658.057V562.743H656.323V568.2C655.83 567.333 654.776 566.891 653.637 566.891C651.495 566.891 649.676 568.489 649.676 571.039C649.676 573.538 651.495 575.17 653.637 575.17C654.725 575.17 655.83 574.711 656.323 573.844V575ZM656.289 571.005C656.289 572.552 655.15 573.47 653.858 573.47C652.549 573.47 651.478 572.467 651.478 571.005C651.478 569.543 652.549 568.591 653.858 568.591C655.031 568.591 656.289 569.458 656.289 571.005ZM663.946 573.47C662.637 573.47 661.549 572.501 661.549 571.005C661.549 569.56 662.637 568.608 663.946 568.608C665.272 568.608 666.36 569.56 666.36 571.005C666.36 572.501 665.272 573.47 663.946 573.47ZM663.946 575.17C666.207 575.17 668.111 573.521 668.111 571.005C668.111 568.489 666.207 566.891 663.946 566.891C661.702 566.891 659.815 568.489 659.815 571.005C659.815 573.521 661.702 575.17 663.946 575.17ZM671.601 567.061H669.867V575H671.601V567.061ZM669.561 563.848C669.561 564.477 670.105 564.953 670.734 564.953C671.397 564.953 671.89 564.477 671.89 563.848C671.89 563.219 671.397 562.743 670.734 562.743C670.105 562.743 669.561 563.219 669.561 563.848ZM675.614 570.733C675.614 569.169 676.617 568.608 677.654 568.608C678.674 568.608 679.32 569.305 679.32 570.58V575H681.071V570.376C681.071 568.115 679.966 566.891 678.045 566.891C677.178 566.891 676.073 567.35 675.614 568.251V567.061H673.863V575H675.614V570.733ZM689.426 571.039C689.426 572.603 688.168 573.487 686.978 573.487C685.652 573.487 684.564 572.535 684.564 571.039C684.564 569.594 685.652 568.591 686.978 568.591C688.287 568.591 689.426 569.458 689.426 571.039ZM684.581 576.003C684.258 576.139 683.459 576.598 683.136 576.734C683.884 578.162 685.261 578.961 686.808 578.961C689.477 578.961 691.177 577.482 691.177 573.827V567.061H689.46V568.234C688.967 567.367 687.862 566.891 686.774 566.891C684.632 566.891 682.762 568.54 682.762 571.056C682.762 573.572 684.632 575.17 686.774 575.17C687.845 575.17 689.018 574.694 689.46 573.793V574.201C689.46 576.428 688.423 577.329 686.808 577.329C685.941 577.329 685.006 576.836 684.581 576.003ZM556.935 598.144C556.935 596.036 557.564 594.54 559.06 594.54C559.4 594.54 559.774 594.591 560.233 594.812L560.522 593.197C560.267 593.01 559.672 592.891 559.111 592.891C558.108 592.891 557.343 593.452 556.935 594.88V593.061H555.184V601H556.935V598.144ZM563.521 593.061H561.787V601H563.521V593.061ZM561.481 589.848C561.481 590.477 562.025 590.953 562.654 590.953C563.317 590.953 563.81 590.477 563.81 589.848C563.81 589.219 563.317 588.743 562.654 588.743C562.025 588.743 561.481 589.219 561.481 589.848ZM571.955 597.039C571.955 598.603 570.697 599.487 569.507 599.487C568.181 599.487 567.093 598.535 567.093 597.039C567.093 595.594 568.181 594.591 569.507 594.591C570.816 594.591 571.955 595.458 571.955 597.039ZM567.11 602.003C566.787 602.139 565.988 602.598 565.665 602.734C566.413 604.162 567.79 604.961 569.337 604.961C572.006 604.961 573.706 603.482 573.706 599.827V593.061H571.989V594.234C571.496 593.367 570.391 592.891 569.303 592.891C567.161 592.891 565.291 594.54 565.291 597.056C565.291 599.572 567.161 601.17 569.303 601.17C570.374 601.17 571.547 600.694 571.989 599.793V600.201C571.989 602.428 570.952 603.329 569.337 603.329C568.47 603.329 567.535 602.836 567.11 602.003ZM577.724 596.733C577.724 595.169 578.931 594.608 579.934 594.608C580.937 594.608 581.702 595.339 581.702 596.58V601H583.453V596.478C583.453 594.217 582.28 592.891 580.24 592.891C579.407 592.891 578.183 593.299 577.724 594.268V588.743H575.973V601H577.724V596.733ZM587.994 590.052H586.243V593.061H584.815V594.506H586.243V601H587.994V594.506H589.677V593.061H587.994V590.052ZM596.686 596.733C596.686 595.169 597.689 594.608 598.726 594.608C599.746 594.608 600.392 595.305 600.392 596.58V601H602.143V596.376C602.143 594.115 601.038 592.891 599.117 592.891C598.25 592.891 597.145 593.35 596.686 594.251V593.061H594.935V601H596.686V596.733ZM607.948 599.47C606.639 599.47 605.551 598.501 605.551 597.005C605.551 595.56 606.639 594.608 607.948 594.608C609.274 594.608 610.362 595.56 610.362 597.005C610.362 598.501 609.274 599.47 607.948 599.47ZM607.948 601.17C610.209 601.17 612.113 599.521 612.113 597.005C612.113 594.489 610.209 592.891 607.948 592.891C605.704 592.891 603.817 594.489 603.817 597.005C603.817 599.521 605.704 601.17 607.948 601.17ZM625.633 593.061H623.763L621.91 598.416L620.074 593.061H618.442L616.606 598.416L614.77 593.061H612.9L615.892 601H617.32L619.258 595.373L621.281 601H622.726L625.633 593.061ZM629.853 596.971C629.853 596.172 630.278 595.883 630.975 595.679C632.301 595.271 633.389 594.115 633.389 592.466C633.389 590.426 631.791 589.151 629.87 589.151C627.966 589.151 626.47 590.528 626.47 592.704H628.153C628.153 591.565 628.935 590.885 629.87 590.885C630.822 590.885 631.655 591.514 631.655 592.466C631.655 592.925 631.434 593.418 630.975 593.741C629.36 594.812 628.119 594.659 628.119 596.971V597.838H629.819L629.853 596.971ZM627.779 600.014C627.779 600.677 628.323 601.153 628.986 601.153C629.649 601.153 630.193 600.677 630.193 600.014C630.193 599.351 629.649 598.858 628.986 598.858C628.323 598.858 627.779 599.351 627.779 600.014Z" fill="#0F0E17"/>
<path d="M594 477V511" stroke="#B4AD9F" stroke-width="3" stroke-miterlimit="0" stroke-linecap="round" stroke-linejoin="bevel"/>
<rect x="474" y="669" width="240" height="112" rx="16" fill="#DAD3C2" stroke="#B4AD9F" stroke-width="3" stroke-miterlimit="0"/>
<path d="M541.954 691.287V696.353H536.667V691.287H534.865V703H536.667V698.002H541.954V703H543.79V691.287H541.954ZM549.797 701.47C548.488 701.47 547.4 700.501 547.4 699.005C547.4 697.56 548.488 696.608 549.797 696.608C551.123 696.608 552.211 697.56 552.211 699.005C552.211 700.501 551.123 701.47 549.797 701.47ZM549.797 703.17C552.058 703.17 553.962 701.521 553.962 699.005C553.962 696.489 552.058 694.891 549.797 694.891C547.553 694.891 545.666 696.489 545.666 699.005C545.666 701.521 547.553 703.17 549.797 703.17ZM567.482 695.061H565.612L563.759 700.416L561.923 695.061H560.291L558.455 700.416L556.619 695.061H554.749L557.741 703H559.169L561.107 697.373L563.13 703H564.575L567.482 695.061ZM578.697 703H580.431V690.743H578.697V696.2C578.204 695.333 577.15 694.891 576.011 694.891C573.869 694.891 572.05 696.489 572.05 699.039C572.05 701.538 573.869 703.17 576.011 703.17C577.099 703.17 578.204 702.711 578.697 701.844V703ZM578.663 699.005C578.663 700.552 577.524 701.47 576.232 701.47C574.923 701.47 573.852 700.467 573.852 699.005C573.852 697.543 574.923 696.591 576.232 696.591C577.405 696.591 578.663 697.458 578.663 699.005ZM586.32 701.47C585.011 701.47 583.923 700.501 583.923 699.005C583.923 697.56 585.011 696.608 586.32 696.608C587.646 696.608 588.734 697.56 588.734 699.005C588.734 700.501 587.646 701.47 586.32 701.47ZM586.32 703.17C588.581 703.17 590.485 701.521 590.485 699.005C590.485 696.489 588.581 694.891 586.32 694.891C584.076 694.891 582.189 696.489 582.189 699.005C582.189 701.521 584.076 703.17 586.32 703.17ZM599.788 699.005C599.788 696.489 598.054 694.891 595.81 694.891C593.566 694.891 591.73 696.489 591.73 699.005C591.73 701.521 593.566 703.17 595.81 703.17C597.289 703.17 598.802 702.541 599.482 701.13L598.054 700.501C597.646 701.232 596.779 701.64 595.895 701.64C594.603 701.64 593.651 700.875 593.464 699.651H599.771C599.788 699.464 599.788 699.192 599.788 699.005ZM593.464 698.376C593.651 697.152 594.586 696.421 595.81 696.421C597.017 696.421 597.884 697.135 598.071 698.376H593.464ZM604.374 699.821C604.969 699.957 605.479 700.229 605.479 700.756C605.479 701.351 604.867 701.708 604.068 701.708C603.133 701.708 602.589 701.249 602.504 700.569H600.889C600.94 702.252 602.436 703.17 603.932 703.17C605.751 703.17 607.094 702.303 607.094 700.773C607.094 699.991 606.72 698.869 605.02 698.461L603.796 698.155C603.371 698.036 602.946 697.866 602.827 697.543C602.742 697.288 602.759 697.05 602.895 696.829C603.082 696.557 603.558 696.387 604.017 696.387C604.561 696.387 605.105 696.642 605.173 697.237H606.839C606.754 695.537 605.343 694.891 603.949 694.891C602.504 694.891 601.195 695.809 601.11 696.982C600.991 698.274 601.603 699.107 603.303 699.566L604.374 699.821ZM614.714 699.005C614.714 697.458 615.955 696.591 617.145 696.591C618.471 696.591 619.542 697.543 619.542 699.005C619.542 700.467 618.471 701.47 617.145 701.47C615.853 701.47 614.714 700.552 614.714 699.005ZM614.697 703V701.844C615.19 702.711 616.261 703.17 617.349 703.17C619.474 703.17 621.327 701.538 621.327 699.039C621.327 696.489 619.525 694.891 617.366 694.891C616.227 694.891 615.19 695.333 614.697 696.2V690.743H612.946V703H614.697ZM630.649 699.005C630.649 696.489 628.915 694.891 626.671 694.891C624.427 694.891 622.591 696.489 622.591 699.005C622.591 701.521 624.427 703.17 626.671 703.17C628.15 703.17 629.663 702.541 630.343 701.13L628.915 700.501C628.507 701.232 627.64 701.64 626.756 701.64C625.464 701.64 624.512 700.875 624.325 699.651H630.632C630.649 699.464 630.649 699.192 630.649 699.005ZM624.325 698.376C624.512 697.152 625.447 696.421 626.671 696.421C627.878 696.421 628.745 697.135 628.932 698.376H624.325ZM634.045 695.061H632.311V703H634.045V695.061ZM632.005 691.848C632.005 692.477 632.549 692.953 633.178 692.953C633.841 692.953 634.334 692.477 634.334 691.848C634.334 691.219 633.841 690.743 633.178 690.743C632.549 690.743 632.005 691.219 632.005 691.848ZM638.059 698.733C638.059 697.169 639.062 696.608 640.099 696.608C641.119 696.608 641.765 697.305 641.765 698.58V703H643.516V698.376C643.516 696.115 642.411 694.891 640.49 694.891C639.623 694.891 638.518 695.35 638.059 696.251V695.061H636.308V703H638.059V698.733ZM651.871 699.039C651.871 700.603 650.613 701.487 649.423 701.487C648.097 701.487 647.009 700.535 647.009 699.039C647.009 697.594 648.097 696.591 649.423 696.591C650.732 696.591 651.871 697.458 651.871 699.039ZM647.026 704.003C646.703 704.139 645.904 704.598 645.581 704.734C646.329 706.162 647.706 706.961 649.253 706.961C651.922 706.961 653.622 705.482 653.622 701.827V695.061H651.905V696.234C651.412 695.367 650.307 694.891 649.219 694.891C647.077 694.891 645.207 696.54 645.207 699.056C645.207 701.572 647.077 703.17 649.219 703.17C650.29 703.17 651.463 702.694 651.905 701.793V702.201C651.905 704.428 650.868 705.329 649.253 705.329C648.386 705.329 647.451 704.836 647.026 704.003ZM524.388 725.005C524.388 722.489 522.654 720.891 520.41 720.891C518.166 720.891 516.33 722.489 516.33 725.005C516.33 727.521 518.166 729.17 520.41 729.17C521.889 729.17 523.402 728.541 524.082 727.13L522.654 726.501C522.246 727.232 521.379 727.64 520.495 727.64C519.203 727.64 518.251 726.875 518.064 725.651H524.371C524.388 725.464 524.388 725.192 524.388 725.005ZM518.064 724.376C518.251 723.152 519.186 722.421 520.41 722.421C521.617 722.421 522.484 723.135 522.671 724.376H518.064ZM527.8 724.733C527.8 723.169 528.803 722.608 529.84 722.608C530.86 722.608 531.506 723.305 531.506 724.58V729H533.257V724.376C533.257 722.115 532.152 720.891 530.231 720.891C529.364 720.891 528.259 721.35 527.8 722.251V721.061H526.049V729H527.8V724.733ZM537.821 718.052H536.07V721.061H534.642V722.506H536.07V729H537.821V722.506H539.504V721.061H537.821V718.052ZM548.397 725.005C548.397 722.489 546.663 720.891 544.419 720.891C542.175 720.891 540.339 722.489 540.339 725.005C540.339 727.521 542.175 729.17 544.419 729.17C545.898 729.17 547.411 728.541 548.091 727.13L546.663 726.501C546.255 727.232 545.388 727.64 544.504 727.64C543.212 727.64 542.26 726.875 542.073 725.651H548.38C548.397 725.464 548.397 725.192 548.397 725.005ZM542.073 724.376C542.26 723.152 543.195 722.421 544.419 722.421C545.626 722.421 546.493 723.135 546.68 724.376H542.073ZM551.81 726.144C551.81 724.036 552.439 722.54 553.935 722.54C554.275 722.54 554.649 722.591 555.108 722.812L555.397 721.197C555.142 721.01 554.547 720.891 553.986 720.891C552.983 720.891 552.218 721.452 551.81 722.88V721.061H550.059V729H551.81V726.144ZM559.042 718.052H557.291V721.061H555.863V722.506H557.291V729H559.042V722.506H560.725V721.061H559.042V718.052ZM568.257 729H569.991V721.061H568.257V722.183C567.713 721.282 566.54 720.891 565.588 720.891C563.463 720.891 561.559 722.489 561.559 725.022C561.559 727.555 563.463 729.17 565.588 729.17C566.608 729.17 567.713 728.728 568.257 727.861V729ZM563.361 725.005C563.361 723.543 564.483 722.591 565.792 722.591C566.982 722.591 568.24 723.458 568.24 725.005C568.24 726.569 567.084 727.47 565.792 727.47C564.483 727.47 563.361 726.467 563.361 725.005ZM573.992 721.061H572.258V729H573.992V721.061ZM571.952 717.848C571.952 718.477 572.496 718.953 573.125 718.953C573.788 718.953 574.281 718.477 574.281 717.848C574.281 717.219 573.788 716.743 573.125 716.743C572.496 716.743 571.952 717.219 571.952 717.848ZM578.006 724.733C578.006 723.169 579.009 722.608 580.046 722.608C581.066 722.608 581.712 723.305 581.712 724.58V729H583.463V724.376C583.463 722.115 582.358 720.891 580.437 720.891C579.57 720.891 578.465 721.35 578.006 722.251V721.061H576.255V729H578.006V724.733ZM593.195 725.005C593.195 722.489 591.461 720.891 589.217 720.891C586.973 720.891 585.137 722.489 585.137 725.005C585.137 727.521 586.973 729.17 589.217 729.17C590.696 729.17 592.209 728.541 592.889 727.13L591.461 726.501C591.053 727.232 590.186 727.64 589.302 727.64C588.01 727.64 587.058 726.875 586.871 725.651H593.178C593.195 725.464 593.195 725.192 593.195 725.005ZM586.871 724.376C587.058 723.152 587.993 722.421 589.217 722.421C590.424 722.421 591.291 723.135 591.478 724.376H586.871ZM601.011 729H602.745V716.743H601.011V722.2C600.518 721.333 599.464 720.891 598.325 720.891C596.183 720.891 594.364 722.489 594.364 725.039C594.364 727.538 596.183 729.17 598.325 729.17C599.413 729.17 600.518 728.711 601.011 727.844V729ZM600.977 725.005C600.977 726.552 599.838 727.47 598.546 727.47C597.237 727.47 596.166 726.467 596.166 725.005C596.166 723.543 597.237 722.591 598.546 722.591C599.719 722.591 600.977 723.458 600.977 725.005ZM610.893 724.733C610.893 723.169 612.1 722.608 613.103 722.608C614.106 722.608 614.871 723.339 614.871 724.58V729H616.622V724.478C616.622 722.217 615.449 720.891 613.409 720.891C612.576 720.891 611.352 721.299 610.893 722.268V716.743H609.142V729H610.893V724.733ZM626.331 725.005C626.331 722.489 624.597 720.891 622.353 720.891C620.109 720.891 618.273 722.489 618.273 725.005C618.273 727.521 620.109 729.17 622.353 729.17C623.832 729.17 625.345 728.541 626.025 727.13L624.597 726.501C624.189 727.232 623.322 727.64 622.438 727.64C621.146 727.64 620.194 726.875 620.007 725.651H626.314C626.331 725.464 626.331 725.192 626.331 725.005ZM620.007 724.376C620.194 723.152 621.129 722.421 622.353 722.421C623.56 722.421 624.427 723.135 624.614 724.376H620.007ZM627.992 729H629.743V716.743H627.992V729ZM633.757 721.061H632.006V732.859H633.757V727.861C634.25 728.745 635.321 729.17 636.409 729.17C638.551 729.17 640.353 727.572 640.353 725.039C640.353 722.54 638.551 720.891 636.409 720.891C635.321 720.891 634.25 721.367 633.757 722.234V721.061ZM633.774 725.073C633.774 723.526 634.896 722.591 636.188 722.591C637.497 722.591 638.568 723.594 638.568 725.073C638.568 726.535 637.497 727.487 636.188 727.487C634.964 727.487 633.774 726.654 633.774 725.073ZM653.432 721.061H651.562L649.335 726.501L647.125 721.061H645.255L648.4 728.626L646.683 732.876H648.519L653.432 721.061ZM658.142 727.47C656.833 727.47 655.745 726.501 655.745 725.005C655.745 723.56 656.833 722.608 658.142 722.608C659.468 722.608 660.556 723.56 660.556 725.005C660.556 726.501 659.468 727.47 658.142 727.47ZM658.142 729.17C660.403 729.17 662.307 727.521 662.307 725.005C662.307 722.489 660.403 720.891 658.142 720.891C655.898 720.891 654.011 722.489 654.011 725.005C654.011 727.521 655.898 729.17 658.142 729.17ZM669.417 725.328C669.417 726.909 668.397 727.47 667.377 727.47C666.425 727.47 665.728 726.79 665.728 725.481V721.061H663.977V725.685C663.96 727.946 665.099 729.17 667.054 729.17C667.887 729.17 668.958 728.745 669.417 727.844V729H671.168V721.061H669.417V725.328ZM569.206 747.061H567.336L565.483 752.416L563.647 747.061H562.015L560.179 752.416L558.343 747.061H556.473L559.465 755H560.893L562.831 749.373L564.854 755H566.299L569.206 747.061ZM572.287 747.061H570.553V755H572.287V747.061ZM570.247 743.848C570.247 744.477 570.791 744.953 571.42 744.953C572.083 744.953 572.576 744.477 572.576 743.848C572.576 743.219 572.083 742.743 571.42 742.743C570.791 742.743 570.247 743.219 570.247 743.848ZM576.929 744.052H575.178V747.061H573.75V748.506H575.178V755H576.929V748.506H578.612V747.061H576.929V744.052ZM581.824 750.733C581.824 749.169 583.031 748.608 584.034 748.608C585.037 748.608 585.802 749.339 585.802 750.58V755H587.553V750.478C587.553 748.217 586.38 746.891 584.34 746.891C583.507 746.891 582.283 747.299 581.824 748.268V742.743H580.073V755H581.824V750.733ZM596.224 744.052H594.473V747.061H593.045V748.506H594.473V755H596.224V748.506H597.907V747.061H596.224V744.052ZM601.119 750.733C601.119 749.169 602.326 748.608 603.329 748.608C604.332 748.608 605.097 749.339 605.097 750.58V755H606.848V750.478C606.848 748.217 605.675 746.891 603.635 746.891C602.802 746.891 601.578 747.299 601.119 748.268V742.743H599.368V755H601.119V750.733ZM615.197 755H616.931V747.061H615.197V748.183C614.653 747.282 613.48 746.891 612.528 746.891C610.403 746.891 608.499 748.489 608.499 751.022C608.499 753.555 610.403 755.17 612.528 755.17C613.548 755.17 614.653 754.728 615.197 753.861V755ZM610.301 751.005C610.301 749.543 611.423 748.591 612.732 748.591C613.922 748.591 615.18 749.458 615.18 751.005C615.18 752.569 614.024 753.47 612.732 753.47C611.423 753.47 610.301 752.467 610.301 751.005ZM621.578 744.052H619.827V747.061H618.399V748.506H619.827V755H621.578V748.506H623.261V747.061H621.578V744.052ZM627.595 750.971C627.595 750.172 628.02 749.883 628.717 749.679C630.043 749.271 631.131 748.115 631.131 746.466C631.131 744.426 629.533 743.151 627.612 743.151C625.708 743.151 624.212 744.528 624.212 746.704H625.895C625.895 745.565 626.677 744.885 627.612 744.885C628.564 744.885 629.397 745.514 629.397 746.466C629.397 746.925 629.176 747.418 628.717 747.741C627.102 748.812 625.861 748.659 625.861 750.971V751.838H627.561L627.595 750.971ZM625.521 754.014C625.521 754.677 626.065 755.153 626.728 755.153C627.391 755.153 627.935 754.677 627.935 754.014C627.935 753.351 627.391 752.858 626.728 752.858C626.065 752.858 625.521 753.351 625.521 754.014Z" fill="#0F0E17"/>
<path d="M594 631V665" stroke="#B4AD9F" stroke-width="3" stroke-miterlimit="0" stroke-linecap="round" stroke-linejoin="bevel"/>
<path d="M358 188V202C358 215.255 347.255 226 334 226H146C132.745 226 122 236.745 122 250V259" stroke="#B4AD9F" stroke-width="3" stroke-miterlimit="0" stroke-linecap="round" stroke-linejoin="bevel"/>
<path d="M358 188V202C358 215.255 368.745 226 382 226H570C583.255 226 594 236.745 594 250V259" stroke="#B4AD9F" stroke-width="3" stroke-miterlimit="0" stroke-linecap="round" stroke-linejoin="bevel"/>
<path d="M341.945 789.161C351.072 780.946 364.928 780.946 374.055 789.161L470.055 873.161C480.648 882.695 480.648 899.305 470.055 908.839L374.055 992.839C364.928 1001.05 351.072 1001.05 341.945 992.839L245.945 908.839C235.352 899.305 235.352 882.695 245.945 873.161L341.945 789.161Z" fill="#0F0E17"/>
<path d="M320.456 859.548H322.564C324.417 859.548 325.369 861.231 325.369 863.169C325.369 865.09 324.417 866.739 322.564 866.739H320.456V859.548ZM322.564 869C325.913 869 327.851 866.501 327.851 863.169C327.851 859.837 325.913 857.287 322.564 857.287H317.974V869H322.564ZM333.073 866.824C332.104 866.824 331.288 866.11 331.288 865.005C331.288 863.917 332.104 863.203 333.073 863.203C334.076 863.203 334.875 863.917 334.875 865.005C334.875 866.11 334.076 866.824 333.073 866.824ZM333.073 869.136C335.317 869.136 337.204 867.504 337.204 865.005C337.204 862.489 335.317 860.891 333.073 860.891C330.812 860.891 328.959 862.489 328.959 865.005C328.959 867.504 330.812 869.136 333.073 869.136ZM350.188 861.061H347.672L345.904 865.566L344.153 861.061H341.637L344.697 868.184L342.793 872.893H345.292L350.188 861.061ZM354.625 866.824C353.656 866.824 352.84 866.11 352.84 865.005C352.84 863.917 353.656 863.203 354.625 863.203C355.628 863.203 356.427 863.917 356.427 865.005C356.427 866.11 355.628 866.824 354.625 866.824ZM354.625 869.136C356.869 869.136 358.756 867.504 358.756 865.005C358.756 862.489 356.869 860.891 354.625 860.891C352.364 860.891 350.511 862.489 350.511 865.005C350.511 867.504 352.364 869.136 354.625 869.136ZM365.38 865.26C365.38 866.467 364.683 866.875 363.952 866.875C363.408 866.875 362.541 866.569 362.541 865.294V861.061H360.178V865.804C360.178 868.065 361.538 869.17 363.323 869.17C364.088 869.17 364.955 868.711 365.38 867.912V869H367.743V861.061H365.38V865.26ZM376.795 866.008C377.39 866.161 377.577 866.348 377.577 866.688C377.577 867.096 377.135 867.334 376.608 867.351C375.945 867.351 375.452 866.892 375.435 866.433H373.225C373.225 868.201 374.942 869.17 376.54 869.17C378.206 869.17 379.974 868.371 379.974 866.688C379.974 866.161 379.736 864.92 377.815 864.376L376.472 864.019C375.996 863.9 375.792 863.679 375.775 863.424C375.758 863.067 376.081 862.829 376.608 862.829C376.999 862.829 377.492 862.931 377.509 863.526H379.736C379.736 861.571 378.036 860.891 376.472 860.891C374.806 860.891 373.378 861.979 373.378 863.152C373.378 863.883 373.361 865.107 375.758 865.736L376.795 866.008ZM384.544 861.061V858.018H382.198V861.061H380.753V862.931H382.198V869H384.544V862.931H386.21V861.061H384.544ZM389.818 861.061H387.472V869H389.818V861.061ZM387.166 858.12C387.166 858.885 387.846 859.514 388.645 859.514C389.461 859.514 390.09 858.885 390.09 858.12C390.09 857.321 389.444 856.743 388.645 856.743C387.846 856.743 387.166 857.338 387.166 858.12ZM391.8 856.743V869H394.163V856.743H391.8ZM396.146 856.743V869H398.509V856.743H396.146ZM320.933 887.061H318.417L317.006 891.787L315.612 887.061H313.589L312.195 891.787L310.784 887.061H308.268L311.141 895H313.113L314.609 889.951L316.173 895H318.145L320.933 887.061ZM327.765 895H330.111V887.061H327.765V887.945C327.119 887.078 325.98 886.891 325.453 886.891C323.43 886.891 321.407 888.489 321.407 891.022C321.407 893.555 323.43 895.153 325.453 895.153C326.048 895.153 327.272 894.847 327.765 894.099V895ZM323.855 891.022C323.855 889.883 324.841 889.135 325.844 889.135C326.813 889.135 327.765 889.849 327.765 891.022C327.765 892.212 326.813 892.909 325.844 892.909C324.841 892.909 323.855 892.161 323.855 891.022ZM334.468 890.801C334.468 889.594 335.097 889.186 335.93 889.186C336.729 889.186 337.307 889.696 337.307 890.767V895H339.67V890.257C339.67 887.996 338.548 886.891 336.763 886.891C335.811 886.891 334.893 887.418 334.468 888.217V887.061H332.105V895H334.468V890.801ZM344.674 887.061V884.018H342.328V887.061H340.883V888.931H342.328V895H344.674V888.931H346.34V887.061H344.674ZM354.328 887.061V884.018H351.982V887.061H350.537V888.931H351.982V895H354.328V888.931H355.994V887.061H354.328ZM360.778 892.824C359.809 892.824 358.993 892.11 358.993 891.005C358.993 889.917 359.809 889.203 360.778 889.203C361.781 889.203 362.58 889.917 362.58 891.005C362.58 892.11 361.781 892.824 360.778 892.824ZM360.778 895.136C363.022 895.136 364.909 893.504 364.909 891.005C364.909 888.489 363.022 886.891 360.778 886.891C358.517 886.891 356.664 888.489 356.664 891.005C356.664 893.504 358.517 895.136 360.778 895.136ZM376.193 891.005C376.193 892.178 375.241 892.943 374.272 892.943C373.252 892.943 372.368 892.178 372.368 891.005C372.368 889.883 373.252 889.135 374.272 889.135C375.258 889.135 376.193 889.832 376.193 891.005ZM370.141 896.496C370.821 897.975 372.3 898.961 374.051 898.961C376.856 898.961 378.539 897.312 378.539 893.895V887.061H376.244V888.047C375.836 887.333 374.85 886.891 373.864 886.891C371.824 886.891 369.903 888.506 369.903 891.056C369.903 893.572 371.824 895.17 373.864 895.17C374.867 895.17 375.853 894.745 376.244 894.014C376.329 895.578 375.87 896.836 374.051 896.836C373.252 896.836 372.317 896.309 372.045 895.561L370.141 896.496ZM384.173 892.824C383.204 892.824 382.388 892.11 382.388 891.005C382.388 889.917 383.204 889.203 384.173 889.203C385.176 889.203 385.975 889.917 385.975 891.005C385.975 892.11 385.176 892.824 384.173 892.824ZM384.173 895.136C386.417 895.136 388.304 893.504 388.304 891.005C388.304 888.489 386.417 886.891 384.173 886.891C381.912 886.891 380.059 888.489 380.059 891.005C380.059 893.504 381.912 895.136 384.173 895.136ZM396.868 887.061V884.018H394.522V887.061H393.077V888.931H394.522V895H396.868V888.931H398.534V887.061H396.868ZM403.318 892.824C402.349 892.824 401.533 892.11 401.533 891.005C401.533 889.917 402.349 889.203 403.318 889.203C404.321 889.203 405.12 889.917 405.12 891.005C405.12 892.11 404.321 892.824 403.318 892.824ZM403.318 895.136C405.562 895.136 407.449 893.504 407.449 891.005C407.449 888.489 405.562 886.891 403.318 886.891C401.057 886.891 399.204 888.489 399.204 891.005C399.204 893.504 401.057 895.136 403.318 895.136ZM320.363 924.893H324.29V923.142H322.369V911.004H324.29V909.287H320.363V924.893ZM337.231 913.061H334.715L333.304 917.787L331.91 913.061H329.887L328.493 917.787L327.082 913.061H324.566L327.439 921H329.411L330.907 915.951L332.471 921H334.443L337.231 913.061ZM343.757 918.382C343.366 918.909 342.686 919.13 342.023 919.13C341.173 919.13 340.204 918.722 340.068 917.804H345.882C345.899 917.6 345.916 917.277 345.916 917.073C345.916 914.574 344.114 912.891 341.853 912.891C339.592 912.891 337.705 914.489 337.705 917.005C337.705 919.504 339.592 921.17 341.853 921.17C343.213 921.17 344.658 920.745 345.474 919.555L343.757 918.382ZM340.102 916.325C340.289 915.305 341.224 914.965 341.87 914.965C342.55 914.965 343.4 915.356 343.536 916.325H340.102ZM349.738 917.005C349.738 915.832 350.622 915.118 351.574 915.118C352.594 915.118 353.41 915.849 353.41 917.005C353.41 918.178 352.577 918.926 351.574 918.926C350.571 918.926 349.738 918.161 349.738 917.005ZM349.687 921V920.014C350.078 920.745 351.013 921.17 352.016 921.17C354.056 921.17 355.858 919.572 355.858 917.056C355.858 914.506 354.056 912.891 352.016 912.891C351.013 912.891 350.078 913.299 349.687 914.03V908.743H347.341V921H349.687ZM360.474 918.008C361.069 918.161 361.256 918.348 361.256 918.688C361.256 919.096 360.814 919.334 360.287 919.351C359.624 919.351 359.131 918.892 359.114 918.433H356.904C356.904 920.201 358.621 921.17 360.219 921.17C361.885 921.17 363.653 920.371 363.653 918.688C363.653 918.161 363.415 916.92 361.494 916.376L360.151 916.019C359.675 915.9 359.471 915.679 359.454 915.424C359.437 915.067 359.76 914.829 360.287 914.829C360.678 914.829 361.171 914.931 361.188 915.526H363.415C363.415 913.571 361.715 912.891 360.151 912.891C358.485 912.891 357.057 913.979 357.057 915.152C357.057 915.883 357.04 917.107 359.437 917.736L360.474 918.008ZM367.475 913.061H365.129V921H367.475V913.061ZM364.823 910.12C364.823 910.885 365.503 911.514 366.302 911.514C367.118 911.514 367.747 910.885 367.747 910.12C367.747 909.321 367.101 908.743 366.302 908.743C365.503 908.743 364.823 909.338 364.823 910.12ZM372.551 913.061V910.018H370.205V913.061H368.76V914.931H370.205V921H372.551V914.931H374.217V913.061H372.551ZM380.939 918.382C380.548 918.909 379.868 919.13 379.205 919.13C378.355 919.13 377.386 918.722 377.25 917.804H383.064C383.081 917.6 383.098 917.277 383.098 917.073C383.098 914.574 381.296 912.891 379.035 912.891C376.774 912.891 374.887 914.489 374.887 917.005C374.887 919.504 376.774 921.17 379.035 921.17C380.395 921.17 381.84 920.745 382.656 919.555L380.939 918.382ZM377.284 916.325C377.471 915.305 378.406 914.965 379.052 914.965C379.732 914.965 380.582 915.356 380.718 916.325H377.284ZM387.392 909.287H383.465V911.004H385.386V923.142H383.465V924.893H387.392V909.287ZM393.102 917.09C393.102 916.291 393.289 915.883 393.986 915.679C395.329 915.271 396.264 914.115 396.264 912.466C396.264 910.426 394.802 909.151 392.677 909.151C390.552 909.151 389.09 910.528 389.09 912.704H391.47C391.47 911.973 391.946 911.531 392.677 911.531C393.408 911.531 393.884 911.922 393.884 912.449C393.884 912.84 393.85 913.061 393.255 913.384L392.575 913.673C390.756 914.438 390.722 915.271 390.722 917.09L390.756 917.464H393.068L393.102 917.09ZM390.484 919.742C390.484 920.575 391.147 921.17 391.946 921.17C392.745 921.17 393.425 920.575 393.425 919.742C393.425 918.926 392.745 918.331 391.946 918.331C391.147 918.331 390.484 918.926 390.484 919.742Z" fill="#F9F4EF"/>
<path d="M594 785V867C594 880.255 583.255 891 570 891H482" stroke="#B4AD9F" stroke-width="3" stroke-miterlimit="0" stroke-linecap="round" stroke-linejoin="bevel"/>
<path d="M122 599V867C122 880.255 132.745 891 146 891H234" stroke="#B4AD9F" stroke-width="3" stroke-miterlimit="0" stroke-linecap="round" stroke-linejoin="bevel"/>
<rect x="206" y="1060" width="304" height="88" rx="16" fill="#DAD3C2" stroke="#B4AD9F" stroke-width="3" stroke-miterlimit="0"/>
<path d="M247.515 1096.29V1101.35H242.228V1096.29H240.426V1108H242.228V1103H247.515V1108H249.351V1096.29H247.515ZM255.358 1106.47C254.049 1106.47 252.961 1105.5 252.961 1104C252.961 1102.56 254.049 1101.61 255.358 1101.61C256.684 1101.61 257.772 1102.56 257.772 1104C257.772 1105.5 256.684 1106.47 255.358 1106.47ZM255.358 1108.17C257.619 1108.17 259.523 1106.52 259.523 1104C259.523 1101.49 257.619 1099.89 255.358 1099.89C253.114 1099.89 251.227 1101.49 251.227 1104C251.227 1106.52 253.114 1108.17 255.358 1108.17ZM273.042 1100.06H271.172L269.319 1105.42L267.483 1100.06H265.851L264.015 1105.42L262.179 1100.06H260.309L263.301 1108H264.729L266.667 1102.37L268.69 1108H270.135L273.042 1100.06ZM278.103 1108H279.854V1095.74H278.103V1108ZM285.737 1106.47C284.428 1106.47 283.34 1105.5 283.34 1104C283.34 1102.56 284.428 1101.61 285.737 1101.61C287.063 1101.61 288.151 1102.56 288.151 1104C288.151 1105.5 287.063 1106.47 285.737 1106.47ZM285.737 1108.17C287.998 1108.17 289.902 1106.52 289.902 1104C289.902 1101.49 287.998 1099.89 285.737 1099.89C283.493 1099.89 281.606 1101.49 281.606 1104C281.606 1106.52 283.493 1108.17 285.737 1108.17ZM293.409 1103.73C293.409 1102.17 294.412 1101.61 295.449 1101.61C296.469 1101.61 297.115 1102.3 297.115 1103.58V1108H298.866V1103.38C298.866 1101.11 297.761 1099.89 295.84 1099.89C294.973 1099.89 293.868 1100.35 293.409 1101.25V1100.06H291.658V1108H293.409V1103.73ZM307.221 1104.04C307.221 1105.6 305.963 1106.49 304.773 1106.49C303.447 1106.49 302.359 1105.53 302.359 1104.04C302.359 1102.59 303.447 1101.59 304.773 1101.59C306.082 1101.59 307.221 1102.46 307.221 1104.04ZM302.376 1109C302.053 1109.14 301.254 1109.6 300.931 1109.73C301.679 1111.16 303.056 1111.96 304.603 1111.96C307.272 1111.96 308.972 1110.48 308.972 1106.83V1100.06H307.255V1101.23C306.762 1100.37 305.657 1099.89 304.569 1099.89C302.427 1099.89 300.557 1101.54 300.557 1104.06C300.557 1106.57 302.427 1108.17 304.569 1108.17C305.64 1108.17 306.813 1107.69 307.255 1106.79V1107.2C307.255 1109.43 306.218 1110.33 304.603 1110.33C303.736 1110.33 302.801 1109.84 302.376 1109ZM321.522 1108H323.256V1095.74H321.522V1101.2C321.029 1100.33 319.975 1099.89 318.836 1099.89C316.694 1099.89 314.875 1101.49 314.875 1104.04C314.875 1106.54 316.694 1108.17 318.836 1108.17C319.924 1108.17 321.029 1107.71 321.522 1106.84V1108ZM321.488 1104C321.488 1105.55 320.349 1106.47 319.057 1106.47C317.748 1106.47 316.677 1105.47 316.677 1104C316.677 1102.54 317.748 1101.59 319.057 1101.59C320.23 1101.59 321.488 1102.46 321.488 1104ZM329.145 1106.47C327.836 1106.47 326.748 1105.5 326.748 1104C326.748 1102.56 327.836 1101.61 329.145 1101.61C330.471 1101.61 331.559 1102.56 331.559 1104C331.559 1105.5 330.471 1106.47 329.145 1106.47ZM329.145 1108.17C331.406 1108.17 333.31 1106.52 333.31 1104C333.31 1101.49 331.406 1099.89 329.145 1099.89C326.901 1099.89 325.014 1101.49 325.014 1104C325.014 1106.52 326.901 1108.17 329.145 1108.17ZM346.369 1100.06H344.499L342.272 1105.5L340.062 1100.06H338.192L341.337 1107.63L339.62 1111.88H341.456L346.369 1100.06ZM351.079 1106.47C349.77 1106.47 348.682 1105.5 348.682 1104C348.682 1102.56 349.77 1101.61 351.079 1101.61C352.405 1101.61 353.493 1102.56 353.493 1104C353.493 1105.5 352.405 1106.47 351.079 1106.47ZM351.079 1108.17C353.34 1108.17 355.244 1106.52 355.244 1104C355.244 1101.49 353.34 1099.89 351.079 1099.89C348.835 1099.89 346.948 1101.49 346.948 1104C346.948 1106.52 348.835 1108.17 351.079 1108.17ZM362.355 1104.33C362.355 1105.91 361.335 1106.47 360.315 1106.47C359.363 1106.47 358.666 1105.79 358.666 1104.48V1100.06H356.915V1104.68C356.898 1106.95 358.037 1108.17 359.992 1108.17C360.825 1108.17 361.896 1107.74 362.355 1106.84V1108H364.106V1100.06H362.355V1104.33ZM372.868 1097.05H371.117V1100.06H369.689V1101.51H371.117V1108H372.868V1101.51H374.551V1100.06H372.868V1097.05ZM377.763 1103.73C377.763 1102.17 378.97 1101.61 379.973 1101.61C380.976 1101.61 381.741 1102.34 381.741 1103.58V1108H383.492V1103.48C383.492 1101.22 382.319 1099.89 380.279 1099.89C379.446 1099.89 378.222 1100.3 377.763 1101.27V1095.74H376.012V1108H377.763V1103.73ZM387.387 1100.06H385.653V1108H387.387V1100.06ZM385.347 1096.85C385.347 1097.48 385.891 1097.95 386.52 1097.95C387.183 1097.95 387.676 1097.48 387.676 1096.85C387.676 1096.22 387.183 1095.74 386.52 1095.74C385.891 1095.74 385.347 1096.22 385.347 1096.85ZM391.401 1103.73C391.401 1102.17 392.404 1101.61 393.441 1101.61C394.461 1101.61 395.107 1102.3 395.107 1103.58V1108H396.858V1103.38C396.858 1101.11 395.753 1099.89 393.832 1099.89C392.965 1099.89 391.86 1100.35 391.401 1101.25V1100.06H389.65V1108H391.401V1103.73ZM404.159 1108H406.403L402.255 1103.51L405.638 1100.06H403.292L400.776 1102.68V1095.74H399.042V1108H400.776V1104.31L404.159 1108ZM413.318 1100.06H411.584V1108H413.318V1100.06ZM411.278 1096.85C411.278 1097.48 411.822 1097.95 412.451 1097.95C413.114 1097.95 413.607 1097.48 413.607 1096.85C413.607 1096.22 413.114 1095.74 412.451 1095.74C411.822 1095.74 411.278 1096.22 411.278 1096.85ZM417.961 1097.05H416.21V1100.06H414.782V1101.51H416.21V1108H417.961V1101.51H419.644V1100.06H417.961V1097.05ZM421.529 1100.45C422.26 1099.86 423.246 1098.26 423.382 1096.29H421.835C421.852 1097.97 421.257 1099.18 420.628 1100.08L421.529 1100.45ZM425.151 1108H426.902V1095.74H425.151V1108ZM429.164 1108H430.915V1095.74H429.164V1108ZM439.687 1097.05H437.936V1100.06H436.508V1101.51H437.936V1108H439.687V1101.51H441.37V1100.06H439.687V1097.05ZM448.902 1108H450.636V1100.06H448.902V1101.18C448.358 1100.28 447.185 1099.89 446.233 1099.89C444.108 1099.89 442.204 1101.49 442.204 1104.02C442.204 1106.55 444.108 1108.17 446.233 1108.17C447.253 1108.17 448.358 1107.73 448.902 1106.86V1108ZM444.006 1104C444.006 1102.54 445.128 1101.59 446.437 1101.59C447.627 1101.59 448.885 1102.46 448.885 1104C448.885 1105.57 447.729 1106.47 446.437 1106.47C445.128 1106.47 444.006 1105.47 444.006 1104ZM458.02 1108H460.264L456.116 1103.51L459.499 1100.06H457.153L454.637 1102.68V1095.74H452.903V1108H454.637V1104.31L458.02 1108ZM468.383 1104C468.383 1101.49 466.649 1099.89 464.405 1099.89C462.161 1099.89 460.325 1101.49 460.325 1104C460.325 1106.52 462.161 1108.17 464.405 1108.17C465.884 1108.17 467.397 1107.54 468.077 1106.13L466.649 1105.5C466.241 1106.23 465.374 1106.64 464.49 1106.64C463.198 1106.64 462.246 1105.88 462.059 1104.65H468.366C468.383 1104.46 468.383 1104.19 468.383 1104ZM462.059 1103.38C462.246 1102.15 463.181 1101.42 464.405 1101.42C465.612 1101.42 466.479 1102.13 466.666 1103.38H462.059ZM472.917 1103.97C472.917 1103.17 473.342 1102.88 474.039 1102.68C475.365 1102.27 476.453 1101.11 476.453 1099.47C476.453 1097.43 474.855 1096.15 472.934 1096.15C471.03 1096.15 469.534 1097.53 469.534 1099.7H471.217C471.217 1098.56 471.999 1097.88 472.934 1097.88C473.886 1097.88 474.719 1098.51 474.719 1099.47C474.719 1099.92 474.498 1100.42 474.039 1100.74C472.424 1101.81 471.183 1101.66 471.183 1103.97V1104.84H472.883L472.917 1103.97ZM470.843 1107.01C470.843 1107.68 471.387 1108.15 472.05 1108.15C472.713 1108.15 473.257 1107.68 473.257 1107.01C473.257 1106.35 472.713 1105.86 472.05 1105.86C471.387 1105.86 470.843 1106.35 470.843 1107.01Z" fill="#0F0E17"/>
<path d="M358 1003V1056" stroke="#B4AD9F" stroke-width="3" stroke-miterlimit="0" stroke-linecap="round" stroke-linejoin="bevel"/>
<rect x="206" y="1209" width="304" height="88" rx="44" fill="#0F0E17"/>
<path d="M248.191 1233.8C247.171 1232.78 245.743 1232.15 244.111 1232.15C240.779 1232.15 238.178 1234.85 238.178 1238.17C238.178 1241.5 240.779 1244.17 244.111 1244.17C247.46 1244.17 249.704 1242.23 249.704 1238.05H244.349V1239.6H247.63C247.545 1241.35 246.015 1242.47 244.111 1242.47C241.782 1242.47 239.98 1240.53 239.98 1238.17C239.98 1235.81 241.782 1233.87 244.111 1233.87C245.199 1233.87 246.134 1234.29 246.865 1234.97L248.191 1233.8ZM253 1241.14C253 1239.04 253.629 1237.54 255.125 1237.54C255.465 1237.54 255.839 1237.59 256.298 1237.81L256.587 1236.2C256.332 1236.01 255.737 1235.89 255.176 1235.89C254.173 1235.89 253.408 1236.45 253 1237.88V1236.06H251.249V1244H253V1241.14ZM265.234 1240C265.234 1237.49 263.5 1235.89 261.256 1235.89C259.012 1235.89 257.176 1237.49 257.176 1240C257.176 1242.52 259.012 1244.17 261.256 1244.17C262.735 1244.17 264.248 1243.54 264.928 1242.13L263.5 1241.5C263.092 1242.23 262.225 1242.64 261.341 1242.64C260.049 1242.64 259.097 1241.88 258.91 1240.65H265.217C265.234 1240.46 265.234 1240.19 265.234 1240ZM258.91 1239.38C259.097 1238.15 260.032 1237.42 261.256 1237.42C262.463 1237.42 263.33 1238.13 263.517 1239.38H258.91ZM273.083 1244H274.817V1236.06H273.083V1237.18C272.539 1236.28 271.366 1235.89 270.414 1235.89C268.289 1235.89 266.385 1237.49 266.385 1240.02C266.385 1242.55 268.289 1244.17 270.414 1244.17C271.434 1244.17 272.539 1243.73 273.083 1242.86V1244ZM268.187 1240C268.187 1238.54 269.309 1237.59 270.618 1237.59C271.808 1237.59 273.066 1238.46 273.066 1240C273.066 1241.57 271.91 1242.47 270.618 1242.47C269.309 1242.47 268.187 1241.47 268.187 1240ZM279.464 1233.05H277.713V1236.06H276.285V1237.51H277.713V1244H279.464V1237.51H281.147V1236.06H279.464V1233.05ZM284.58 1232.29H282.693L282.948 1240.85H284.342L284.58 1232.29ZM282.455 1243.01C282.455 1243.68 282.999 1244.15 283.662 1244.15C284.325 1244.15 284.869 1243.68 284.869 1243.01C284.869 1242.35 284.325 1241.86 283.662 1241.86C282.999 1241.86 282.455 1242.35 282.455 1243.01ZM291.406 1244H293.208V1232.29H291.406V1244ZM296.202 1236.45C296.933 1235.86 297.919 1234.26 298.055 1232.29H296.508C296.525 1233.97 295.93 1235.18 295.301 1236.08L296.202 1236.45ZM299.823 1244H301.574V1231.74H299.823V1244ZM303.836 1244H305.587V1231.74H303.836V1244ZM311.979 1244H313.73V1231.74H311.979V1244ZM323.54 1240C323.54 1237.49 321.806 1235.89 319.562 1235.89C317.318 1235.89 315.482 1237.49 315.482 1240C315.482 1242.52 317.318 1244.17 319.562 1244.17C321.041 1244.17 322.554 1243.54 323.234 1242.13L321.806 1241.5C321.398 1242.23 320.531 1242.64 319.647 1242.64C318.355 1242.64 317.403 1241.88 317.216 1240.65H323.523C323.54 1240.46 323.54 1240.19 323.54 1240ZM317.216 1239.38C317.403 1238.15 318.338 1237.42 319.562 1237.42C320.769 1237.42 321.636 1238.13 321.823 1239.38H317.216ZM327.582 1233.05H325.831V1236.06H324.403V1237.51H325.831V1244H327.582V1237.51H329.265V1236.06H327.582V1233.05ZM341.697 1236.06H339.827L337.6 1241.5L335.39 1236.06H333.52L336.665 1243.63L334.948 1247.88H336.784L341.697 1236.06ZM346.407 1242.47C345.098 1242.47 344.01 1241.5 344.01 1240C344.01 1238.56 345.098 1237.61 346.407 1237.61C347.733 1237.61 348.821 1238.56 348.821 1240C348.821 1241.5 347.733 1242.47 346.407 1242.47ZM346.407 1244.17C348.668 1244.17 350.572 1242.52 350.572 1240C350.572 1237.49 348.668 1235.89 346.407 1235.89C344.163 1235.89 342.276 1237.49 342.276 1240C342.276 1242.52 344.163 1244.17 346.407 1244.17ZM357.683 1240.33C357.683 1241.91 356.663 1242.47 355.643 1242.47C354.691 1242.47 353.994 1241.79 353.994 1240.48V1236.06H352.243V1240.68C352.226 1242.95 353.365 1244.17 355.32 1244.17C356.153 1244.17 357.224 1243.74 357.683 1242.84V1244H359.434V1236.06H357.683V1240.33ZM370.933 1244H373.177L369.029 1239.51L372.412 1236.06H370.066L367.55 1238.68V1231.74H365.816V1244H367.55V1240.31L370.933 1244ZM375.98 1239.73C375.98 1238.17 376.983 1237.61 378.02 1237.61C379.04 1237.61 379.686 1238.3 379.686 1239.58V1244H381.437V1239.38C381.437 1237.11 380.332 1235.89 378.411 1235.89C377.544 1235.89 376.439 1236.35 375.98 1237.25V1236.06H374.229V1244H375.98V1239.73ZM387.242 1242.47C385.933 1242.47 384.845 1241.5 384.845 1240C384.845 1238.56 385.933 1237.61 387.242 1237.61C388.568 1237.61 389.656 1238.56 389.656 1240C389.656 1241.5 388.568 1242.47 387.242 1242.47ZM387.242 1244.17C389.503 1244.17 391.407 1242.52 391.407 1240C391.407 1237.49 389.503 1235.89 387.242 1235.89C384.998 1235.89 383.111 1237.49 383.111 1240C383.111 1242.52 384.998 1244.17 387.242 1244.17ZM404.926 1236.06H403.056L401.203 1241.42L399.367 1236.06H397.735L395.899 1241.42L394.063 1236.06H392.193L395.185 1244H396.613L398.551 1238.37L400.574 1244H402.019L404.926 1236.06ZM421.752 1236.06H419.882L418.029 1241.42L416.193 1236.06H414.561L412.725 1241.42L410.889 1236.06H409.019L412.011 1244H413.439L415.377 1238.37L417.4 1244H418.845L421.752 1236.06ZM424.849 1239.73C424.849 1238.17 426.056 1237.61 427.059 1237.61C428.062 1237.61 428.827 1238.34 428.827 1239.58V1244H430.578V1239.48C430.578 1237.22 429.405 1235.89 427.365 1235.89C426.532 1235.89 425.308 1236.3 424.849 1237.27V1231.74H423.098V1244H424.849V1239.73ZM440.288 1240C440.288 1237.49 438.554 1235.89 436.31 1235.89C434.066 1235.89 432.23 1237.49 432.23 1240C432.23 1242.52 434.066 1244.17 436.31 1244.17C437.789 1244.17 439.302 1243.54 439.982 1242.13L438.554 1241.5C438.146 1242.23 437.279 1242.64 436.395 1242.64C435.103 1242.64 434.151 1241.88 433.964 1240.65H440.271C440.288 1240.46 440.288 1240.19 440.288 1240ZM433.964 1239.38C434.151 1238.15 435.086 1237.42 436.31 1237.42C437.517 1237.42 438.384 1238.13 438.571 1239.38H433.964ZM443.7 1239.73C443.7 1238.17 444.703 1237.61 445.74 1237.61C446.76 1237.61 447.406 1238.3 447.406 1239.58V1244H449.157V1239.38C449.157 1237.11 448.052 1235.89 446.131 1235.89C445.264 1235.89 444.159 1236.35 443.7 1237.25V1236.06H441.949V1244H443.7V1239.73ZM457.85 1233.05H456.099V1236.06H454.671V1237.51H456.099V1244H457.85V1237.51H459.533V1236.06H457.85V1233.05ZM462.745 1239.73C462.745 1238.17 463.952 1237.61 464.955 1237.61C465.958 1237.61 466.723 1238.34 466.723 1239.58V1244H468.474V1239.48C468.474 1237.22 467.301 1235.89 465.261 1235.89C464.428 1235.89 463.204 1236.3 462.745 1237.27V1231.74H460.994V1244H462.745V1239.73ZM478.184 1240C478.184 1237.49 476.45 1235.89 474.206 1235.89C471.962 1235.89 470.126 1237.49 470.126 1240C470.126 1242.52 471.962 1244.17 474.206 1244.17C475.685 1244.17 477.198 1243.54 477.878 1242.13L476.45 1241.5C476.042 1242.23 475.175 1242.64 474.291 1242.64C472.999 1242.64 472.047 1241.88 471.86 1240.65H478.167C478.184 1240.46 478.184 1240.19 478.184 1240ZM471.86 1239.38C472.047 1238.15 472.982 1237.42 474.206 1237.42C475.413 1237.42 476.28 1238.13 476.467 1239.38H471.86ZM320.307 1259.05H318.556V1262.06H317.128V1263.51H318.556V1270H320.307V1263.51H321.99V1262.06H320.307V1259.05ZM325.185 1262.06H323.451V1270H325.185V1262.06ZM323.145 1258.85C323.145 1259.48 323.689 1259.95 324.318 1259.95C324.981 1259.95 325.474 1259.48 325.474 1258.85C325.474 1258.22 324.981 1257.74 324.318 1257.74C323.689 1257.74 323.145 1258.22 323.145 1258.85ZM336.491 1263.61C337.511 1263.61 338.174 1264.34 338.174 1265.58V1270H339.925V1265.43C339.925 1263.17 338.837 1261.89 336.865 1261.89C336.151 1261.89 334.927 1262.09 334.196 1263.47C333.737 1262.45 332.972 1261.89 331.697 1261.89C331.051 1261.89 329.742 1262.16 329.198 1263.25V1262.06H327.447V1270H329.198V1265.73C329.198 1264.17 330.184 1263.61 331.204 1263.61C332.156 1263.61 332.802 1264.32 332.819 1265.55V1270H334.57V1265.73C334.57 1264.44 335.335 1263.61 336.491 1263.61ZM349.65 1266C349.65 1263.49 347.916 1261.89 345.672 1261.89C343.428 1261.89 341.592 1263.49 341.592 1266C341.592 1268.52 343.428 1270.17 345.672 1270.17C347.151 1270.17 348.664 1269.54 349.344 1268.13L347.916 1267.5C347.508 1268.23 346.641 1268.64 345.757 1268.64C344.465 1268.64 343.513 1267.88 343.326 1266.65H349.633C349.65 1266.46 349.65 1266.19 349.65 1266ZM343.326 1265.38C343.513 1264.15 344.448 1263.42 345.672 1263.42C346.879 1263.42 347.746 1264.13 347.933 1265.38H343.326ZM351.521 1262.45C352.252 1261.86 353.238 1260.26 353.374 1258.29H351.827C351.844 1259.97 351.249 1261.18 350.62 1262.08L351.521 1262.45ZM357.635 1266.82C358.23 1266.96 358.74 1267.23 358.74 1267.76C358.74 1268.35 358.128 1268.71 357.329 1268.71C356.394 1268.71 355.85 1268.25 355.765 1267.57H354.15C354.201 1269.25 355.697 1270.17 357.193 1270.17C359.012 1270.17 360.355 1269.3 360.355 1267.77C360.355 1266.99 359.981 1265.87 358.281 1265.46L357.057 1265.15C356.632 1265.04 356.207 1264.87 356.088 1264.54C356.003 1264.29 356.02 1264.05 356.156 1263.83C356.343 1263.56 356.819 1263.39 357.278 1263.39C357.822 1263.39 358.366 1263.64 358.434 1264.24H360.1C360.015 1262.54 358.604 1261.89 357.21 1261.89C355.765 1261.89 354.456 1262.81 354.371 1263.98C354.252 1265.27 354.864 1266.11 356.564 1266.57L357.635 1266.82ZM371.562 1266.33C371.562 1267.91 370.542 1268.47 369.522 1268.47C368.57 1268.47 367.873 1267.79 367.873 1266.48V1262.06H366.122V1266.68C366.105 1268.95 367.244 1270.17 369.199 1270.17C370.032 1270.17 371.103 1269.74 371.562 1268.84V1270H373.313V1262.06H371.562V1266.33ZM377.317 1262.06H375.566V1273.86H377.317V1268.86C377.81 1269.74 378.881 1270.17 379.969 1270.17C382.111 1270.17 383.913 1268.57 383.913 1266.04C383.913 1263.54 382.111 1261.89 379.969 1261.89C378.881 1261.89 377.81 1262.37 377.317 1263.23V1262.06ZM377.334 1266.07C377.334 1264.53 378.456 1263.59 379.748 1263.59C381.057 1263.59 382.128 1264.59 382.128 1266.07C382.128 1267.53 381.057 1268.49 379.748 1268.49C378.524 1268.49 377.334 1267.65 377.334 1266.07ZM389.716 1269.03C389.716 1269.69 390.26 1270.17 390.923 1270.17C391.586 1270.17 392.113 1269.69 392.113 1269.03C392.113 1268.37 391.586 1267.88 390.923 1267.88C390.26 1267.88 389.716 1268.37 389.716 1269.03ZM389.716 1263.05C389.716 1263.71 390.26 1264.2 390.923 1264.2C391.586 1264.2 392.113 1263.71 392.113 1263.05C392.113 1262.37 391.586 1261.89 390.923 1261.89C390.26 1261.89 389.716 1262.37 389.716 1263.05ZM398.512 1266.07C398.512 1261.24 396.523 1258.15 393.667 1258.15V1259.75C395.537 1259.75 396.931 1262.35 396.931 1266.07C396.931 1269.8 395.537 1272.36 393.667 1272.36V1273.96C396.523 1273.96 398.512 1270.9 398.512 1266.07Z" fill="#F9F4EF"/>
<path d="M358 1152V1205" stroke="#B4AD9F" stroke-width="3" stroke-miterlimit="0" stroke-linecap="round" stroke-linejoin="bevel"/>
</svg>
