<svg width="196" height="205" viewBox="0 0 196 205" fill="none" xmlns="http://www.w3.org/2000/svg">
<g clip-path="url(#clip0_537_1165)">
<g opacity="0.08">
<path d="M-85.2283 16.1812C-62.5854 3.82475 -35.2583 -4.60603 -9.21521 2.5924C8.54695 7.50196 27.894 11.6414 40.7043 25.943C49.396 35.6466 57.7011 45.5644 64.7694 56.4181C75.1115 72.2989 86.0293 85.8446 99.1474 99.6458C120.195 121.789 151.034 134.446 169.471 159.1C180.393 173.705 188.42 189.364 191.015 207.401C193.322 223.437 188.584 237.434 180.614 251.124C176.574 258.065 171.59 269.262 165.118 274.101" stroke="#0F0E17" stroke-width="8" stroke-linecap="round"/>
<path d="M-65.6599 39.4144C-54.4008 34.3637 -46.3836 30.1915 -34.0241 31.6163C-24.8803 32.6704 -16.983 34.9017 -8.64827 38.6303C3.37738 44.01 12.9727 55.2072 18.6768 66.4533C25.4239 79.7557 33.3079 93.1301 44.07 103.877C56.359 116.15 69.8719 126.251 84.638 135.594C103.174 147.322 124.74 157.903 136.692 177.125C142.672 186.744 148.351 202.456 145.03 213.563C138.257 236.218 112.037 249.723 90.1287 255.471" stroke="#0F0E17" stroke-width="8" stroke-linecap="round"/>
<path d="M-35.2926 66.6799C-20.817 70.6811 -13.718 82.5964 -9.26965 95.9487C-1.60769 118.947 15.3393 137.369 36.3879 150.391C49.6709 158.608 62.1454 167.698 74.6123 177.091C82.1008 182.732 85.7583 187.293 87.7293 196.676C89.9155 207.084 84.7159 218.202 75.9271 223.703C64.9606 230.567 52.6122 235.598 40.6008 240.499C33.7005 243.315 27.508 245.83 20.0288 246.579" stroke="#0F0E17" stroke-width="8" stroke-linecap="round"/>
<path d="M-54.0976 113C-45.9195 115.26 -40.6254 122.373 -36.654 129.122C-29.553 141.188 -19.869 156.984 -8.14332 164.845C7.80629 175.536 27.1216 182.877 37.8786 199.466C44.1224 209.095 42.5717 213.677 34.4448 221.467C29.5606 226.148 23.0732 228.04 17.1792 231.257" stroke="#0F0E17" stroke-width="8" stroke-linecap="round"/>
</g>
</g>
<defs>
<clipPath id="clip0_537_1165">
<rect width="196" height="205" fill="white" transform="matrix(-1 0 0 1 196 0)"/>
</clipPath>
</defs>
</svg>
