<svg width="78" height="360" viewBox="0 0 78 360" fill="none" xmlns="http://www.w3.org/2000/svg">
<g clip-path="url(#clip0_726_959)">
<g clip-path="url(#clip1_726_959)">
<g opacity="0.08">
<path d="M78.2305 4.34435C54.2787 13.9199 30.3671 29.6071 19.3185 54.2645C11.783 71.0816 2.6441 88.6293 5.50227 107.615C7.44151 120.497 9.79217 133.218 13.6523 145.582C19.3003 163.672 22.782 180.718 25.0583 199.622C28.7106 229.954 18.8123 261.785 26.0628 291.704C30.3579 309.429 37.3104 325.594 49.5568 339.088C60.4451 351.085 74.2509 356.353 89.8803 358.935C97.8037 360.244 109.609 363.539 117.462 361.636" stroke="#222028" stroke-width="8" stroke-linecap="round"/>
<path d="M77.8043 41.4887C66.7371 46.947 58.4128 50.4668 51.6346 60.8996C46.62 68.618 43.307 76.126 40.8691 84.9252C37.3516 97.6211 39.8661 112.151 44.898 123.714C50.8499 137.39 56.1327 151.989 57.557 167.132C59.1833 184.423 58.3569 201.274 56.1472 218.607C53.3732 240.366 47.7844 263.729 54.9819 285.189C58.5833 295.927 67.0729 310.316 77.7491 314.835C99.5245 324.052 126.641 312.452 145.032 299.231" stroke="#222028" stroke-width="8" stroke-linecap="round"/>
<path d="M85.3257 75.008C79.1845 88.7134 83.8432 101.777 91.2985 113.714C104.139 134.275 107.537 159.075 104.159 183.594C102.027 199.067 101.083 214.473 100.376 230.066C99.9522 239.433 101.136 245.158 107.111 252.656C113.739 260.973 125.62 264.051 135.46 260.783C147.739 256.706 159.485 250.396 170.917 244.263C177.484 240.74 183.368 237.57 188.712 232.283" stroke="#222028" stroke-width="8" stroke-linecap="round"/>
</g>
</g>
</g>
<defs>
<clipPath id="clip0_726_959">
<rect width="78" height="360" fill="white"/>
</clipPath>
<clipPath id="clip1_726_959">
<rect width="370.921" height="259" fill="white" transform="translate(-150 229.851) rotate(-50.4125)"/>
</clipPath>
</defs>
</svg>
