<svg width="114" height="388" viewBox="0 0 114 388" fill="none" xmlns="http://www.w3.org/2000/svg">
<path opacity="0.08" d="M150.189 4.19634C143.444 24.7406 132.312 36.1737 121.665 46.7282C115.109 53.2261 94.7974 66.6623 86.6463 72.0667C74.9047 79.8516 55.2481 92.4428 46.9801 102.832C30.5545 123.472 21.3047 140.324 13.58 166.242C5.70502 192.665 8.52803 221.91 12.5817 249.107C16.0062 272.083 20.8421 298.872 35.3199 317.759C54.1805 342.363 83.2766 360.967 111.587 371.1C134.432 379.277 163.487 387.71 187.344 381.255C216.339 373.408 244.443 354.087 259.869 327.326C279.999 292.405 283.117 241.43 268.622 202.856C263.897 190.28 255.764 178.242 247.889 167.538C234.769 149.703 222.104 130.281 206.412 114.677C189.671 98.0293 166.369 89.8148 143.645 92.2551C122.6 94.5152 103.249 99.8609 87.3536 114.188C73.6707 126.522 63.2899 144.996 56.3214 162.22C52.175 172.469 49.4309 183.525 47.7096 194.527C46.3441 203.256 43.1772 210.967 43.4414 220.063C43.6468 227.133 44.139 234.329 45.7397 241.243C47.8588 250.397 55.3933 264.206 60.1475 270.573C79.5592 296.571 111.435 308.092 138.798 287.174C171.589 262.108 178.292 220.455 169.117 180.913C166.481 169.548 161.431 142.137 146.48 140.002C134.924 138.352 119.837 141.383 110.076 147.92C103.751 152.156 96.9721 160.461 94.2357 167.863C92.5039 172.548 89.9239 178.928 89.3214 183.959C88.7847 188.44 88.5812 207.112 91.0889 216.35C95.3147 231.917 100.445 234.995 111.889 244.705C117.544 249.503 123.036 253.847 130.333 251.077C136.158 248.866 140.383 241.298 143.998 236.461C154.533 222.368 154.18 206.121 152.164 188.789C151.497 183.057 149.826 174.746 146.123 170.152C140.886 163.653 131.673 169.439 128.403 174.553C121.541 185.29 119.731 196.858 124.258 209.713C125.68 213.75 127.343 231.38 132.129 232.063" stroke="#0F0E17" stroke-width="8" stroke-linecap="round"/>
</svg>
