<svg width="98" height="126" viewBox="0 0 98 126" fill="none" xmlns="http://www.w3.org/2000/svg">
<g opacity="0.08" filter="url(#filter0_f_765_1428)">
<path d="M-41.7359 6C-33.5903 16.5619 -24.7577 20.9294 -16.3876 24.8852C-11.2345 27.3206 3.35852 30.9732 9.21714 32.4462C17.6564 34.5681 31.6941 37.8637 38.6438 42.2107C52.4503 50.8466 61.2981 58.7491 71.1176 72.2343C81.1283 85.9822 85.4842 103.56 88.7029 120.2C91.422 134.257 94.1012 150.82 89.5403 164.763C83.5988 182.926 70.4619 199.697 56.0445 211.383C44.4104 220.813 29.2106 231.663 13.9845 232.793C-4.52149 234.168 -24.8622 228.689 -39.3424 216.29C-58.2374 200.111 -70.5143 171.118 -69.9834 145.727C-69.8104 137.449 -67.5414 128.786 -65.1494 120.952C-61.1637 107.898 -57.7691 94.0159 -51.8272 81.7325C-45.4881 68.6281 -33.5955 59.0829 -19.8539 55.85C-7.12703 52.8557 5.24591 52.002 17.4482 57.0768C27.952 61.4453 37.7918 70.0595 45.3868 78.6456C49.9059 83.7545 53.7735 89.6198 57.0342 95.6632C59.6209 100.458 63.0486 104.292 64.761 109.633C66.0922 113.786 67.2819 118.069 67.768 122.416C68.4116 128.171 66.8546 137.741 65.3909 142.415C59.4142 161.502 43.2043 174.724 22.9674 168.166C-1.28337 160.307 -13.7365 137.466 -16.5044 112.602C-17.2999 105.455 -19.9821 88.4875 -11.7084 84.1862C-5.31284 80.8614 4.10038 79.5347 11.1297 81.3368C15.6842 82.5044 21.3384 85.9442 24.4519 89.6873C26.4223 92.0561 29.2349 95.237 30.6182 98.0377C31.8503 100.533 35.8004 111.345 36.2348 117.229C36.9667 127.143 34.6091 129.982 29.933 137.97C27.6223 141.917 25.3134 145.566 20.4933 145.45C16.6448 145.357 12.6304 141.822 9.53103 139.751C0.500625 133.715 -2.6275 124.198 -5.0092 113.71C-5.79681 110.241 -6.52872 105.068 -5.3137 101.639C-3.59525 96.7895 2.96036 98.2666 5.915 100.571C12.1169 105.407 15.545 111.761 15.545 120.161C15.545 122.798 18.1932 133.387 15.545 134.764" stroke="#0F0E17" stroke-width="4" stroke-linecap="round"/>
</g>
<defs>
<filter id="filter0_f_765_1428" x="-76" y="-9.15527e-05" width="173.999" height="239" filterUnits="userSpaceOnUse" color-interpolation-filters="sRGB">
<feFlood flood-opacity="0" result="BackgroundImageFix"/>
<feBlend mode="normal" in="SourceGraphic" in2="BackgroundImageFix" result="shape"/>
<feGaussianBlur stdDeviation="2" result="effect1_foregroundBlur_765_1428"/>
</filter>
</defs>
</svg>
