<svg width="147" height="40" viewBox="0 0 147 40" fill="none" xmlns="http://www.w3.org/2000/svg">
<path d="M18.8064 0.215755C17.7263 0.575058 15.1873 1.86026 13.7705 2.77234C13.1112 3.18692 12.0451 3.82261 11.3998 4.16809C10.0672 4.90052 9.63232 5.21836 7.27568 7.27745C4.97515 9.28126 3.41808 11.2436 2.28184 13.5791C0.710751 16.7714 0.570475 17.3518 0.233812 21.7325C-0.102851 26.0994 -0.0888237 27.3017 0.36006 28.6284C0.921165 30.2452 2.07143 32.0556 3.60044 33.7415C5.41001 35.7177 6.36388 36.464 7.62637 36.9338C8.18748 37.1549 9.05719 37.528 9.56218 37.763C10.8387 38.3848 13.4338 39.2002 15.1732 39.5042C18.8765 40.1675 22.0047 40.1675 24.1649 39.4904C25.1469 39.1864 26.9424 38.9791 29.5515 38.8823C31.5435 38.7994 32.5394 38.5369 34.6295 37.528C37.7297 36.0217 39.3849 34.7227 40.6755 32.7327C40.956 32.3043 41.6013 31.3232 42.1203 30.5354C42.6533 29.7477 43.2846 28.6007 43.5371 27.9789L44 26.8457V23.5981C44 20.8757 43.9439 20.0327 43.6774 18.3468C43.0181 14.2839 42.6253 13.2612 41.0682 11.5062C40.5211 10.8981 39.7637 10.0275 39.3709 9.57147C38.1365 8.10661 35.4852 5.49475 34.0404 4.32011C31.5435 2.28866 30.1688 1.57005 27.6578 0.948181C24.9785 0.284851 23.702 0.0913811 21.5558 0.0222816C19.9005 -0.0329933 19.4657 0.00846481 18.8064 0.215755ZM24.4174 2.3854C25.0347 2.50977 26.3392 2.85526 27.3071 3.15928C28.9484 3.6706 29.2149 3.80879 31.2769 5.19073C33.1005 6.42065 33.9141 7.08398 36.0744 9.12925C39.5112 12.4044 40.3528 13.2612 40.7877 13.9384C40.9841 14.2424 41.5031 15.4171 41.9239 16.5226L42.7095 18.5541L42.8217 21.2488C42.8918 22.7275 42.976 24.0542 43.004 24.1924C43.1443 24.7451 42.8077 26.97 42.471 27.6748C42.0502 28.5869 39.7075 32.0279 38.9921 32.8018C38.3188 33.5204 36.369 34.8471 35.0223 35.5242C32.9883 36.5192 30.309 37.1687 27.4474 37.3484C26.4094 37.4175 25.6799 37.5695 24.6419 37.9012C22.3975 38.6474 22.2572 38.6751 19.3114 38.7994C16.0991 38.9376 14.9488 38.8409 12.7745 38.2467C11.1052 37.7906 8.0472 36.4778 6.86888 35.7177C5.915 35.0958 4.34391 33.479 3.54433 32.3181C2.81489 31.2679 1.70671 29.0706 1.29991 27.9098C0.865055 26.6384 0.808944 25.671 1.06144 23.9436C1.18769 23.1006 1.37005 21.6081 1.48227 20.627C1.59449 19.632 1.79088 18.5126 1.91713 18.1395C2.67462 15.9007 5.28376 11.7549 6.95304 10.1242C9.3658 7.76113 10.8387 6.72468 14.6121 4.74851C15.3416 4.36156 16.1411 3.90553 16.3656 3.75351C18.2733 2.42685 21.5839 1.86026 24.4174 2.3854Z" fill="#0F0E17"/>
<path d="M19.9004 5.23217C19.0447 5.42564 18.3293 5.85404 16.7442 7.12543C15.9166 7.77494 15.131 8.42445 14.9907 8.54882C14.3735 9.11541 12.4377 10.3868 11.0209 11.1745C8.94483 12.3215 7.21943 14.0213 5.53612 16.5779C4.34377 18.3882 3.97905 19.784 3.86683 22.9762C3.79669 24.8695 3.81072 25.1182 4.09127 25.8507C4.2596 26.2929 4.61029 26.9286 4.86279 27.2602C5.12932 27.5919 5.76056 28.4902 6.26555 29.2502C6.77055 29.9965 7.48596 30.8947 7.8647 31.2264C9.3376 32.5392 12.1992 34.1699 14.1912 34.8333C15.3274 35.2202 17.7963 35.7592 18.3854 35.7592C18.5818 35.7592 19.5357 35.5104 20.5036 35.2064C23.1127 34.3772 23.7299 34.2943 25.5255 34.5016C26.8301 34.6536 27.1667 34.6536 28.1486 34.4463C31.5574 33.7692 33.6615 32.8847 34.8819 31.6133C37.3367 29.0982 37.9399 28.3105 38.5151 26.9009C39.2866 25.0491 39.3708 24.4549 39.3287 21.4008C39.2726 18.1947 39.1183 17.4347 38.2766 16.3153C38.0101 15.956 37.5892 15.2512 37.3367 14.7675C36.0041 12.1557 34.0964 10.069 31.4311 8.31389C29.1586 6.8214 27.0124 5.95078 24.8522 5.64675C24.1929 5.55002 23.0847 5.38419 22.3833 5.27363C20.9525 5.05252 20.6719 5.05252 19.9004 5.23217ZM23.1688 7.29126C23.8983 7.42945 24.754 7.63674 25.0626 7.7473C30.7578 9.79256 30.1125 9.51618 31.5714 10.6217C32.8058 11.5476 34.5312 13.1645 35.2607 14.0627C35.5412 14.4082 36.0602 15.2098 36.4249 15.8593C36.7756 16.5088 37.2526 17.2136 37.463 17.4485C37.6874 17.6696 37.9259 17.9874 38.0101 18.1533C38.1083 18.3191 38.1784 19.6872 38.2065 21.539C38.2485 26.1547 38.0662 26.6246 34.7416 30.0932C34.0262 30.8533 32.918 31.4613 31.1786 32.0279C28.9903 32.7465 28.0364 32.8709 25.4133 32.7742L23.0987 32.6913L21.724 33.1888C19.9846 33.8244 18.8904 33.9212 17.137 33.631C12.9848 32.9124 9.00094 31.0744 7.41582 29.1397C5.25557 26.5002 4.27363 24.3444 4.52613 22.838C4.58224 22.4511 4.63835 21.6634 4.63835 21.083C4.66641 19.0239 5.74653 17.1168 8.35567 14.5326C9.66024 13.2474 10.0951 12.9157 10.9648 12.515C11.9888 12.0313 14.1351 10.5664 16.3795 8.81139C17.4315 7.98223 18.8063 7.23598 19.7321 7.00105C20.2511 6.87668 21.4294 6.97341 23.1688 7.29126Z" fill="#0F0E17"/>
<path d="M22.117 9.72338C20.3355 10.138 19.3816 10.5664 18.2454 11.4784C17.3056 12.2385 16.2254 12.8327 14.991 13.2888C13.3498 13.8968 12.3398 14.5049 11.3017 15.5137L10.3198 16.481L9.73063 18.3052C9.02925 20.4472 8.903 21.4698 9.14147 22.6583C9.33786 23.6809 9.67452 24.3581 10.7967 26.0164C12.1434 28.0064 12.6344 28.421 14.9629 29.6094C17.5019 30.9085 18.4698 30.9914 21.2473 30.1069C23.8985 29.2778 25.2452 29.2225 26.6199 29.9135L27.3774 30.2866L28.3733 29.9549C30.4074 29.2778 32.8341 27.6747 33.4794 26.5692C34.0826 25.5742 34.5174 24.0955 34.6718 22.5754C34.7559 21.8153 34.8541 20.9585 34.8962 20.6821C34.9944 20.0326 34.2229 17.0753 33.774 16.412C33.3391 15.7624 30.7721 13.0677 29.7901 12.2247C27.6299 10.3591 26.2131 9.75102 23.9406 9.69574C23.099 9.6681 22.2713 9.68192 22.117 9.72338ZM25.1189 11.6443C26.3955 11.9483 27.686 12.6531 29.3974 14.0074C31.3332 15.5413 32.9884 17.3517 33.4233 18.4296C33.7319 19.1896 33.76 19.4246 33.76 21.7324C33.7459 24.0126 33.7179 24.289 33.4233 25.0491C33.0025 26.0717 32.0626 27.0252 30.5476 27.9511C28.682 29.0843 27.5878 29.3331 26.3814 28.9047C25.5819 28.6283 24.3755 28.7112 21.4297 29.264C18.526 29.8029 17.8526 29.8029 16.1272 29.2087C14.3598 28.6144 13.3778 28.0202 12.3257 26.9147C10.8809 25.3945 9.6605 22.299 9.92702 20.765C10.0392 20.1017 11.1053 17.8077 11.6244 17.1582C12.1574 16.4534 13.1534 15.7901 14.4018 15.3064C16.029 14.6707 17.2494 14.0074 18.4698 13.1091C20.3636 11.6857 22.9026 11.133 25.1189 11.6443Z" fill="#0F0E17"/>
<path d="M22.4673 13.7725C21.7799 13.9798 21.1487 14.3806 20.0966 15.265C18.9043 16.2738 18.1468 16.6746 17.4314 16.6884C16.7019 16.6884 15.9164 16.9648 15.5377 17.3655C15.1168 17.8078 13.686 20.0327 13.4055 20.696C12.8023 22.1194 13.1249 23.9988 14.2471 25.5051C15.9164 27.7301 18.5115 28.2967 21.4573 27.0529C22.2429 26.7212 22.6777 26.6383 23.8841 26.5831C27.0684 26.4449 29.2286 25.2702 29.9721 23.3079C30.2106 22.686 30.2526 22.2161 30.2526 20.4887C30.2526 18.6093 30.2246 18.3467 29.916 17.6972C29.7336 17.2826 29.2847 16.6884 28.8639 16.3153C27.6716 15.1959 25.8339 13.8969 25.2869 13.7725C24.6696 13.6343 22.9442 13.6343 22.4673 13.7725ZM25.9882 15.956C26.9141 16.4396 28.4431 17.8354 28.7797 18.4711C29.1024 19.1068 29.3408 20.3643 29.3408 21.4423C29.3268 22.9624 28.6956 23.833 27.0263 24.5792C25.7357 25.1458 25.0344 25.2979 23.6877 25.2702C22.7479 25.2564 22.2849 25.3255 21.6537 25.5466C19.3111 26.4172 18.1748 26.5001 16.8983 25.9474C16.0988 25.6019 15.1168 24.676 14.7521 23.9297C14.3874 23.142 14.2471 21.7877 14.4575 21.0139C14.8222 19.7148 16.1689 18.554 17.7821 18.1532C19.1428 17.8216 19.7319 17.5314 20.8261 16.6469C22.0745 15.6658 22.7759 15.417 24.1927 15.5137C25.0344 15.5552 25.4552 15.6658 25.9882 15.956Z" fill="#0F0E17"/>
<path d="M21.9212 18.1809C20.4904 18.9548 20.0556 21.0829 21.1217 22.0641C21.5425 22.4511 23.1557 23.0453 23.7729 23.0453C24.5163 23.0453 25.0634 22.6031 25.5684 21.5943C25.877 20.9586 26.0454 20.4058 26.0874 19.853L26.1435 19.0377L25.0494 18.5264C23.6887 17.9045 22.6226 17.7939 21.9212 18.1809ZM24.5725 19.6043C25.0354 19.8392 25.4141 20.1018 25.4141 20.1709C25.4141 20.5163 24.7829 21.4284 24.3901 21.6634C23.843 21.995 23.5765 22.0088 22.6226 21.7186C21.6407 21.4422 21.3461 21.1244 21.3461 20.3782C21.3461 19.7839 21.6407 19.3417 22.1878 19.1206C22.6366 18.9548 23.7589 19.1759 24.5725 19.6043Z" fill="#0F0E17"/>
<path d="M60.3034 12.3497C59.1336 13.4472 59.7245 15.3767 61.2199 15.3767C61.8953 15.3767 62.3656 15.0993 62.6912 14.5325C62.9806 14.0019 63.0168 13.4833 62.7756 12.9165C62.5103 12.2894 62.0521 12 61.3164 12C60.7858 12 60.617 12.0603 60.3034 12.3497Z" fill="#0F0E17"/>
<path d="M129.489 12.205C129.079 12.4583 128.669 13.1939 128.669 13.6763C128.669 14.6652 129.32 15.3767 130.225 15.3767C131.322 15.3767 132.01 14.5808 131.889 13.411C131.841 12.9045 131.769 12.7357 131.395 12.398C131.033 12.0603 130.876 12 130.394 12C130.068 12 129.67 12.0965 129.489 12.205Z" fill="#0F0E17"/>
<path d="M83.5662 14.1346C83.4818 14.4602 83.2526 15.1355 83.0597 15.642C82.6738 16.6671 82.8426 16.5586 81.2507 16.7636L80.6719 16.8359V17.9816V19.1152H81.6969H82.722V22.4678C82.722 26.1339 82.7823 26.6042 83.3973 27.4002C83.9159 28.0755 84.6154 28.3288 85.9781 28.3408C86.9429 28.3408 87.2685 28.2926 88.0644 27.9911C88.5709 27.8102 88.993 27.6172 88.993 27.5569C88.993 27.4725 88.0403 25.3742 87.9559 25.2777C87.9318 25.2536 87.6785 25.3259 87.3891 25.4345C86.7861 25.6636 86.0866 25.6877 85.8816 25.4827C85.7731 25.3742 85.7369 24.4817 85.7369 22.2266V19.1273L87.0996 19.0911L88.4503 19.0549L88.4865 17.8128L88.5227 16.5827H87.1238H85.7369V15.0752V13.5678H84.7239H83.723L83.5662 14.1346Z" fill="#0F0E17"/>
<path d="M120.035 14.2551C119.926 14.641 119.697 15.3164 119.54 15.7505L119.239 16.5585L118.684 16.6309C118.37 16.6791 117.912 16.7394 117.671 16.7756L117.213 16.8479V17.9815V19.1151H118.226H119.251L119.287 22.7571C119.323 26.2544 119.335 26.4353 119.588 26.9057C120.167 27.979 120.951 28.3407 122.639 28.3287C123.508 28.3166 123.954 28.2563 124.46 28.0634C125.618 27.6051 125.606 27.6534 124.991 26.375C124.702 25.7721 124.436 25.2655 124.412 25.2655C124.376 25.2655 124.123 25.35 123.845 25.4464C123.17 25.6876 122.591 25.6756 122.386 25.4223C122.254 25.2655 122.217 24.5902 122.217 22.2024V19.1754L123.58 19.1393L124.931 19.1031V17.8489V16.5947L123.58 16.5585L122.217 16.5223L122.181 15.039L122.145 13.5677H121.192H120.24L120.035 14.2551Z" fill="#0F0E17"/>
<path d="M73.3156 16.4621C72.6764 16.5827 71.6514 16.9686 70.9157 17.3786C70.6142 17.5354 70.3369 17.6319 70.2886 17.5836C70.2524 17.5233 70.1439 17.2822 70.0595 17.0289L69.9148 16.5827H67.8767H65.8386V17.849V19.1152H66.7431H67.6476V22.3713V25.6274H66.7431H65.8386V26.8937V28.1599H69.2153H72.592V26.8937V25.6274H71.6272H70.6625V23.0466V20.4659L71.3016 20.0438C72.2543 19.4167 72.6764 19.2238 73.2915 19.1514C74.0271 19.067 74.7145 19.3443 74.9075 19.8026C74.9919 20.0197 75.0763 21.3462 75.1125 23.517C75.1848 26.6284 75.2089 26.9298 75.426 27.3157C75.7757 27.8946 76.2943 28.1599 77.2832 28.2443C78.0912 28.3167 78.863 28.1961 79.6228 27.8946C79.9363 27.774 79.9484 27.7499 79.9484 26.761V25.7601L79.0198 25.7239L78.0791 25.6877L78.0188 22.4316C77.9585 19.477 77.9224 19.1152 77.6932 18.5364C77.3194 17.6078 76.8973 17.1254 76.1858 16.7756C75.4622 16.438 74.1959 16.2933 73.3156 16.4621Z" fill="#0F0E17"/>
<path d="M94.6852 16.4742C93.9858 16.6068 92.9366 17.1013 92.3698 17.5475C91.7065 18.066 90.9709 19.2358 90.6573 20.2488C90.2835 21.4427 90.2835 23.2999 90.6573 24.4938C91.2844 26.5198 92.6592 27.8102 94.6491 28.2323C96.6389 28.6544 99.2317 28.1479 100.57 27.0746L100.872 26.8334L100.281 25.6998L99.69 24.5662L98.882 24.9641C97.061 25.8807 94.8541 25.8445 93.9737 24.8918C93.6481 24.542 93.2984 23.7341 93.3949 23.5773C93.4431 23.5049 95.0109 23.4567 97.3384 23.4567H101.21L101.137 22.0336C101.065 20.5383 100.908 19.8991 100.389 18.8861C99.4126 16.9565 97.1213 15.9918 94.6852 16.4742ZM97.0248 19.3444C97.5554 19.5855 97.9896 20.1644 98.1102 20.7915L98.1946 21.1654H95.8189H93.4431L93.5155 20.888C93.9617 19.4529 95.638 18.7173 97.0248 19.3444Z" fill="#0F0E17"/>
<path d="M110.037 16.4138C109.434 16.5102 108.505 16.8358 107.661 17.2579C107.215 17.4871 106.829 17.668 106.805 17.668C106.769 17.668 106.684 17.4268 106.6 17.1253L106.443 16.5826H104.417H102.379V17.8488V19.1151H103.284H104.188V22.3712V25.6273H103.284H102.379V26.8936V28.1598H105.756H109.133V26.8936V25.6394L108.144 25.6032L107.143 25.567L107.107 23.0707L107.082 20.5623L107.589 20.1884C108.831 19.2839 109.916 18.9583 110.761 19.2357C111.484 19.4769 111.544 19.7663 111.544 22.8777C111.544 26.6765 111.677 27.3156 112.521 27.9427C113.1 28.3769 115.199 28.3407 116.199 27.8945C116.477 27.7618 116.489 27.7015 116.489 26.7488V25.7479H115.524H114.559V22.9259C114.559 19.7784 114.475 19.1513 113.944 18.0659C113.558 17.2579 113.185 16.9203 112.389 16.6429C111.846 16.4499 110.604 16.3293 110.037 16.4138Z" fill="#0F0E17"/>
<path d="M139.764 16.4742C139.402 16.5345 138.715 16.7757 138.232 17.0048C136.219 17.9937 135.037 20.3091 135.242 22.9019C135.447 25.6274 136.954 27.5449 139.342 28.1599C141.609 28.7388 143.901 28.2323 145.299 26.8213C147.579 24.5541 147.567 20.1403 145.263 17.8851C143.997 16.643 141.983 16.1244 139.764 16.4742ZM142.369 19.4046C143.43 19.8991 143.985 20.9121 143.985 22.3593C143.985 23.4446 143.695 24.2285 143.093 24.8435C142.248 25.6756 140.91 25.8807 139.8 25.3259C137.485 24.1682 137.762 19.9714 140.198 19.2358C140.874 19.0429 141.73 19.1032 142.369 19.4046Z" fill="#0F0E17"/>
<path d="M58 17.8489V19.1152H58.9045H59.8089V22.3713V25.6274H58.9045H58V26.8937V28.1599H61.3767H64.7534V26.8937V25.6395L63.7645 25.6033L62.7635 25.5671L62.7274 21.0689L62.7032 16.5827H60.3516H58V17.8489Z" fill="#0F0E17"/>
<path d="M126.981 17.8489V19.1152H127.885H128.79V22.3713V25.6274H127.885H126.981V26.8937V28.1599H130.357H133.734V26.8937V25.6274H132.769H131.805V21.105V16.5827H129.393H126.981V17.8489Z" fill="#0F0E17"/>
</svg>
