<svg width="72" height="64" viewBox="0 0 72 64" fill="none" xmlns="http://www.w3.org/2000/svg">
<path d="M30.8903 0.345211C29.1621 0.920094 25.0997 2.97642 22.8328 4.43574C21.7779 5.09907 20.0722 6.11618 19.0397 6.66895C16.9075 7.84084 16.2118 8.34939 12.4411 11.6439C8.76029 14.85 6.26898 17.9898 4.451 21.7265C1.93725 26.8342 1.71281 27.7628 1.17415 34.772C0.635487 41.7591 0.657931 43.6827 1.37615 45.8054C2.27391 48.3924 4.11434 51.2889 6.56076 53.9865C9.45606 57.1483 10.9823 58.3423 13.0022 59.0941C13.9 59.4479 15.2915 60.0449 16.0995 60.4208C18.142 61.4158 22.2941 62.7203 25.0772 63.2067C31.0025 64.2681 36.0075 64.2681 39.464 63.1846C41.035 62.6982 43.9079 62.3665 48.0825 62.2118C51.2696 62.0791 52.8631 61.659 56.2073 60.0449C61.1675 57.6348 63.8159 55.5563 65.8808 52.3724C66.3297 51.6869 67.3621 50.117 68.1925 48.8567C69.0454 47.5964 70.0554 45.7612 70.4594 44.7662L71.2001 42.9531V37.757C71.2001 33.4011 71.1103 32.0524 70.6838 29.3548C69.629 22.8542 69.0005 21.218 66.5092 18.4099C65.6339 17.437 64.4219 16.044 63.7935 15.3143C61.8184 12.9706 57.5764 8.79161 55.2647 6.91217C51.2696 3.66186 49.0701 2.51208 45.0526 1.51709C40.7657 0.455765 38.7233 0.14621 35.2893 0.035656C32.6409 -0.0527878 31.9451 0.013546 30.8903 0.345211ZM39.8679 3.81664C40.8555 4.01563 42.9428 4.56841 44.4915 5.05485C47.1174 5.87296 47.5439 6.09407 50.8432 8.30516C53.7609 10.273 55.0627 11.3344 58.5191 14.6068C64.0179 19.8471 65.3646 21.218 66.0603 22.3014C66.3745 22.7879 67.205 24.6673 67.8783 26.4362L69.1352 29.6865L69.3147 33.9981C69.427 36.364 69.5616 38.4867 69.6065 38.7078C69.831 39.5922 69.2923 43.1521 68.7536 44.2797C68.0803 45.7391 64.3321 51.2447 63.1875 52.4829C62.1101 53.6327 58.9904 55.7553 56.8358 56.8388C53.5814 58.4308 49.2945 59.47 44.7159 59.7574C43.055 59.868 41.8879 60.1112 40.2271 60.6419C36.636 61.8359 36.4115 61.8801 31.6983 62.0791C26.5585 62.3002 24.7181 62.1454 21.2393 61.1946C18.5684 60.465 13.6756 58.3644 11.7903 57.1483C10.264 56.1533 7.7503 53.5664 6.47098 51.709C5.30388 50.0286 3.53079 46.513 2.87991 44.6556C2.18414 42.6214 2.09436 41.0736 2.49836 38.3098C2.70035 36.961 2.99213 34.573 3.17168 33.0031C3.35123 31.4111 3.66545 29.6202 3.86745 29.0232C5.07944 25.4412 9.25406 18.8079 11.9249 16.1988C15.7853 12.4178 18.142 10.7595 24.1795 7.59761C25.3466 6.9785 26.6259 6.24884 26.985 6.00562C30.0374 3.88297 35.3342 2.97642 39.8679 3.81664Z" fill="#F9F4EF"/>
<path d="M32.641 8.37167C31.2719 8.68122 30.1272 9.36666 27.591 11.4009C26.2668 12.4401 25.01 13.4793 24.7855 13.6783C23.798 14.5849 20.7007 16.6191 18.4338 17.8794C15.1121 19.7146 12.3514 22.4343 9.65813 26.5248C7.75037 29.4213 7.16682 31.6545 6.98727 36.7622C6.87505 39.7914 6.89749 40.1894 7.34638 41.3613C7.61571 42.0688 8.17681 43.0859 8.58081 43.6166C9.00725 44.1472 10.0172 45.5845 10.8252 46.8006C11.6332 47.9946 12.7779 49.4318 13.3839 49.9624C15.7405 52.063 20.3191 54.6721 23.5062 55.7334C25.3242 56.3525 29.2744 57.2148 30.217 57.2148C30.5312 57.2148 32.0574 56.8168 33.6061 56.3304C37.7807 55.0037 38.7683 54.8711 41.6411 55.2027C43.7284 55.446 44.2671 55.446 45.8382 55.1143C51.2921 54.0309 54.6588 52.6158 56.6114 50.5815C60.5391 46.5573 61.5042 45.297 62.4244 43.0417C63.6589 40.0788 63.7935 39.1281 63.7262 34.2415C63.6364 29.1118 63.3895 27.8957 62.0429 26.1047C61.6165 25.5298 60.9431 24.4021 60.5391 23.6283C58.4069 19.4493 55.3545 16.1105 51.0901 13.3024C47.4542 10.9144 44.0202 9.52144 40.5638 9.035C39.5089 8.88022 37.7358 8.61489 36.6136 8.438C34.3243 8.08422 33.8754 8.08422 32.641 8.37167ZM37.8705 11.6662C39.0376 11.8873 40.4067 12.219 40.9005 12.3959C50.0128 15.6683 48.9804 15.2261 51.3146 16.995C53.2897 18.4764 56.0503 21.0634 57.2174 22.5006C57.6663 23.0534 58.4967 24.3358 59.0803 25.375C59.6414 26.4142 60.4045 27.5419 60.7411 27.9178C61.1002 28.2716 61.4818 28.7801 61.6165 29.0454C61.7736 29.3108 61.8858 31.4998 61.9307 34.4626C61.998 41.8477 61.7062 42.5995 56.387 48.1493C55.2423 49.3654 53.4692 50.3383 50.6861 51.2449C47.1848 52.3946 45.6586 52.5936 41.4616 52.4389L37.7583 52.3062L35.5587 53.1022C32.7757 54.1193 31.025 54.2741 28.2195 53.8098C21.576 52.66 15.2018 49.7192 12.6657 46.6237C9.20925 42.4005 7.63815 38.9512 8.04215 36.5411C8.13193 35.922 8.2217 34.6616 8.2217 33.733C8.26659 30.4384 9.99479 27.3871 14.1694 23.2524C16.2567 21.196 16.9525 20.6654 18.344 20.0242C19.9825 19.2503 23.4164 16.9065 27.0075 14.0984C28.6908 12.7718 30.8903 11.5778 32.3717 11.2019C33.2021 11.0029 35.0874 11.1577 37.8705 11.6662Z" fill="#F9F4EF"/>
<path d="M36.1871 15.557C33.3367 16.2204 31.8105 16.9058 29.9925 18.3651C28.4888 19.5812 26.7606 20.532 24.7855 21.2617C22.1595 22.2346 20.5435 23.2074 18.8827 24.8215L17.3116 26.3693L16.3689 29.288C15.2467 32.7152 15.0447 34.3514 15.4263 36.2529C15.7405 37.8891 16.2791 38.9726 18.0747 41.6259C20.2293 44.8099 21.0149 45.4732 24.7406 47.3747C28.803 49.4532 30.3517 49.5858 34.7956 48.1707C39.0376 46.8441 41.1922 46.7556 43.3917 47.8612L44.6037 48.4582L46.1973 47.9275C49.4517 46.8441 53.3345 44.2792 54.367 42.5103C55.3321 40.9183 56.0278 38.5525 56.2747 36.1203C56.4094 34.9041 56.5665 33.5333 56.6338 33.091C56.7909 32.0518 55.5565 27.3201 54.8383 26.2588C54.1425 25.2195 50.0352 20.9079 48.4641 19.5591C45.0077 16.5741 42.7409 15.6013 39.1049 15.5128C37.7582 15.4686 36.434 15.4907 36.1871 15.557ZM40.9902 18.6305C43.0326 19.1169 45.0975 20.2446 47.8357 22.4114C50.933 24.8658 53.5814 27.7623 54.2772 29.487C54.7709 30.7031 54.8158 31.0789 54.8158 34.7715C54.7934 38.4198 54.7485 38.862 54.2772 40.0781C53.6038 41.7143 52.1001 43.24 49.6761 44.7214C46.691 46.5345 44.9404 46.9325 43.0102 46.2471C41.7309 45.8049 39.8007 45.9375 35.0874 46.822C30.4414 47.6843 29.3641 47.6843 26.6035 46.7335C23.7755 45.7828 22.2044 44.832 20.5211 43.0631C18.2093 40.6309 16.2567 35.678 16.6831 33.2237C16.8627 32.1624 18.5684 28.492 19.3989 27.4527C20.2518 26.3251 21.8453 25.2638 23.8428 24.4899C26.4464 23.4728 28.399 22.4114 30.3517 20.9742C33.3816 18.6968 37.444 17.8124 40.9902 18.6305Z" fill="#F9F4EF"/>
<path d="M36.748 22.0362C35.6483 22.3679 34.6383 23.0091 32.955 24.4242C31.0472 26.0383 29.8352 26.6795 28.6906 26.7016C27.5235 26.7016 26.2666 27.1438 25.6606 27.7851C24.9873 28.4926 22.698 32.0525 22.2491 33.1138C21.284 35.3912 21.8002 38.3983 23.5957 40.8084C26.2666 44.3683 30.4188 45.2748 35.132 43.2849C36.3889 42.7542 37.0847 42.6215 39.0149 42.5331C44.1097 42.312 47.5661 40.4325 48.7557 37.2928C49.1372 36.2978 49.2046 35.546 49.2046 32.7821C49.2046 29.775 49.1597 29.3549 48.6659 28.3157C48.3741 27.6524 47.6559 26.7016 46.9826 26.1046C45.0748 24.3136 42.1346 22.2352 41.2593 22.0362C40.2718 21.8151 37.5111 21.8151 36.748 22.0362ZM42.3815 25.5297C43.8628 26.3036 46.3093 28.5368 46.8479 29.5539C47.3641 30.571 47.7457 32.5831 47.7457 34.3078C47.7232 36.74 46.7133 38.133 44.0424 39.327C41.9775 40.2335 40.8553 40.4768 38.7007 40.4325C37.1969 40.4104 36.4563 40.521 35.4463 40.8748C31.6981 42.2678 29.8801 42.4004 27.8377 41.516C26.5584 40.9632 24.9873 39.4818 24.4037 38.2878C23.8202 37.0274 23.5957 34.8606 23.9324 33.6224C24.5159 31.5439 26.6706 29.6866 29.2517 29.0454C31.4288 28.5147 32.3714 28.0504 34.1221 26.6353C36.1196 25.0654 37.2418 24.6674 39.5087 24.8222C40.8553 24.8885 41.5286 25.0654 42.3815 25.5297Z" fill="#F9F4EF"/>
<path d="M35.8739 29.0897C33.5846 30.328 32.8888 33.733 34.5946 35.3029C35.2679 35.922 37.849 36.8728 38.8365 36.8728C40.0261 36.8728 40.9014 36.1653 41.7094 34.5511C42.2031 33.534 42.4725 32.6496 42.5398 31.7652L42.6296 30.4606L40.8789 29.6425C38.7018 28.6475 36.9961 28.4706 35.8739 29.0897ZM40.1158 31.3672C40.8565 31.7431 41.4625 32.1632 41.4625 32.2737C41.4625 32.8265 40.4525 34.2858 39.8241 34.6617C38.9487 35.1924 38.5223 35.2145 36.9961 34.7501C35.425 34.3079 34.9537 33.7994 34.9537 32.6054C34.9537 31.6546 35.425 30.9471 36.3003 30.5933C37.0185 30.328 38.8141 30.6817 40.1158 31.3672Z" fill="#F9F4EF"/>
</svg>
