<svg width="77" height="163" viewBox="0 0 77 163" fill="none" xmlns="http://www.w3.org/2000/svg">
<g opacity="0.08" filter="url(#filter0_f_765_1446)">
<path d="M-63.7359 6C-55.5903 16.5619 -46.7577 20.9294 -38.3876 24.8852C-33.2345 27.3206 -18.6415 30.9732 -12.7829 32.4462C-4.34355 34.5681 9.69412 37.8637 16.6438 42.2107C30.4503 50.8466 39.2981 58.7491 49.1176 72.2343C59.1283 85.9822 63.4842 103.56 66.7029 120.2C69.422 134.257 72.1012 150.82 67.5403 164.763C61.5988 182.926 48.4619 199.697 34.0445 211.383C22.4104 220.813 7.21056 231.663 -8.01554 232.793C-26.5215 234.168 -46.8622 228.689 -61.3424 216.29C-80.2374 200.111 -92.5143 171.118 -91.9834 145.727C-91.8104 137.449 -89.5414 128.786 -87.1494 120.952C-83.1637 107.898 -79.7691 94.0159 -73.8272 81.7325C-67.4881 68.6281 -55.5955 59.0829 -41.8539 55.85C-29.127 52.8557 -16.7541 52.002 -4.55179 57.0768C5.95204 61.4453 15.7918 70.0595 23.3868 78.6456C27.9059 83.7545 31.7735 89.6198 35.0342 95.6632C37.6209 100.458 41.0486 104.292 42.761 109.633C44.0922 113.786 45.2819 118.069 45.768 122.416C46.4116 128.171 44.8546 137.741 43.3909 142.415C37.4142 161.502 21.2043 174.724 0.967415 168.166C-23.2834 160.307 -35.7365 137.466 -38.5044 112.602C-39.2999 105.455 -41.9821 88.4875 -33.7084 84.1862C-27.3128 80.8614 -17.8996 79.5347 -10.8703 81.3368C-6.31578 82.5044 -0.66165 85.9442 2.45189 89.6873C4.42232 92.0561 7.23488 95.237 8.61816 98.0377C9.85035 100.533 13.8004 111.345 14.2348 117.229C14.9667 127.143 12.6091 129.982 7.93302 137.97C5.62232 141.917 3.3134 145.566 -1.50671 145.45C-5.35521 145.357 -9.36961 141.822 -12.469 139.751C-21.4994 133.715 -24.6275 124.198 -27.0092 113.71C-27.7968 110.241 -28.5287 105.068 -27.3137 101.639C-25.5953 96.7895 -19.0396 98.2666 -16.085 100.571C-9.88309 105.407 -6.45496 111.761 -6.45496 120.161C-6.45496 122.798 -3.8068 133.387 -6.45495 134.764" stroke="#0F0E17" stroke-width="4" stroke-linecap="round"/>
</g>
<defs>
<filter id="filter0_f_765_1446" x="-98" y="-0.00012207" width="173.999" height="239" filterUnits="userSpaceOnUse" color-interpolation-filters="sRGB">
<feFlood flood-opacity="0" result="BackgroundImageFix"/>
<feBlend mode="normal" in="SourceGraphic" in2="BackgroundImageFix" result="shape"/>
<feGaussianBlur stdDeviation="2" result="effect1_foregroundBlur_765_1446"/>
</filter>
</defs>
</svg>
