<svg width="99" height="119" viewBox="0 0 99 119" fill="none" xmlns="http://www.w3.org/2000/svg">
<g opacity="0.08" filter="url(#filter0_f_765_1443)">
<path d="M-40.7359 113C-32.5903 102.438 -23.7577 98.0706 -15.3876 94.1148C-10.2345 91.6794 4.35852 88.0268 10.2171 86.5538C18.6564 84.4319 32.6941 81.1363 39.6438 76.7893C53.4503 68.1534 62.2981 60.2509 72.1176 46.7657C82.1283 33.0178 86.4842 15.4397 89.7029 -1.20021C92.422 -15.257 95.1012 -31.82 90.5403 -45.7626C84.5988 -63.9259 71.4619 -80.6969 57.0445 -92.3828C45.4104 -101.813 30.2106 -112.663 14.9845 -113.793C-3.52149 -115.168 -23.8622 -109.689 -38.3424 -97.2902C-57.2374 -81.1114 -69.5143 -52.1175 -68.9834 -26.7266C-68.8104 -18.449 -66.5414 -9.78626 -64.1494 -1.95215C-60.1637 11.1017 -56.7691 24.9841 -50.8272 37.2675C-44.4881 50.3719 -32.5955 59.9171 -18.8539 63.15C-6.12703 66.1443 6.24591 66.998 18.4482 61.9232C28.952 57.5547 38.7918 48.9405 46.3868 40.3544C50.9059 35.2455 54.7735 29.3802 58.0342 23.3368C60.6209 18.5424 64.0486 14.708 65.761 9.36653C67.0922 5.21432 68.2819 0.930624 68.768 -3.41645C69.4116 -9.17145 67.8546 -18.7409 66.3909 -23.4154C60.4142 -42.5017 44.2043 -55.7243 23.9674 -49.1661C-0.283365 -41.3071 -12.7365 -18.4661 -15.5044 6.39834C-16.2999 13.5446 -18.9821 30.5125 -10.7084 34.8138C-4.31284 38.1386 5.10038 39.4653 12.1297 37.6632C16.6842 36.4956 22.3384 33.0558 25.4519 29.3127C27.4223 26.9439 30.2349 23.763 31.6182 20.9623C32.8503 18.4674 36.8004 7.65472 37.2348 1.77129C37.9667 -8.14327 35.6091 -10.9824 30.933 -18.9698C28.6223 -22.9167 26.3134 -26.5661 21.4933 -26.4496C17.6448 -26.3565 13.6304 -22.8223 10.531 -20.7507C1.50063 -14.7147 -1.6275 -5.19776 -4.0092 5.29023C-4.79681 8.75853 -5.52872 13.9319 -4.3137 17.3608C-2.59525 22.2105 3.96036 20.7334 6.915 18.4294C13.1169 13.5932 16.545 7.23876 16.545 -1.16063C16.545 -3.79848 19.1932 -14.3874 16.545 -15.7641" stroke="#0F0E17" stroke-width="4" stroke-linecap="round"/>
</g>
<defs>
<filter id="filter0_f_765_1443" x="-75" y="-120" width="173.999" height="239" filterUnits="userSpaceOnUse" color-interpolation-filters="sRGB">
<feFlood flood-opacity="0" result="BackgroundImageFix"/>
<feBlend mode="normal" in="SourceGraphic" in2="BackgroundImageFix" result="shape"/>
<feGaussianBlur stdDeviation="2" result="effect1_foregroundBlur_765_1443"/>
</filter>
</defs>
</svg>
