<svg width="108" height="113" viewBox="0 0 108 113" fill="none" xmlns="http://www.w3.org/2000/svg">
<g opacity="0.08" filter="url(#filter0_f_765_1427)">
<path d="M15.0935 -23.4973C9.22727 -12.946 5.18101 -0.188074 8.4539 12.0265C10.6861 20.3572 12.5521 29.4268 19.198 35.4747C23.7072 39.5781 28.3181 43.5014 33.3715 46.8493C40.7656 51.7479 47.0647 56.9073 53.4753 63.0974C63.7608 73.0292 69.5704 87.5081 81.0404 96.2274C87.8352 101.393 95.1343 105.207 103.566 106.488C111.062 107.627 117.63 105.461 124.066 101.782C127.329 99.9163 132.588 97.6252 134.877 94.6144" stroke="#0F0E17" stroke-width="4" stroke-linecap="round"/>
<path d="M25.8943 -14.254C23.4892 -9.00337 21.5071 -5.26668 22.1283 0.522767C22.5879 4.8059 23.6031 8.51003 25.3174 12.4244C27.7907 18.0722 32.9956 22.604 38.2377 25.3149C44.4384 28.5215 50.6685 32.2605 55.6585 37.3368C61.3566 43.1331 66.0342 49.4944 70.3522 56.4393C75.7727 65.1574 80.6452 75.2892 89.597 80.9533C94.0763 83.7874 101.409 86.5032 106.619 84.9899C117.246 81.9034 123.663 69.6825 126.434 59.4506" stroke="#0F0E17" stroke-width="4" stroke-linecap="round"/>
<path d="M38.5426 0.0585383C40.3618 6.84784 45.912 10.214 52.1444 12.345C62.8793 16.0155 71.4382 24.0146 77.4548 33.9132C81.2516 40.1598 85.4598 46.0314 89.8095 51.9004C92.4222 55.4258 94.5431 57.1543 98.9271 58.1113C103.79 59.1728 109.012 56.7804 111.619 52.6875C114.872 47.5805 117.272 41.82 119.61 36.2168C120.953 32.9979 122.153 30.1091 122.531 26.6116" stroke="#0F0E17" stroke-width="4" stroke-linecap="round"/>
<path d="M60.2895 -8.57135C61.3173 -4.73566 64.6264 -2.23185 67.7701 -0.348393C73.3911 3.01931 80.7479 7.60959 84.3833 13.1261C89.3281 20.6299 92.6925 29.6964 100.417 34.7918C104.9 37.7493 107.05 37.0405 110.725 33.2658C112.934 30.9973 113.844 27.9682 115.371 25.2216" stroke="#0F0E17" stroke-width="4" stroke-linecap="round"/>
</g>
<defs>
<filter id="filter0_f_765_1427" x="1.28467" y="-29.4976" width="139.592" height="142.29" filterUnits="userSpaceOnUse" color-interpolation-filters="sRGB">
<feFlood flood-opacity="0" result="BackgroundImageFix"/>
<feBlend mode="normal" in="SourceGraphic" in2="BackgroundImageFix" result="shape"/>
<feGaussianBlur stdDeviation="2" result="effect1_foregroundBlur_765_1427"/>
</filter>
</defs>
</svg>
