<svg width="115" height="357" viewBox="0 0 115 357" fill="none" xmlns="http://www.w3.org/2000/svg">
<g clip-path="url(#clip0_726_958)">
<path opacity="0.08" d="M-32.5056 -23.8036C-25.7611 -3.25937 -14.6293 8.17373 -3.98165 18.7282C2.57359 25.2261 22.8856 38.6624 31.0367 44.0667C42.7783 51.8517 62.4349 64.4428 70.7029 74.8323C87.1285 95.4725 96.3783 112.324 104.103 138.242C111.978 164.665 109.155 193.91 105.101 221.107C101.677 244.083 96.8409 270.872 82.3631 289.759C63.5024 314.363 34.4064 332.967 6.09573 343.1C-16.7495 351.277 -45.8041 359.71 -69.6608 353.255C-98.6565 345.408 -126.76 326.087 -142.186 299.326C-162.316 264.405 -165.434 213.431 -150.939 174.856C-146.214 162.28 -138.081 150.242 -130.206 139.539C-117.086 121.703 -104.421 102.281 -88.7287 86.6769C-71.9876 70.0293 -48.6856 61.8148 -25.9625 64.2551C-4.91727 66.5152 14.4339 71.861 30.3294 86.1885C44.0123 98.5218 54.3931 116.996 61.3616 134.22C65.508 144.469 68.2521 155.525 69.9734 166.527C71.3389 175.256 74.5058 182.967 74.2416 192.063C74.0362 199.133 73.544 206.329 71.9433 213.243C69.8242 222.397 62.2896 236.206 57.5355 242.573C38.1238 268.571 6.24824 280.092 -21.115 259.174C-53.9056 234.108 -60.609 192.455 -51.4344 152.913C-48.7976 141.548 -43.7481 114.137 -28.7975 112.002C-17.2409 110.352 -2.15372 113.383 7.60741 119.92C13.932 124.156 20.7109 132.461 23.4473 139.863C25.1791 144.548 27.759 150.929 28.3616 155.959C28.8983 160.44 29.1018 179.112 26.5941 188.35C22.3683 203.917 17.2385 206.995 5.79429 216.705C0.139104 221.503 -5.35299 225.847 -12.6496 223.077C-18.4753 220.866 -22.6997 213.298 -26.3154 208.461C-36.85 194.368 -36.4969 178.121 -34.4808 160.789C-33.8141 155.057 -32.1434 146.746 -28.4403 142.152C-23.2029 135.653 -13.9898 141.439 -10.7204 146.553C-3.85777 157.29 -2.04835 168.858 -6.57517 181.713C-7.99683 185.75 -9.66049 203.38 -14.4457 204.063" stroke="#222028" stroke-width="8" stroke-linecap="round"/>
</g>
<defs>
<clipPath id="clip0_726_958">
<rect width="115" height="357" fill="white"/>
</clipPath>
</defs>
</svg>
