<svg width="29" height="32" viewBox="0 0 29 32" fill="none" xmlns="http://www.w3.org/2000/svg">
<g clip-path="url(#clip0_746_1768)">
<path fill-rule="evenodd" clip-rule="evenodd" d="M14.4914 2C13.7411 2 13.1329 2.67157 13.1329 3.5C13.1329 4.32843 13.7411 5 14.4914 5C15.2418 5 15.85 4.32843 15.85 3.5C15.85 2.67157 15.2418 2 14.4914 2ZM11.3214 3.5C11.3214 1.567 12.7407 0 14.4914 0C16.2422 0 17.6614 1.567 17.6614 3.5C17.6614 5.433 16.2422 7 14.4914 7C12.7407 7 11.3214 5.433 11.3214 3.5ZM23.9283 9.01655C23.9206 9.0195 23.9118 9.02288 23.9019 9.02668C23.8622 9.04188 23.8044 9.06373 23.7301 9.09127C23.5815 9.14636 23.3662 9.2243 23.0954 9.31747C22.5541 9.50367 21.7887 9.75139 20.8875 9.99912C19.097 10.4914 16.7219 10.9975 14.4914 10.9975C12.2609 10.9975 9.87174 10.4892 8.06776 9.99494C7.15979 9.7462 6.38751 9.49748 5.8411 9.31055C5.5677 9.21702 5.35034 9.13878 5.20023 9.0835C5.12516 9.05585 5.06687 9.03393 5.02677 9.0187C5.0194 9.0159 5.01265 9.01332 5.00651 9.01098C4.87065 8.97912 4.751 9.01864 4.66786 9.09166C4.58734 9.16238 4.51611 9.28587 4.527 9.49214C4.53274 9.59686 4.56339 9.66995 4.65875 9.76157C4.77747 9.87563 4.97584 9.991 5.26429 10.0975L10.4981 11.9673C10.5118 11.9722 10.5254 11.9775 10.5389 11.9831C11.2389 12.2746 12.0159 12.7837 12.3771 13.8168C12.5692 14.3623 12.6201 14.9675 12.6137 15.5372C12.6073 16.1159 12.5403 16.7256 12.4551 17.311C12.4534 17.3233 12.4514 17.3356 12.4492 17.3478L12.1152 19.1997C12.1135 19.2088 12.1118 19.2178 12.1099 19.2269L9.99338 29.4663C9.9925 29.4705 9.9916 29.4747 9.99067 29.4789C9.97804 29.5366 9.98359 29.6437 10.0624 29.7678C10.1405 29.8908 10.2549 29.9706 10.3679 29.9924C10.4825 30.0146 10.5664 29.9871 10.6455 29.9221C10.7374 29.8465 10.8436 29.6977 10.9095 29.464C10.9105 29.4605 10.9115 29.4569 10.9126 29.4534L13.0014 22.3253L13.0014 22.3251C13.1183 21.9266 13.2216 21.5237 13.3114 21.1166L13.3117 21.1153L13.6117 19.7622C13.7109 19.3148 14.074 19.0001 14.4912 19C14.9084 18.9999 15.2717 19.3144 15.3711 19.7617L15.6972 21.2295C15.7708 21.5611 15.8552 21.8888 15.9506 22.2128L15.9508 22.2137L18.077 29.4593C18.0786 29.4648 18.0802 29.4702 18.0817 29.4757C18.1426 29.6962 18.2463 29.8427 18.3407 29.9195C18.4238 29.9872 18.5121 30.0147 18.6262 29.9926C18.904 29.9387 19.0359 29.6772 18.9961 29.457L16.8803 19.2225C16.8785 19.2135 16.8767 19.2044 16.8751 19.1953L16.5411 17.3434C16.5389 17.3312 16.5369 17.319 16.5351 17.3067C16.4488 16.7133 16.3853 16.0736 16.3943 15.473C16.4029 14.8956 16.479 14.2397 16.7551 13.6909C17.006 13.185 17.4126 12.8372 17.7432 12.6109C18.0889 12.3742 18.4466 12.2069 18.702 12.1012C18.7051 12.0999 18.7082 12.0986 18.7113 12.0974L23.6918 10.1034C23.6921 10.1033 23.6923 10.1032 23.6926 10.103L23.6927 10.103C24.0713 9.95087 24.2682 9.84813 24.3795 9.74652C24.4217 9.70804 24.4328 9.68534 24.4365 9.67681C24.4398 9.66949 24.4543 9.63553 24.4543 9.54688C24.4543 9.34176 24.3764 9.17158 24.2872 9.08299C24.2465 9.04253 24.2029 9.01747 24.1541 9.00508C24.1093 8.99371 24.0366 8.9871 23.9283 9.01655ZM5.56663 7.10854L5.56844 7.10924L5.57739 7.1127C5.5857 7.1159 5.59868 7.12088 5.61614 7.12752C5.65108 7.14079 5.70396 7.16069 5.7734 7.18626C5.9123 7.23741 6.11728 7.31122 6.37722 7.40015C6.8975 7.57815 7.63592 7.81599 8.504 8.05381C10.2521 8.53272 12.4764 8.9975 14.4914 8.9975C16.5065 8.9975 18.7166 8.53487 20.4499 8.05838C21.3106 7.82174 22.0418 7.58508 22.5565 7.408C22.8137 7.31952 23.0164 7.2461 23.1537 7.19523C23.2223 7.1698 23.2745 7.15002 23.309 7.13684C23.3263 7.13024 23.3391 7.1253 23.3472 7.12212L23.356 7.1187L23.3578 7.11801C23.3781 7.11003 23.3986 7.10285 23.4194 7.09648C24.2205 6.85078 24.9665 7.06743 25.4988 7.59623C26.004 8.09811 26.2657 8.82761 26.2657 9.54688C26.2657 10.3069 25.9768 10.8835 25.5338 11.2879C25.1499 11.6384 24.6678 11.8396 24.3111 11.9829L24.3102 11.9832L19.3336 13.9757C19.1371 14.0573 18.9023 14.1706 18.6977 14.3107C18.4774 14.4615 18.3759 14.5866 18.3436 14.6521C18.3421 14.6551 18.3406 14.6581 18.3391 14.6611C18.2774 14.7832 18.2123 15.0482 18.2055 15.5062C18.199 15.9377 18.2447 16.4426 18.321 16.9714L18.6491 18.791L20.764 29.0212C20.765 29.026 20.7659 29.0307 20.7669 29.0355C21.0412 30.4579 20.1427 31.7292 18.9395 31.9624C17.623 32.2176 16.6657 31.1921 16.3516 30.0684L14.4926 23.7333L12.6374 30.0643C12.3202 31.1815 11.3814 32.2184 10.056 31.9626C8.85605 31.731 7.93111 30.392 8.22849 29.0158L10.3411 18.7954L10.6693 16.9757C10.7468 16.4395 10.7976 15.9454 10.8024 15.5126C10.8074 15.0665 10.7621 14.7494 10.6886 14.541L10.6875 14.5377C10.5968 14.2779 10.3935 14.0635 9.91878 13.8624L4.70261 11.9989C4.70008 11.998 4.69755 11.9971 4.69503 11.9962C3.98085 11.7333 2.80024 11.1185 2.71876 9.61081L2.71872 9.60997C2.62435 7.83879 4.07733 6.66678 5.49784 7.08502C5.52098 7.09183 5.54387 7.09965 5.56645 7.10847L5.56663 7.10854Z" fill="#0F0E17"/>
</g>
<defs>
<clipPath id="clip0_746_1768">
<rect width="28.9829" height="32" fill="white"/>
</clipPath>
</defs>
</svg>
