<svg width="32" height="32" viewBox="0 0 32 32" fill="none" xmlns="http://www.w3.org/2000/svg">
<path fill-rule="evenodd" clip-rule="evenodd" d="M1.35557 14.886C5.42224 9.05669 10.6951 6 15.9776 6C22.1816 6 27.5259 10.0417 30.6789 14.9115L30.6804 14.9138C30.889 15.238 31 15.6154 31 16.0009C31 16.3858 30.8894 16.7625 30.6815 17.0863C27.5312 22.0188 22.2215 26 15.9776 26C9.66718 26 4.45985 22.0271 1.3173 17.109C1.10377 16.7774 0.993018 16.3901 0.99901 15.9957C1.00502 15.6003 1.12808 15.2156 1.35265 14.8902L1.35557 14.886ZM2.99879 16.0261L3.00156 16.0304C5.90413 20.5739 10.5563 24 15.9776 24C21.3382 24 26.0906 20.5594 28.9967 16.0087L28.9986 16.0057C28.9995 16.0043 29 16.0026 29 16.0009C29 16.0002 28.9999 15.9995 28.9997 15.9989C28.9995 15.998 28.9992 15.9972 28.9987 15.9964C26.0816 11.4922 21.2902 8 15.9776 8C11.5187 8 6.79911 10.5807 2.99879 16.0261ZM15.9988 12C13.7897 12 11.9988 13.7909 11.9988 16C11.9988 18.2091 13.7897 20 15.9988 20C18.208 20 19.9988 18.2091 19.9988 16C19.9988 13.7909 18.208 12 15.9988 12ZM9.99884 16C9.99884 12.6863 12.6851 10 15.9988 10C19.3125 10 21.9988 12.6863 21.9988 16C21.9988 19.3137 19.3125 22 15.9988 22C12.6851 22 9.99884 19.3137 9.99884 16Z" fill="#0F0E17"/>
</svg>
