<svg width="24" height="24" viewBox="0 0 24 24" fill="none" xmlns="http://www.w3.org/2000/svg">
<path d="M16.1766 22.5H12.8438C12.3797 22.5 12 22.1203 12 21.6562V20.3578C12 19.8421 11.7516 19.4953 11.5453 19.289C11.1797 18.9328 10.6547 18.7359 10.0969 18.7499C9.09844 18.7734 8.25 19.6546 8.25 20.6765V21.6562C8.25 22.1203 7.87031 22.5 7.40625 22.5H4.10625C2.67187 22.4953 1.50469 21.3281 1.5 19.8937V16.5937C1.5 16.1296 1.87969 15.7499 2.34375 15.7499H3.64219C4.07344 15.7499 4.49063 15.5671 4.81875 15.2343C5.18906 14.8593 5.4 14.3484 5.39062 13.8328C5.37656 12.839 4.56094 11.9999 3.60469 11.9999H2.34375C1.87969 11.9999 1.5 11.6203 1.5 11.1562V7.85619C1.50469 6.42182 2.67187 5.25463 4.10625 5.24994H7.07344V4.57026C7.07344 4.55151 7.07344 4.53276 7.07344 4.51869C7.10156 2.82651 8.50313 1.47182 10.2 1.49994C11.8641 1.52807 13.2188 2.92494 13.2188 4.60776V5.24994H16.1813C17.5969 5.24994 18.7547 6.40307 18.7547 7.82338V10.7859H19.3969C21.1125 10.7859 22.5047 12.1453 22.5047 13.814C22.5047 15.5296 21.1266 16.9265 19.4344 16.9265H18.75V19.9265C18.75 21.3468 17.5969 22.5 16.1766 22.5ZM3 17.2499V19.8937C3 20.5031 3.50156 21 4.11094 21H6.75V20.6765C6.75 19.7953 7.09219 18.9515 7.71563 18.2999C8.34375 17.6437 9.17813 17.2734 10.0594 17.2499C11.0156 17.2265 11.9391 17.5781 12.5906 18.2156C13.1766 18.7874 13.4953 19.5468 13.4953 20.3531V21H16.1719C16.7625 21 17.2453 20.5171 17.2453 19.9265V16.2703C17.2453 15.8062 17.625 15.4265 18.0891 15.4265H19.425C20.2922 15.4265 20.9953 14.7046 20.9953 13.814C20.9953 12.9703 20.2734 12.2859 19.3875 12.2859H18.0938C17.6297 12.2859 17.25 11.9062 17.25 11.4421V7.82338C17.25 7.23276 16.7672 6.74994 16.1766 6.74994H12.5578C12.0938 6.74994 11.7141 6.37026 11.7141 5.90619V4.60776C11.7141 3.73588 11.0203 3.014 10.1719 2.99994C9.75 2.99525 9.35625 3.14994 9.05156 3.44057C8.75156 3.73119 8.57812 4.12494 8.57344 4.54213V4.57026V5.90619C8.57344 6.37026 8.19375 6.74994 7.72969 6.74994H4.10625C3.49687 6.74994 3 7.25151 3 7.86088V10.4999H3.60469C4.47188 10.4999 5.29219 10.8515 5.92031 11.4937C6.53438 12.1218 6.88125 12.9468 6.89062 13.8093C6.90469 14.7234 6.53906 15.6234 5.8875 16.2843C5.27344 16.9078 4.47656 17.2499 3.64219 17.2499H3Z" fill="#0F0E17"/>
</svg>
