<svg width="24" height="24" viewBox="0 0 24 24" fill="none" xmlns="http://www.w3.org/2000/svg">
<path fill-rule="evenodd" clip-rule="evenodd" d="M8.625 1.5C8.8967 1.5 9.14716 1.64695 9.27971 1.88413L12.7638 8.11875C14.0276 7.57018 15.4232 7.37831 16.7974 7.57211C18.4288 7.80219 19.939 8.56306 21.0948 9.73718C22.2506 10.9113 22.9877 12.4333 23.1921 14.0682C23.3965 15.703 23.0568 17.3596 22.2257 18.7822C21.3946 20.2047 20.1181 21.314 18.5936 21.9387C17.069 22.5633 15.3812 22.6686 13.7909 22.2382C12.2005 21.8078 10.7961 20.8658 9.79465 19.5575C8.94593 18.4489 8.42661 17.1295 8.28772 15.75H1.5C1.23393 15.75 0.98777 15.609 0.853123 15.3795C0.718476 15.1501 0.715496 14.8664 0.845292 14.6341L7.97029 1.88413C8.10284 1.64695 8.35329 1.5 8.625 1.5ZM9.79722 15.75C9.92963 16.799 10.3376 17.7992 10.9857 18.6458C11.7869 19.6923 12.9104 20.446 14.1827 20.7903C15.455 21.1346 16.8052 21.0504 18.0249 20.5506C19.2445 20.0509 20.2656 19.1635 20.9306 18.0255C21.5955 16.8874 21.8672 15.5621 21.7036 14.2543C21.5401 12.9464 20.9505 11.7288 20.0259 10.7895C19.1012 9.85017 17.893 9.24148 16.5879 9.05741C15.5388 8.90945 14.4739 9.0425 13.5001 9.43642L16.4047 14.6341C16.5345 14.8664 16.5315 15.1501 16.3969 15.3795C16.2622 15.609 16.0161 15.75 15.75 15.75H9.79722ZM2.77828 14.25H14.4717L8.625 3.78745L2.77828 14.25Z" fill="#0F0E17"/>
</svg>
