<svg width="72" height="72" viewBox="0 0 72 72" fill="none" xmlns="http://www.w3.org/2000/svg">
<g clip-path="url(#clip0_730_1132)">
<path fill-rule="evenodd" clip-rule="evenodd" d="M28.9501 11.0072C29.917 10.7481 30.9108 11.3219 31.1699 12.2888L31.639 14.0396L47.3957 9.81757C48.3243 9.56874 49.3138 9.699 50.1464 10.1797C50.979 10.6604 51.5866 11.4522 51.8354 12.3808L54.6501 22.8853C54.8989 23.8139 54.7686 24.8034 54.2879 25.636C53.8072 26.4686 53.0154 27.0761 52.0868 27.325L36.3301 31.547L37.2683 35.0484L52.2993 31.0209C52.2994 31.0209 52.2995 31.0209 52.2995 31.0208C52.7596 30.8975 53.2393 30.8661 53.7115 30.9283C54.1836 30.9905 54.6387 31.1451 55.0511 31.3832C55.0512 31.3833 55.0514 31.3834 55.0516 31.3835L63.2798 36.134C64.1467 36.6346 64.4437 37.7431 63.9432 38.61L59.1926 46.8382C59.1925 46.8383 59.1924 46.8385 59.1923 46.8387C58.9543 47.2511 58.6374 47.6125 58.2597 47.9024C57.8819 48.1924 57.4507 48.405 56.9906 48.5282C56.9905 48.5283 56.9905 48.5283 56.9904 48.5283L41.9594 52.5558L43.3668 57.8081C43.6259 58.775 43.052 59.7688 42.0851 60.0279C41.1182 60.287 40.1244 59.7132 39.8653 58.7463L38.458 53.4941L22.7013 57.716C21.7726 57.9649 20.7832 57.8346 19.9506 57.3539C19.118 56.8732 18.5104 56.0814 18.2616 55.1528L15.4469 44.6483C15.1981 43.7197 15.3284 42.7302 15.8091 41.8976C16.2898 41.065 17.0816 40.4575 18.0102 40.2086L33.7669 35.9867L32.8286 32.4852L17.7977 36.5127C17.7976 36.5127 17.7975 36.5127 17.7974 36.5128C17.3374 36.6361 16.8577 36.6675 16.3855 36.6053C15.9134 36.5431 15.4582 36.3885 15.0459 36.1504C15.0458 36.1503 15.0456 36.1502 15.0454 36.1501L6.81722 31.3996C5.95032 30.8991 5.65329 29.7906 6.1538 28.9236L10.9043 20.6955C10.9044 20.6953 10.9045 20.6951 10.9046 20.6949C11.1426 20.2826 11.4596 19.9211 11.8373 19.6312C12.2151 19.3413 12.6463 19.1286 13.1063 19.0054C13.1064 19.0053 13.1065 19.0053 13.1066 19.0053L28.1376 14.9778L27.6684 13.227C27.4094 12.2601 27.9832 11.2663 28.9501 11.0072ZM14.0443 22.5069L10.1994 29.1665L16.8589 33.0114L51.1486 23.8235L48.3339 13.319L14.0443 22.5069ZM18.9484 43.7101L21.7631 54.2146L56.0527 45.0267L56.053 45.0262L59.8976 38.3671L53.2386 34.5225L53.2381 34.5222L18.9484 43.7101Z" fill="#0F0E17"/>
</g>
<defs>
<clipPath id="clip0_730_1132">
<rect width="58" height="58" fill="white" transform="translate(0 15.0115) rotate(-15)"/>
</clipPath>
</defs>
</svg>
